<svg width="288" height="288" viewBox="0 0 288 288" fill="none" xmlns="http://www.w3.org/2000/svg">
<g id="delete 1">
<g id="SvgjsG1008">
<g id="Frame">
<path id="Vector" d="M234.383 24.5117H22.9787C10.3078 24.5117 0 34.8201 0 47.491V173.108C0 185.779 10.3078 196.087 22.9787 196.087H58.6367L78.7534 230.572C79.5769 231.984 81.0889 232.853 82.7235 232.853C84.3581 232.853 85.8696 231.984 86.6936 230.572L106.81 196.087H142.702C145.24 196.087 147.297 194.029 147.297 191.491C147.297 188.953 145.24 186.895 142.702 186.895H104.171C102.536 186.895 101.024 187.764 100.2 189.176L82.7235 219.136L65.2466 189.176C64.4226 187.764 62.9106 186.895 61.2765 186.895H22.9787C15.3759 186.895 9.19125 180.711 9.19125 173.108V47.491C9.19125 39.8882 15.3759 33.7035 22.9787 33.7035H234.383C241.986 33.7035 248.17 39.8882 248.17 47.491V124.091C248.17 126.629 250.228 128.686 252.766 128.686C255.304 128.686 257.362 126.629 257.362 124.091V47.491C257.362 34.8201 247.054 24.5117 234.383 24.5117Z" fill="white"/>
<path id="Vector_2" d="M196.084 81.1914H61.2753C58.7373 81.1914 56.6797 83.249 56.6797 85.787C56.6797 88.325 58.7373 90.3827 61.2753 90.3827H196.084C198.622 90.3827 200.68 88.325 200.68 85.787C200.68 83.2496 198.622 81.1914 196.084 81.1914ZM196.084 105.702H61.2753C58.7373 105.702 56.6797 107.76 56.6797 110.298C56.6797 112.836 58.7373 114.894 61.2753 114.894H196.084C198.622 114.894 200.68 112.836 200.68 110.298C200.68 107.76 198.622 105.702 196.084 105.702ZM134.808 130.213H61.2753C58.7373 130.213 56.6797 132.27 56.6797 134.808C56.6797 137.346 58.7373 139.404 61.2753 139.404H134.808C137.346 139.404 139.403 137.346 139.403 134.808C139.403 132.27 137.346 130.213 134.808 130.213ZM222.127 131.745C185.804 131.745 156.255 161.295 156.255 197.617C156.255 233.939 185.804 263.489 222.127 263.489C258.449 263.489 287.999 233.939 287.999 197.617C287.999 161.295 258.449 131.745 222.127 131.745ZM222.127 254.298C190.873 254.298 165.446 228.871 165.446 197.617C165.446 166.363 190.873 140.936 222.127 140.936C253.381 140.936 278.808 166.363 278.808 197.617C278.808 228.871 253.381 254.298 222.127 254.298Z" fill="white"/>
<path id="Vector_3" d="M253.54 209.532L241.625 197.616L253.54 185.701C258.916 180.325 258.916 171.578 253.54 166.202C250.936 163.598 247.473 162.164 243.791 162.164C240.108 162.164 236.646 163.598 234.041 166.202L222.126 178.118L210.21 166.202C207.606 163.598 204.143 162.164 200.461 162.164C196.778 162.164 193.315 163.598 190.712 166.202C185.336 171.578 185.336 180.325 190.712 185.701L202.628 197.616L190.712 209.532C185.336 214.907 185.336 223.654 190.712 229.03C193.316 231.634 196.779 233.068 200.461 233.068C204.144 233.068 207.606 231.634 210.211 229.03L222.126 217.115L234.041 229.03C236.646 231.634 240.108 233.068 243.791 233.068C247.473 233.068 250.936 231.634 253.54 229.03C258.916 223.654 258.916 214.907 253.54 209.532ZM247.041 222.531C246.172 223.4 245.019 223.877 243.791 223.877C242.563 223.877 241.409 223.399 240.541 222.531L225.376 207.365C224.478 206.468 223.302 206.019 222.126 206.019C220.95 206.019 219.774 206.468 218.876 207.365L203.711 222.531C202.842 223.4 201.689 223.877 200.461 223.877C199.234 223.877 198.08 223.399 197.212 222.531C195.42 220.739 195.42 217.823 197.212 216.031L212.377 200.866C214.172 199.071 214.172 196.161 212.377 194.367L197.212 179.201C195.42 177.409 195.42 174.493 197.212 172.701C198.079 171.833 199.233 171.355 200.461 171.355C201.689 171.355 202.843 171.833 203.711 172.701L218.876 187.867C220.671 189.662 223.581 189.662 225.376 187.867L240.541 172.701C241.41 171.833 242.563 171.355 243.791 171.355C245.018 171.355 246.172 171.833 247.041 172.701C248.832 174.494 248.832 177.409 247.041 179.201L231.875 194.367C231.013 195.228 230.529 196.397 230.529 197.616C230.529 198.835 231.014 200.004 231.875 200.866L247.041 216.031C248.832 217.823 248.832 220.739 247.041 222.531Z" fill="white"/>
</g>
</g>
</g>
</svg>
