<svg xmlns="http://www.w3.org/2000/svg" viewBox="0 0 410.67 350.15"><defs><style>.cls-1{fill:#ebebeb;}.cls-2{fill:#e0e0e0;}.cls-3{fill:#f0f0f0;}.cls-4{fill:#f5f5f5;}.cls-5{fill:#263238;}.cls-6,.cls-8{fill:#fff;}.cls-7{fill:#20bf55;}.cls-8{opacity:0.3;}.cls-9{opacity:0.2;}</style></defs><title>base</title><g id="Layer_2" data-name="Layer 2"><g id="Background_Complete" data-name="Background Complete"><path class="cls-1" d="M174.51,123.47l.45-13.14-8.07-2.64a77.89,77.89,0,0,0-2.15-13.19l6.84-5-4.65-12.34-8.46.68a77,77,0,0,0-7-11.35l4.38-7.31-9-9.61-7.56,3.87a82.29,82.29,0,0,0-10.84-7.83l1.23-8.4-12-5.44-5.5,6.44a81.36,81.36,0,0,0-13-3l-2.05-8.23L83.9,26.43,81.3,34.5a81.5,81.5,0,0,0-13.2,2.15L63,29.85,50.68,34.46l.68,8.46A81.05,81.05,0,0,0,40,50l-7.28-4.38-9.64,9L27,62.18A77.38,77.38,0,0,0,19.16,73l-8.39-1.26-5.48,12,6.47,5.5a79.2,79.2,0,0,0-3,13L.45,104.35,0,117.49l8.1,2.64a78.4,78.4,0,0,0,2.15,13.19l-6.83,5.05,4.64,12.34,8.46-.68a77.31,77.31,0,0,0,7,11.35l-4.38,7.31,9,9.61,7.56-3.87a80.41,80.41,0,0,0,10.84,7.84l-1.26,8.39,12,5.44,5.53-6.44a80.54,80.54,0,0,0,13,3.05l2,8.23,13.17.45,2.61-8.07a80.48,80.48,0,0,0,13.19-2.15l5,6.8,12.35-4.61-.65-8.45A83.5,83.5,0,0,0,135,177.83l7.28,4.38,9.64-9-3.87-7.6a76.58,76.58,0,0,0,7.8-10.84l8.4,1.26,5.47-12-6.47-5.49a77.61,77.61,0,0,0,3.05-13ZM85.71,166a52.16,52.16,0,1,1,53.9-50.33A52.15,52.15,0,0,1,85.71,166Z"/><path class="cls-1" d="M399.39,80l3.32-3.09-1.33-2.61a27.6,27.6,0,0,0,2.69-3.74L407,71l1.88-4.15L406.62,65a26.84,26.84,0,0,0,1.05-4.49l2.85-.71.15-4.54-2.79-.9a28.3,28.3,0,0,0-.73-4.56L409.49,48l-1.59-4.26L405,44a27.57,27.57,0,0,0-2.43-3.91l1.51-2.51L401,34.26l-2.6,1.33a28.33,28.33,0,0,0-3.75-2.69L395,30l-4.14-1.88L389,30.34a28.2,28.2,0,0,0-4.5-1l-.7-2.84-4.54-.17-.91,2.8a27.14,27.14,0,0,0-4.55.74l-1.74-2.35-4.26,1.59.24,2.92a27.12,27.12,0,0,0-3.92,2.43l-2.52-1.51L358.3,36l1.33,2.62a26.84,26.84,0,0,0-2.69,3.75l-2.9-.44-1.88,4.14,2.23,1.9a26.73,26.73,0,0,0-1.05,4.48l-2.85.72-.15,4.54,2.79.9a28.36,28.36,0,0,0,.73,4.55l-2.35,1.74,1.6,4.25,2.92-.22a28.25,28.25,0,0,0,2.43,3.92L357,75.35l3.1,3.33,2.6-1.34A28.41,28.41,0,0,0,366.4,80L366,82.92l4.13,1.89,1.9-2.22a29.06,29.06,0,0,0,4.5,1l.7,2.85,4.54.16.91-2.8a26.16,26.16,0,0,0,4.55-.74l1.74,2.36,4.26-1.59L393,81a27.67,27.67,0,0,0,3.92-2.43ZM375.77,60.88a6.47,6.47,0,1,1,9.15.32A6.47,6.47,0,0,1,375.77,60.88Z"/><path class="cls-1" d="M278.42,214.93l-10.34-7.14v0A57.87,57.87,0,0,0,263.92,197l2.65-10.4-15-16.06L241,172.46a57,57,0,0,0-10.46-4.88h0l-6.42-10.81-22-.75L195,166.35h0a57.05,57.05,0,0,0-10.76,4.15l-10.39-2.65-16.07,15,1.93,10.54h0a56.27,56.27,0,0,0-4.89,10.49L144,210.32l-.75,22,10.35,7.14a54.52,54.52,0,0,0,4.15,10.82h0l-2.64,10.36,15,16.07,10.49-1.92a57.91,57.91,0,0,0,10.55,4.89h0l6.41,10.8,22,.75,7.14-10.34a57.64,57.64,0,0,0,10.85-4.15h0l10.35,2.64,16.06-15L262,253.81a56,56,0,0,0,4.89-10.49h0l10.81-6.42ZM210,248.32a24.71,24.71,0,1,1,25.55-23.86A24.72,24.72,0,0,1,210,248.32Z"/><path class="cls-1" d="M302,152.55h-.07L284.59,152a2.09,2.09,0,0,1-1.74-1l-4.66-7.85a48,48,0,0,1-7.29-3.38l-7.5,1.37a2.11,2.11,0,0,1-1.93-.63l-11.82-12.67a2.1,2.1,0,0,1-.5-2l1.88-7.41a47.32,47.32,0,0,1-2.86-7.47l-7.53-5.2a2.13,2.13,0,0,1-.91-1.81l.6-17.32a2.09,2.09,0,0,1,1-1.74l7.86-4.67a47.12,47.12,0,0,1,3.37-7.25l-1.38-7.53a2.16,2.16,0,0,1,.64-1.93l12.67-11.82a2.13,2.13,0,0,1,2-.51l7.43,1.9a47.51,47.51,0,0,1,7.45-2.87l5.2-7.53a2.07,2.07,0,0,1,1.81-.91l17.32.6a2.11,2.11,0,0,1,1.74,1l4.67,7.87a46.46,46.46,0,0,1,7.23,3.37l7.55-1.39a2.12,2.12,0,0,1,1.93.64l11.82,12.67a2.1,2.1,0,0,1,.5,2l-1.89,7.44a47,47,0,0,1,2.87,7.44l7.52,5.2a2.11,2.11,0,0,1,.92,1.81l-.6,17.32a2.09,2.09,0,0,1-1,1.74l-7.87,4.67a45.32,45.32,0,0,1-3.37,7.25l1.38,7.53a2.11,2.11,0,0,1-.63,1.92l-12.67,11.83a2.1,2.1,0,0,1-2,.5l-7.4-1.88a48.1,48.1,0,0,1-7.49,2.87l-5.19,7.51A2.11,2.11,0,0,1,302,152.55Zm-16.09-4.78,15,.52,5-7.2a2.15,2.15,0,0,1,1.19-.84,43.58,43.58,0,0,0,8.15-3.13h0a2.09,2.09,0,0,1,1.46-.16l7,1.79,11-10.24-1.31-7.18a2.11,2.11,0,0,1,.27-1.47,42.21,42.21,0,0,0,3.65-7.83,2.11,2.11,0,0,1,.94-1.17l7.52-4.47.52-15-7.21-5a2.09,2.09,0,0,1-.8-1.07.84.84,0,0,1,0-.17,42.91,42.91,0,0,0-3.11-8,2.11,2.11,0,0,1-.17-1.48l1.81-7.08-10.25-11-7.19,1.31a2.06,2.06,0,0,1-1.46-.26A42.74,42.74,0,0,0,310,55a2.19,2.19,0,0,1-.44-.2,2.13,2.13,0,0,1-.71-.72l-4.47-7.53-15-.52-5,7.21a2.08,2.08,0,0,1-1.24.85,42.28,42.28,0,0,0-8.05,3.11,2.17,2.17,0,0,1-1.48.17l-7.08-1.81-11,10.25L256.89,73a2.08,2.08,0,0,1-.19,1.32l-.09.17A42.52,42.52,0,0,0,253,82.3a2.1,2.1,0,0,1-.91,1.12l-7.53,4.47-.52,15,7.21,5a2.09,2.09,0,0,1,.84,1.19,42.32,42.32,0,0,0,3.11,8.11,2,2,0,0,1,.17.46,2,2,0,0,1,0,1l-1.8,7,10.25,11,7.14-1.31a2.19,2.19,0,0,1,1.46.26,42.86,42.86,0,0,0,7.88,3.67,2.09,2.09,0,0,1,1.18.93ZM310.67,53h0Zm-15.51,75.85-1.11,0a31.53,31.53,0,1,1,1.11,0Zm0-59.1a27.55,27.55,0,1,0,.95,0Z"/><polygon class="cls-2" points="341.87 27.91 334.7 25.99 332.77 18.82 335.58 16.01 338.55 22.14 344.68 25.11 341.87 27.91"/><path class="cls-2" d="M342.32,23.11a3.35,3.35,0,1,0-4.74-4.73L341.15,13l4.79,2.42,1.05,5Z"/><path class="cls-3" d="M335,16.57l5.25-5.25,7.18,1.92,1.92,7.18-5.25,5.25-7.18-1.92Zm9.54,4.3a3.34,3.34,0,1,0-4.73,0A3.35,3.35,0,0,0,344.56,20.87Z"/><polygon class="cls-2" points="48.66 219.3 52.5 218.27 53.54 214.42 52.03 212.91 50.44 216.2 47.15 217.79 48.66 219.3"/><path class="cls-2" d="M48.42,216.72A1.8,1.8,0,1,1,51,214.18L49,211.31l-2.57,1.3-.56,2.7Z"/><path class="cls-3" d="M52.33,213.21l-2.82-2.82-3.85,1-1,3.85,2.82,2.82,3.85-1Zm-5.12,2.31A1.8,1.8,0,1,1,49.75,213a1.8,1.8,0,0,1-2.54,2.54Z"/><path class="cls-3" d="M34.8,8.25,38,11.45a2.15,2.15,0,0,0,3,0h0a2.15,2.15,0,0,0,0-3l-3.2-3.19a2.14,2.14,0,0,0-3,0h0A2.12,2.12,0,0,0,34.8,8.25Z"/><path class="cls-2" d="M32.55.3a4.59,4.59,0,0,1,6,2.58,4.61,4.61,0,0,1-3,5.79,4.61,4.61,0,0,1-6-2.59A4.59,4.59,0,0,1,32.55.3Z"/><rect class="cls-3" x="33.36" y="-0.57" width="1.37" height="10.1" transform="translate(41.34 38.04) rotate(-109.76)"/></g><g id="Shadow"><ellipse id="_Path_" data-name="&lt;Path&gt;" class="cls-4" cx="208.43" cy="338.83" rx="193.89" ry="11.32"/></g><g id="Character"><path class="cls-5" d="M180.89,227.43c1.38-22.4-1.17-63.12,40.94-57.73,45.14,5.77,32.22,58.55,32.22,58.55Z"/><circle class="cls-6" cx="209.95" cy="195.59" r="18.38"/><path class="cls-5" d="M212.36,177.25c-8.7-1.49-18,4.93-18.93,11.43l34.51,3.17C226.72,184.44,219.27,178.43,212.36,177.25Z"/><path class="cls-5" d="M224,195.13c-.25,4.81-2.87,8.58-5.85,8.43s-5.2-4.18-4.95-9,2.86-8.57,5.84-8.42S224.26,190.33,224,195.13Z"/><path class="cls-7" d="M210,215a19.38,19.38,0,1,1,19.37-19.38A19.4,19.4,0,0,1,210,215Zm0-36.75a17.38,17.38,0,1,0,17.37,17.37A17.4,17.4,0,0,0,210,178.22Z"/><path class="cls-8" d="M248.92,226.87h-.12a.51.51,0,0,1-.37-.61c0-.13,3.22-13.69-.09-27.4a.5.5,0,0,1,.37-.6.48.48,0,0,1,.6.36c3.37,13.95.13,27.74.09,27.88A.49.49,0,0,1,248.92,226.87Z"/><path class="cls-8" d="M246.13,191.35a.49.49,0,0,1-.45-.29,35.56,35.56,0,0,0-4.74-7.66.5.5,0,1,1,.77-.63,36.9,36.9,0,0,1,4.88,7.87.5.5,0,0,1-.25.66A.41.41,0,0,1,246.13,191.35Z"/><path class="cls-5" d="M87.17,332.51H86.8a5,5,0,1,1,.27-10h.1c2.89,0,9.84-3.51,24.37-26.43a5,5,0,0,1,7.51-1.09,207.34,207.34,0,0,0,37.15,25.48,5,5,0,1,1-4.53,8.91,213.7,213.7,0,0,1-34.8-23.14C104.69,324.56,95.65,332.51,87.17,332.51Z"/><path class="cls-5" d="M118.1,294.09l-.42,0a3,3,0,0,1-2.55-3.39c.71-5-.17-23.63-6.47-38.13a3,3,0,0,1,1.06-3.67c13.7-9.34,42.87-10.46,44.11-10.5a3,3,0,0,1,.21,6c-.27,0-25.78,1-38.89,8.2C120.73,267,122,285,121.07,291.52A3,3,0,0,1,118.1,294.09Z"/><path class="cls-7" d="M123.14,290.21c-2-4.71-11-4.17-16.26-.14-2.83,2.15-6.65,8.64-7,11a3.55,3.55,0,0,0,4,4.24C107.3,305,112,300,112,300c-3.15,3.09.91,5.27,7,.8C122.38,298.31,125.38,295.48,123.14,290.21Z"/><path class="cls-5" d="M295.14,228.75a.34.34,0,0,1-.14,0,.49.49,0,0,1-.34-.61c1.33-4.64,2.79-7.48,4.7-9.06a5.21,5.21,0,0,1,.15-3.25,6.43,6.43,0,0,1,2.36-3,2.56,2.56,0,0,1-.59-2.38,6.24,6.24,0,0,1,2.14-3.16,2.35,2.35,0,0,1-.57-1.51c0-3,5.51-7.52,11.76-8.37a.49.49,0,0,1,.57.42.51.51,0,0,1-.43.57c-5.94.81-10.92,5.11-10.9,7.38a1.35,1.35,0,0,0,.36.9,12.24,12.24,0,0,1,9.29-1.86c3.07.58,4.31,1.23,4.17,2.16-.27,1.76-6.81,2.12-11.19,1.6a6.24,6.24,0,0,1-2.25-.65,5.38,5.38,0,0,0-2,2.73,1.6,1.6,0,0,0,.49,1.64c1.86-1,4.47-1.36,7.92-.6,4.54,1,4.71,1.56,4.81,1.89a.68.68,0,0,1-.16.66c-1,1-7.91.53-11.4-.33a4.83,4.83,0,0,1-1.2-.45,5.52,5.52,0,0,0-2.27,2.71,4.42,4.42,0,0,0-.23,2.3l.56-.29c2.06-1,4.57-.82,7.65.5,2,.88,3,1.65,3.1,2.44a1.1,1.1,0,0,1-.57,1c-1.52,1-6.87.86-9.65-.62a3.89,3.89,0,0,1-1.53-1.48c-1.64,1.49-3,4.16-4.16,8.35A.49.49,0,0,1,295.14,228.75Zm5.42-9.33a3,3,0,0,0,1.22,1.22c2.26,1.2,6.7,1.47,8.37.8.34-.14.39-.25.39-.25s-.06-.56-2.5-1.61c-2.81-1.2-5-1.37-6.83-.52C301,219.17,300.77,219.29,300.56,219.42Zm3.34-6.57.26.07a32.72,32.72,0,0,0,9.93.75,21.78,21.78,0,0,0-3.63-1A11.4,11.4,0,0,0,303.9,212.85Zm1.26-5.62a5.89,5.89,0,0,0,1.44.32c5,.59,9.38-.1,10-.72-.17-.16-.84-.59-3.33-1.06A11.27,11.27,0,0,0,305.16,207.23Z"/><path class="cls-5" d="M165,330.84c.66-.21.44-.85-.3-.85H151.12c-25.78-2.73-43.79.93-32.44,1.79s-.8.69-9.09,3.82,61.66,3.93,68,0C183.48,332,155.83,333.77,165,330.84Z"/><polygon class="cls-7" points="261.9 334.83 144.1 330.93 139.21 216.7 278.32 219.81 261.9 334.83"/><path class="cls-5" d="M180.89,332.64a.49.49,0,0,1-.5-.45l-9.45-114.73a.5.5,0,0,1,1-.08l9.44,114.72a.49.49,0,0,1-.45.54Z"/><polygon class="cls-7" points="261.9 334.83 293.56 330.01 303.54 223.8 278.32 219.81 261.9 334.83"/><polygon class="cls-9" points="261.9 334.83 293.56 330.01 303.54 223.8 278.32 219.81 261.9 334.83"/><path class="cls-5" d="M154.17,308.91l-2.91-67.86a12.27,12.27,0,0,1,12.54-12.79l88,2a12.27,12.27,0,0,1,11.88,14L254,312.62a12.26,12.26,0,0,1-12.55,10.52L166,320.65A12.27,12.27,0,0,1,154.17,308.91Z"/><path class="cls-6" d="M163.68,249.08l13.62.43-.11,3.52-8.53-.28-.08,2.62,7.91.25-.1,3.36-7.92-.25-.1,3.24,8.78.28L177,266l-13.87-.44Z"/><path class="cls-6" d="M179.83,266.06l.53-16.45,8.47.27a12.16,12.16,0,0,1,3.59.52,3.82,3.82,0,0,1,2,1.56,4.54,4.54,0,0,1,.68,2.69,4.59,4.59,0,0,1-.66,2.34,4.53,4.53,0,0,1-1.66,1.56,6.09,6.09,0,0,1-1.8.6,5,5,0,0,1,1.3.65,4.87,4.87,0,0,1,.79.89,7.21,7.21,0,0,1,.68,1l2.31,4.85-5.75-.19-2.56-5.11a3.8,3.8,0,0,0-.88-1.3,2.19,2.19,0,0,0-1.23-.42h-.45l-.21,6.68Zm5.42-9.62,2.14.07a9.46,9.46,0,0,0,1.36-.18,1.35,1.35,0,0,0,.84-.49,1.54,1.54,0,0,0,.35-1,1.51,1.51,0,0,0-.47-1.24,3.07,3.07,0,0,0-1.88-.48l-2.23-.07Z"/><path class="cls-6" d="M197.71,266.63l.52-16.45,8.48.27a12.22,12.22,0,0,1,3.59.52,3.81,3.81,0,0,1,2,1.56,4.64,4.64,0,0,1-1.64,6.59,6.06,6.06,0,0,1-1.81.6,4.78,4.78,0,0,1,1.31.65,4.92,4.92,0,0,1,.78.89,6.43,6.43,0,0,1,.68,1l2.31,4.85-5.74-.19-2.56-5.11a3.94,3.94,0,0,0-.88-1.3,2.22,2.22,0,0,0-1.23-.42H203l-.21,6.67Zm5.42-9.62,2.14.07a8.71,8.71,0,0,0,1.36-.19,1.33,1.33,0,0,0,.84-.49,1.51,1.51,0,0,0,.35-.94,1.54,1.54,0,0,0-.47-1.24,3.08,3.08,0,0,0-1.88-.49l-2.24-.07Z"/><path class="cls-6" d="M214.75,259a7.79,7.79,0,0,1,8.77-8.25,8.63,8.63,0,0,1,6.26,2.41,8.32,8.32,0,0,1,2,6.25,10.09,10.09,0,0,1-1.12,4.7,6.88,6.88,0,0,1-2.9,2.78,9.18,9.18,0,0,1-4.6.88,10.54,10.54,0,0,1-4.58-1,7,7,0,0,1-2.87-2.9A9.38,9.38,0,0,1,214.75,259Zm5.08.19a5.52,5.52,0,0,0,.81,3.6,3.52,3.52,0,0,0,5.06.19,6.11,6.11,0,0,0,1-3.8,5.12,5.12,0,0,0-.83-3.43,3.24,3.24,0,0,0-2.51-1.15,3.11,3.11,0,0,0-2.5,1A5.56,5.56,0,0,0,219.83,259.14Z"/><path class="cls-6" d="M234.34,267.8l.52-16.46,8.48.27a12.57,12.57,0,0,1,3.59.52,3.87,3.87,0,0,1,2,1.57,4.64,4.64,0,0,1-1.64,6.59,6.08,6.08,0,0,1-1.81.59,5.08,5.08,0,0,1,1.31.65,5.32,5.32,0,0,1,.78.89,6,6,0,0,1,.68,1.05l2.31,4.84-5.74-.18L242.22,263a3.73,3.73,0,0,0-.88-1.3,2.08,2.08,0,0,0-1.23-.42l-.45,0-.21,6.68Zm5.42-9.63,2.14.07a7.38,7.38,0,0,0,1.36-.18,1.4,1.4,0,0,0,.84-.49,1.66,1.66,0,0,0-.12-2.18,3,3,0,0,0-1.88-.49l-2.24-.07Z"/><path class="cls-6" d="M242.43,295.75a1.3,1.3,0,0,1-1-.43L232.9,286l-9.23,8.44a1.32,1.32,0,0,1-1.86-.08l-8.56-9.37L204,293.38a1.31,1.31,0,0,1-1.85-.08l-8.56-9.37-9.24,8.44a1.32,1.32,0,0,1-1.85-.08L174,282.92l-9.24,8.44a1.31,1.31,0,0,1-1.77-1.94l10.21-9.33a1.3,1.3,0,0,1,1.85.09l8.56,9.37,9.24-8.44a1.29,1.29,0,0,1,1.85.08l8.56,9.37,9.24-8.44a1.31,1.31,0,0,1,1.85.08l8.56,9.37,9.24-8.44a1.32,1.32,0,0,1,1.86.08l9.44,10.34a1.32,1.32,0,0,1-.08,1.86A1.31,1.31,0,0,1,242.43,295.75Z"/><polygon class="cls-7" points="84.18 337.26 77.93 334.27 72.34 307.11 75.37 303.77 84.18 337.26"/><polygon class="cls-7" points="84.18 337.26 92.49 332.41 85.37 310.02 75.37 303.77 84.18 337.26"/><polygon class="cls-9" points="84.18 337.26 92.49 332.41 85.37 310.02 75.37 303.77 84.18 337.26"/><path class="cls-5" d="M220.38,342.2h-.69a5,5,0,0,1,.28-10c7.7.25,24-4.48,33.31-13.52a5,5,0,0,1,2.05-1.2c15.79-4.74,21.67,4.83,21.91,5.24l-8.61,5.09a1.06,1.06,0,0,0,.12.19c-.1-.14-2.34-3-9.46-1.24C247.61,337.41,229.67,342.2,220.38,342.2Z"/><polygon class="cls-7" points="219.83 348.84 201.62 347.7 200.18 314.12 224.66 315.04 219.83 348.84"/><polygon class="cls-7" points="219.83 348.84 224.09 344.61 226.72 323.67 224.66 315.04 219.83 348.84"/><polygon class="cls-9" points="219.83 348.84 224.09 344.61 226.72 323.67 224.66 315.04 219.83 348.84"/><path class="cls-5" d="M325.34,336.13a3,3,0,0,1-1.81-.61c-10.39-7.9-24.44-21.93-29.84-35.46a4.24,4.24,0,0,1-.17-.61c-2.63-15.64-5.14-48.54-5.24-49.94a3,3,0,1,1,6-.45c0,.34,2.56,33.57,5.13,49.07,5.37,13.16,19.95,26.67,27.77,32.61a3,3,0,0,1-1.82,5.39Z"/><path class="cls-5" d="M339.21,337.64c-2.32,0-4.95-1.05-7.81-3.12a3,3,0,0,1,3.51-4.86c2.48,1.79,3.83,2,4.3,2a3,3,0,0,1,0,6Z"/><path class="cls-7" d="M332.24,334.43c3.21-9.53,16.37-7.65,20.9-6.23a48.64,48.64,0,0,1,11.07,4.8c2.45,1.61,2.49,4.29-.78,5.82-4,1.89-14.16.21-14.16.21,5.24,2.3,0,6-9.21,2.36C337.07,340.22,331.1,337.93,332.24,334.43Z"/><path class="cls-5" d="M300.3,253.63c-1.2,8.1-7.9,14.07-13.36,13.27s-5.69-8-4.5-16.14,3.35-14,8.81-13.2S301.49,245.53,300.3,253.63Z"/><circle class="cls-5" cx="168.31" cy="220.47" r="0.82"/><path class="cls-5" d="M176.64,226.37a.82.82,0,1,1-.82-.82A.82.82,0,0,1,176.64,226.37Z"/><path class="cls-5" d="M177.56,323.27a.82.82,0,1,1-.82-.81A.82.82,0,0,1,177.56,323.27Z"/><path class="cls-5" d="M185.07,329.18a.82.82,0,1,1-.82-.82A.82.82,0,0,1,185.07,329.18Z"/></g><g id="Robot_Parts" data-name="Robot Parts"><path class="cls-5" d="M40.94,339a9.64,9.64,0,0,1-7.33-3.95.49.49,0,0,1,.13-.69.5.5,0,0,1,.69.12c1.87,2.7,6,4.13,7.81,3.28a1.39,1.39,0,0,0,.47-.34A6,6,0,0,1,39.18,333c-.23-1.26-.41-3,.64-3.21,1.43-.33,3.31,3.14,4,5.77a3.56,3.56,0,0,1,.13,1.34,4.49,4.49,0,0,0,1.79.15,2,2,0,0,0,1.37-.75,5.85,5.85,0,0,1-2.3-4.19c-.39-2.73-.1-3.21.2-3.44a.66.66,0,0,1,.69-.08c1.07.45,2.37,4.33,2.61,6.53a3.2,3.2,0,0,1,0,.69,3.91,3.91,0,0,0,1.35.26,4.33,4.33,0,0,0,2.41-.63,3,3,0,0,1-.41-.29c-1-.89-1.45-2.31-1.28-4.33.14-1.57.5-2.43,1.13-2.7a1.14,1.14,0,0,1,1.2.24,6.93,6.93,0,0,1,1.73,5.56A3,3,0,0,1,54,335c1.83.32,4.41-.2,6.64-.75a.51.51,0,0,1,.61.37.5.5,0,0,1-.37.6c-2.71.67-5.63,1.22-7.69.62a5.64,5.64,0,0,1-3.5,1.16,4.59,4.59,0,0,1-1.63-.31A2.83,2.83,0,0,1,45.91,338a5.54,5.54,0,0,1-2.24-.2,2.21,2.21,0,0,1-1,.89A4.16,4.16,0,0,1,40.94,339Zm-.86-8.28a4.5,4.5,0,0,0,.08,2A5.09,5.09,0,0,0,43,336.49a2.73,2.73,0,0,0-.11-.71C42.1,332.92,40.61,331,40.08,330.73Zm5.57-.87a13.26,13.26,0,0,0,.18,2.06,5.12,5.12,0,0,0,1.52,3.22A15.93,15.93,0,0,0,45.65,329.86Zm6.29-.87h0s-.38.19-.52,1.86.16,2.83.93,3.49a3.06,3.06,0,0,0,.6.38,2.26,2.26,0,0,0,.55-1,6.32,6.32,0,0,0-1.2-4.43C52.1,329,52,329,51.94,329Z"/><polygon class="cls-5" points="187.31 346.57 190.02 341.87 187.31 337.17 184.41 337.17 186.04 341.87 184.41 346.57 187.31 346.57"/><path class="cls-5" d="M184.6,344.32a2.45,2.45,0,1,1,0-4.89l-4.61-.92-1.22,3.72,2,3.14Z"/><path class="cls-7" d="M185,337.17h-5.43l-2.71,4.7,2.71,4.7H185l2.71-4.7Zm-2.71,7.15a2.45,2.45,0,1,1,2.44-2.45A2.45,2.45,0,0,1,182.28,344.32Z"/><polygon class="cls-7" points="376.32 336.86 374.31 333.37 376.32 329.88 378.48 329.88 377.26 333.37 378.48 336.86 376.32 336.86"/><path class="cls-7" d="M378.34,335.19a1.82,1.82,0,1,0,0-3.64l3.42-.68.91,2.76L381.14,336Z"/><path class="cls-5" d="M378,329.88h4l2,3.49-2,3.49h-4l-2-3.49Zm2,5.31a1.82,1.82,0,1,0-1.82-1.82A1.83,1.83,0,0,0,380.06,335.19Z"/><path class="cls-5" d="M301.38,341.49h4.52a2.14,2.14,0,0,0,2.14-2.14h0a2.14,2.14,0,0,0-2.14-2.14h-4.52a2.14,2.14,0,0,0-2.14,2.14h0A2.14,2.14,0,0,0,301.38,341.49Z"/><path class="cls-7" d="M294.16,337.45a4.46,4.46,0,1,1,2,6.19A4.6,4.6,0,0,1,294.16,337.45Z"/><rect class="cls-5" x="297.5" y="334.3" width="1.37" height="10.1" transform="translate(423.18 773.46) rotate(-154.76)"/></g></g></svg>