<svg xmlns="http://www.w3.org/2000/svg" viewBox="0 0 149.02 115.9"><defs><style>.cls-1{fill:#fff;fill-rule:evenodd;}</style></defs><title>email</title><g id="Layer_2" data-name="Layer 2"><g id="Layer_1-2" data-name="Layer 1"><path class="cls-1" d="M0,20.32a4.45,4.45,0,0,1,2.16.57L74.51,61.07l72.32-40.18a4.45,4.45,0,0,1,2.16-.57c-.12-8.4-.74-13.16-3.94-16.35-4-4-10.35-4-23.12-4H27.09C14.32,0,7.94,0,4,4,.77,7.16.15,11.92,0,20.32ZM149,30,78.9,69a9,9,0,0,1-8.78,0L72.32,65,70.12,69,0,30V88.81C0,101.58,0,108,4,111.94s10.35,4,23.12,4h94.84c12.77,0,19.15,0,23.12-4s4-10.36,4-23.13Z"/></g></g></svg>