<svg xmlns="http://www.w3.org/2000/svg" viewBox="0 0 40.97 40.97"><defs><style>.cls-1{fill:#fff;}</style></defs><title>gear1</title><g id="Layer_2" data-name="Layer 2"><g id="_404" data-name="404"><path class="cls-1" d="M21.19,41a.48.48,0,0,1-.36-.15l-2.1-2.16a17.4,17.4,0,0,1-3.14-.59l-3.27,1.44a.48.48,0,0,1-.48,0L6.37,35.84a.48.48,0,0,1-.23-.42l.06-3.57a16.71,16.71,0,0,1-1.77-2.67L1.62,28.09a.5.5,0,0,1-.3-.37L0,21.29a.52.52,0,0,1,.14-.46l2.16-2.1a17.84,17.84,0,0,1,.59-3.15L1.46,12.32a.48.48,0,0,1,0-.48L5.13,6.36a.46.46,0,0,1,.42-.22l3.56.06a18.26,18.26,0,0,1,2.68-1.77l1.09-2.81a.53.53,0,0,1,.37-.31L19.68,0a.52.52,0,0,1,.46.14l2.1,2.16a17.84,17.84,0,0,1,3.15.59l3.26-1.44a.48.48,0,0,1,.48,0l5.48,3.63a.5.5,0,0,1,.22.42l0,3.57a17.86,17.86,0,0,1,1.76,2.67l2.81,1.09a.51.51,0,0,1,.31.37L41,19.68a.49.49,0,0,1-.14.46l-2.16,2.1a17.9,17.9,0,0,1-.59,3.14l1.44,3.27a.48.48,0,0,1,0,.48L35.84,34.6a.49.49,0,0,1-.42.23l-3.56-.06a16.52,16.52,0,0,1-2.68,1.76l-1.09,2.82a.51.51,0,0,1-.37.31L21.29,41ZM15.55,37l.14,0a16.81,16.81,0,0,0,3.31.62.48.48,0,0,1,.32.15l2,2.1,5.9-1.2L28.32,36a.47.47,0,0,1,.23-.27,16.13,16.13,0,0,0,2.82-1.85.45.45,0,0,1,.32-.11l3.47,0,3.33-5-1.41-3.19a.57.57,0,0,1,0-.34A16.63,16.63,0,0,0,37.68,22a.5.5,0,0,1,.15-.32l2.1-2-1.2-5.9L36,12.66a.53.53,0,0,1-.26-.25,16.55,16.55,0,0,0-1.85-2.8.5.5,0,0,1-.12-.33l.06-3.47-5-3.33-3.18,1.4a.5.5,0,0,1-.34,0A16.33,16.33,0,0,0,22,3.29a.48.48,0,0,1-.32-.15l-2-2.1-5.91,1.2L12.66,5a.55.55,0,0,1-.24.26A16.92,16.92,0,0,0,9.6,7.08a.44.44,0,0,1-.32.12l-3.47,0-3.33,5,1.41,3.17a.54.54,0,0,1,0,.43A17.27,17.27,0,0,0,3.29,19a.48.48,0,0,1-.15.32l-2.1,2,1.2,5.9,2.73,1a.49.49,0,0,1,.27.26,16.83,16.83,0,0,0,1.84,2.79.5.5,0,0,1,.12.33l0,3.47,5,3.33,3.18-1.41A.65.65,0,0,1,15.55,37Zm4.92-3.23A13.32,13.32,0,0,1,9.38,13.13h0A13.32,13.32,0,1,1,20.47,33.81ZM10.21,13.68a12.33,12.33,0,0,0,3.47,17.08,12.33,12.33,0,1,0-3.47-17.08Z"/></g></g></svg>