<svg xmlns="http://www.w3.org/2000/svg" viewBox="0 0 38.97 38.97"><defs><style>.cls-1{fill:#fff;}</style></defs><title>gear2</title><g id="Layer_2" data-name="Layer 2"><g id="_404" data-name="404"><path class="cls-1" d="M39,17l-3-2.05h0a16.68,16.68,0,0,0-1.2-3.11l.76-3L31.23,4.19l-3,.55a16.26,16.26,0,0,0-3-1.4h0L23.32.22,17,0,14.93,3h0a16.59,16.59,0,0,0-3.1,1.2l-3-.76L4.19,7.74l.55,3h0a16.39,16.39,0,0,0-1.41,3L.22,15.66,0,22l3,2.06a16.11,16.11,0,0,0,1.2,3.12h0l-.76,3,4.32,4.63,3-.55a15.9,15.9,0,0,0,3,1.41h0l1.85,3.11L22,39,24,36a16,16,0,0,0,3.13-1.2h0l3,.76,4.63-4.32-.56-3a16.3,16.3,0,0,0,1.41-3h0l3.11-1.85ZM19.24,26.61a7.12,7.12,0,1,1,7.36-6.88A7.14,7.14,0,0,1,19.24,26.61Z"/></g></g></svg>