<svg xmlns="http://www.w3.org/2000/svg" viewBox="0 0 50.43 50.43"><defs><style>.cls-1{fill:#20bf55;}</style></defs><title>gear4</title><g id="Layer_2" data-name="Layer 2"><g id="_404" data-name="404"><path class="cls-1" d="M50.3,28l.13-3.79-2.33-.76a21.83,21.83,0,0,0-.62-3.8l2-1.45-1.34-3.56-2.44.19a22.88,22.88,0,0,0-2-3.27l1.26-2.1L42.32,6.66,40.14,7.77A24.88,24.88,0,0,0,37,5.51l.35-2.42L33.91,1.52,32.32,3.38a24.37,24.37,0,0,0-3.75-.88L28,.13,24.18,0l-.75,2.33a22.65,22.65,0,0,0-3.8.62L18.17,1,14.61,2.31l.19,2.44a23.87,23.87,0,0,0-3.27,2L9.44,5.53,6.65,8.11,7.77,10.3a23.19,23.19,0,0,0-2.25,3.13L3.1,13.07,1.52,16.52l1.87,1.59a23.51,23.51,0,0,0-.88,3.75l-2.38.6L0,26.25,2.34,27A21.68,21.68,0,0,0,3,30.81L1,32.26l1.34,3.56,2.44-.19a22.88,22.88,0,0,0,2,3.27L5.53,41l2.59,2.77,2.18-1.12a24.18,24.18,0,0,0,3.13,2.26l-.36,2.42,3.45,1.57,1.6-1.86a24.37,24.37,0,0,0,3.75.88l.59,2.37,3.8.13L27,48.1a22.65,22.65,0,0,0,3.8-.62l1.45,2,3.56-1.33-.18-2.44a24.5,24.5,0,0,0,3.27-2L41,44.9l2.78-2.58-1.12-2.19A23.19,23.19,0,0,0,44.92,37l2.42.37,1.58-3.46-1.87-1.59a23.26,23.26,0,0,0,.88-3.75ZM24.71,40.24A15,15,0,1,1,40.24,25.73,15,15,0,0,1,24.71,40.24Z"/></g></g></svg>