<svg xmlns="http://www.w3.org/2000/svg" viewBox="0 0 34.12 34.13"><defs><style>.cls-1{fill:#20bf55;opacity:0.3;}</style></defs><title>gear3</title><g id="Layer_2" data-name="Layer 2"><g id="_404" data-name="404"><path class="cls-1" d="M33.84,20.2l.28-2.55L32.58,17a16,16,0,0,0-.22-2.59l1.4-.89-.71-2.47H31.38a15.27,15.27,0,0,0-1.19-2.31l.95-1.36-1.61-2L28,6.05a16.13,16.13,0,0,0-2-1.67l.37-1.62L24.13,1.52,23,2.71a15.08,15.08,0,0,0-2.47-.79L20.19.29,17.64,0,17,1.53a17.2,17.2,0,0,0-2.59.24L13.53.36l-2.47.72V2.75A16.28,16.28,0,0,0,8.76,3.94L7.4,3l-2,1.61L6,6.12a17.07,17.07,0,0,0-1.67,2L2.76,7.75,1.52,10,2.7,11.17a16,16,0,0,0-.79,2.49l-1.64.27L0,16.48l1.53.64a16,16,0,0,0,.23,2.58l-1.41.89.72,2.47H2.74a15.66,15.66,0,0,0,1.19,2.3L3,26.72l1.61,2,1.54-.65a16.13,16.13,0,0,0,2,1.67l-.37,1.62L10,32.61l1.18-1.18a14.73,14.73,0,0,0,2.47.78l.29,1.64,2.55.28.63-1.53a17.45,17.45,0,0,0,2.59-.24l.89,1.41,2.46-.72V31.38a16.28,16.28,0,0,0,2.31-1.19l1.35,1,2-1.61L28.07,28a17.14,17.14,0,0,0,1.68-2l1.61.36,1.24-2.25L31.42,23a17.64,17.64,0,0,0,.78-2.47ZM21,19.21a4.46,4.46,0,1,1-1.77-6.05A4.46,4.46,0,0,1,21,19.21Z"/></g></g></svg>