<svg xmlns="http://www.w3.org/2000/svg" viewBox="0 0 60.33 60.34"><defs><style>.cls-1{fill:#ebebeb;}</style></defs><title>shit6</title><g id="Layer_2" data-name="Layer 2"><g id="Background_Complete" data-name="Background Complete"><path class="cls-1" d="M49.05,53.72l3.31-3.09L51,48a27.08,27.08,0,0,0,2.69-3.75l2.9.44,1.88-4.14-2.23-1.9a26.73,26.73,0,0,0,1-4.48l2.85-.72.15-4.54L57.54,28a29.33,29.33,0,0,0-.73-4.55l2.34-1.75-1.6-4.25-2.91.23a28.25,28.25,0,0,0-2.43-3.92l1.51-2.5L50.62,8,48,9.3a27.52,27.52,0,0,0-3.75-2.7l.42-2.89L40.56,1.82l-1.9,2.23a27.83,27.83,0,0,0-4.49-1L33.46.16,28.92,0,28,2.8a26.16,26.16,0,0,0-4.55.74L21.73,1.18,17.47,2.77l.24,2.92a27.12,27.12,0,0,0-3.92,2.43l-2.52-1.5L8,9.71l1.33,2.62a27.67,27.67,0,0,0-2.7,3.74L3.7,15.63,1.82,19.78l2.23,1.89a26.84,26.84,0,0,0-1,4.49l-2.85.71L0,31.41l2.79.9a27.12,27.12,0,0,0,.73,4.55L1.17,38.6l1.6,4.26,2.91-.22a27.31,27.31,0,0,0,2.44,3.91L6.61,49.06l3.1,3.32,2.6-1.33a28.24,28.24,0,0,0,3.74,2.69l-.42,2.89,4.13,1.88,1.9-2.22a28,28,0,0,0,4.5,1.05l.7,2.84,4.54.16.91-2.79a27.14,27.14,0,0,0,4.55-.74l1.74,2.35,4.26-1.59-.24-2.92a26.79,26.79,0,0,0,3.92-2.43ZM25.43,34.59a6.47,6.47,0,1,1,9.15.31A6.47,6.47,0,0,1,25.43,34.59Z"/></g></g></svg>