<svg xmlns="http://www.w3.org/2000/svg" viewBox="0 0 12.58 12.07"><defs><style>.cls-1{fill:#f0f0f0;}.cls-2{fill:#e0e0e0;}</style></defs><title>shit1</title><g id="Layer_2" data-name="Layer 2"><g id="Background_Complete" data-name="Background Complete"><path class="cls-1" d="M5.73,8.25l3.2,3.2a2.14,2.14,0,0,0,3,0h0a2.15,2.15,0,0,0,0-3L8.76,5.23a2.15,2.15,0,0,0-3,0h0A2.14,2.14,0,0,0,5.73,8.25Z"/><path class="cls-2" d="M3.48.3a4.59,4.59,0,0,1,6,2.58A4.6,4.6,0,0,1,6.49,8.67a4.61,4.61,0,0,1-6-2.59A4.59,4.59,0,0,1,3.48.3Z"/><rect class="cls-1" x="4.3" y="-0.57" width="1.37" height="10.1" transform="translate(2.45 10.69) rotate(-109.76)"/></g></g></svg>