<svg xmlns="http://www.w3.org/2000/svg" viewBox="0 0 110.81 110.82"><defs><style>.cls-1{fill:#ebebeb;}</style></defs><title>shit4</title><g id="Layer_2" data-name="Layer 2"><g id="Background_Complete" data-name="Background Complete"><path class="cls-1" d="M62.25,110.82h-.07l-17.32-.6a2.09,2.09,0,0,1-1.74-1l-4.66-7.85A48,48,0,0,1,31.17,98l-7.5,1.37a2.11,2.11,0,0,1-1.93-.63L9.92,86a2.13,2.13,0,0,1-.51-2l1.89-7.41a46.37,46.37,0,0,1-2.86-7.47L.91,64A2.13,2.13,0,0,1,0,62.18L.59,44.86a2.13,2.13,0,0,1,1-1.74l7.86-4.67a47.56,47.56,0,0,1,3.37-7.25l-1.38-7.53a2.09,2.09,0,0,1,.64-1.92L24.78,9.92a2.12,2.12,0,0,1,2-.5l7.43,1.89a47.51,47.51,0,0,1,7.45-2.87L46.83.91A2.07,2.07,0,0,1,48.64,0L66,.6a2.11,2.11,0,0,1,1.75,1L72.37,9.5a47.4,47.4,0,0,1,7.23,3.37l7.55-1.39a2.12,2.12,0,0,1,1.92.64L100.9,24.79a2.1,2.1,0,0,1,.5,2l-1.89,7.44a47,47,0,0,1,2.87,7.44l7.52,5.2a2.08,2.08,0,0,1,.91,1.81L110.22,66a2.09,2.09,0,0,1-1,1.74l-7.87,4.67A45.32,45.32,0,0,1,98,79.62l1.38,7.53a2.13,2.13,0,0,1-.63,1.93L86,100.9a2.1,2.1,0,0,1-2,.5l-7.4-1.88a48.1,48.1,0,0,1-7.49,2.87L64,109.91A2.13,2.13,0,0,1,62.25,110.82ZM46.16,106l15,.52,5-7.2a2.12,2.12,0,0,1,1.19-.84,42.89,42.89,0,0,0,8.15-3.13h0A2.09,2.09,0,0,1,77,95.23L84,97,95,86.78,93.66,79.6a2.06,2.06,0,0,1,.27-1.47,42.87,42.87,0,0,0,3.65-7.83,2.07,2.07,0,0,1,.94-1.17L106,64.66l.51-15-7.2-5a2,2,0,0,1-.8-1.07,1,1,0,0,1,0-.16,42.77,42.77,0,0,0-3.12-8.06,2.11,2.11,0,0,1-.16-1.48L97,26.83l-10.25-11-7.18,1.31a2.09,2.09,0,0,1-1.47-.26,43.63,43.63,0,0,0-7.84-3.67,2,2,0,0,1-.44-.2,2.13,2.13,0,0,1-.71-.72L64.66,4.78l-15-.52-5,7.21a2.08,2.08,0,0,1-1.24.85,43.32,43.32,0,0,0-8.06,3.11,2.14,2.14,0,0,1-1.47.17l-7.08-1.81L15.85,24l1.31,7.18A2.15,2.15,0,0,1,17,32.54l-.1.17a41.86,41.86,0,0,0-3.65,7.86,2.08,2.08,0,0,1-.92,1.12L4.78,46.16l-.52,15,7.21,5a2.09,2.09,0,0,1,.84,1.19,41.67,41.67,0,0,0,3.11,8.11,2.54,2.54,0,0,1,.17.46,2,2,0,0,1,0,1L13.79,84,24,95l7.14-1.3a2,2,0,0,1,1.45.26,43.88,43.88,0,0,0,7.89,3.66,2.09,2.09,0,0,1,1.18.93ZM70.94,11.23h0ZM55.43,87.08l-1.11,0a31.53,31.53,0,1,1,1.11,0Zm0-59.1a27.55,27.55,0,1,0,1,0Z"/></g></g></svg>