<svg xmlns="http://www.w3.org/2000/svg" viewBox="0 0 174.96 174.96"><defs><style>.cls-1{fill:#ebebeb;}</style></defs><title>shit7</title><g id="Layer_2" data-name="Layer 2"><g id="Background_Complete" data-name="Background Complete"><path class="cls-1" d="M174.51,97,175,83.9l-8.07-2.64a77.89,77.89,0,0,0-2.15-13.19l6.84-5-4.65-12.34-8.46.68a76.47,76.47,0,0,0-7-11.35l4.38-7.31-9-9.61L139.24,27a81.38,81.38,0,0,0-10.84-7.83l1.23-8.4-12-5.44-5.5,6.44a80.29,80.29,0,0,0-13-3.05L97.07.45,83.9,0,81.3,8.07a80.42,80.42,0,0,0-13.2,2.15L63,3.42,50.68,8l.68,8.46A80.13,80.13,0,0,0,40,23.56l-7.28-4.38-9.64,9L27,35.75a76.8,76.8,0,0,0-7.8,10.84l-8.39-1.26-5.48,12,6.47,5.49a79.55,79.55,0,0,0-3,13L.45,77.92,0,91.06,8.1,93.7a78.4,78.4,0,0,0,2.15,13.19l-6.83,5,4.64,12.35,8.46-.68a77.84,77.84,0,0,0,7,11.35l-4.38,7.31,9,9.61L35.75,148a79.48,79.48,0,0,0,10.84,7.83l-1.26,8.39,12,5.45,5.53-6.44a81.61,81.61,0,0,0,13,3.05l2,8.23,13.17.45,2.61-8.07a81.56,81.56,0,0,0,13.19-2.15l5,6.8,12.35-4.61-.65-8.46A83.44,83.44,0,0,0,135,151.4l7.28,4.38,9.64-9-3.87-7.6a76.58,76.58,0,0,0,7.8-10.84l8.4,1.26,5.47-12-6.47-5.5a77.26,77.26,0,0,0,3.05-13Zm-88.8,42.57a52.16,52.16,0,1,1,53.9-50.33A52.15,52.15,0,0,1,85.71,139.61Z"/></g></g></svg>