<svg xmlns="http://www.w3.org/2000/svg" viewBox="0 0 135.2 135.2"><defs><style>.cls-1{fill:#ebebeb;}</style></defs><title>shit5</title><g id="Layer_2" data-name="Layer 2"><g id="Background_Complete" data-name="Background Complete"><path class="cls-1" d="M135.2,58.92l-10.34-7.14a0,0,0,0,0,0,0A56.5,56.5,0,0,0,120.69,41l2.65-10.4-15-16.06L97.79,16.45a57,57,0,0,0-10.46-4.88h0L80.89.75,58.92,0,51.78,10.34h0A56.79,56.79,0,0,0,41,14.5L30.59,11.86l-16.07,15,1.93,10.53h0a55.44,55.44,0,0,0-4.89,10.5L.75,54.31,0,76.28l10.35,7.15A55,55,0,0,0,14.5,94.25h0l-2.64,10.37,15,16.06,10.49-1.92a57.24,57.24,0,0,0,10.55,4.89h0l6.4,10.8,22,.75,7.14-10.33a58.63,58.63,0,0,0,10.85-4.16h0l10.35,2.63,16.06-15L118.75,97.8a56,56,0,0,0,4.89-10.49h0l10.81-6.42ZM66.75,92.31A24.71,24.71,0,1,1,92.29,68.46,24.72,24.72,0,0,1,66.75,92.31Z"/></g></g></svg>