<svg width="335" height="183" viewBox="0 0 335 183" fill="none" xmlns="http://www.w3.org/2000/svg">
<path d="M54.2764 72.2284C54.2202 72.2379 54.1628 72.2379 54.1066 72.2284C49.8603 70.4784 47.3126 68.7784 46.001 66.7384C44.9626 66.9365 43.8917 66.7789 42.9437 66.2884C41.8427 65.7112 40.9293 64.7989 40.3204 63.6684C40.0001 63.9289 39.6227 64.0995 39.2235 64.1642C38.8243 64.2289 38.4161 64.1856 38.0369 64.0384C36.874 63.5773 35.8816 62.7324 35.2061 61.6284C34.7877 61.9272 34.2826 62.0584 33.7812 61.9984C30.9504 61.7584 27.176 55.8384 26.9023 49.5384C26.8985 49.4706 26.9075 49.4026 26.9288 49.3386C26.9501 49.2745 26.9832 49.2156 27.0263 49.1653C27.0694 49.115 27.1215 49.0743 27.1796 49.0457C27.2377 49.017 27.3006 49.0009 27.3647 48.9984C27.4267 48.9957 27.4885 49.006 27.5467 49.0287C27.6049 49.0514 27.6584 49.086 27.7039 49.1306C27.7495 49.1751 27.7863 49.2288 27.8123 49.2885C27.8383 49.3482 27.8529 49.4127 27.8554 49.4784C28.1196 55.4784 31.7336 60.8084 33.8661 60.9984C34.1848 61.0292 34.5024 60.929 34.7531 60.7184C34.0152 59.2926 33.5517 57.7258 33.3897 56.1087C33.2277 54.4916 33.3704 52.8565 33.8095 51.2984C34.621 48.2984 35.3382 47.1184 36.2063 47.2984C37.8293 47.7284 37.6123 54.2984 36.7536 58.5884C36.6191 59.3608 36.3503 60.1 35.961 60.7684C36.5146 61.7592 37.3552 62.5343 38.3577 62.9784C38.6241 63.0885 38.915 63.1141 39.1948 63.0519C39.4746 62.9898 39.7313 62.8426 39.9336 62.6284C39.1975 60.6984 38.9899 58.0584 40.0468 54.6984C41.3678 50.2684 41.934 50.1484 42.2265 50.0784C42.3365 50.0516 42.4514 50.058 42.5582 50.0969C42.6649 50.1358 42.7592 50.2056 42.8304 50.2984C43.6986 51.2984 42.6606 58.2184 41.566 61.6184C41.4378 62.0276 41.2602 62.4175 41.0376 62.7784C41.5439 63.86 42.3686 64.7375 43.3872 65.2784C44.0552 65.6226 44.7981 65.7711 45.5386 65.7084C45.4504 65.5196 45.3717 65.326 45.3027 65.1284C44.5572 62.9884 44.9253 60.5084 46.4256 57.5484C47.4164 55.5484 48.2279 54.6784 48.9733 54.6784C49.1737 54.6812 49.3691 54.7449 49.5364 54.8619C49.7036 54.9788 49.8357 55.1442 49.9169 55.3384C50.7379 56.9484 50.1434 62.2584 48.5204 64.8984C48.1404 65.5036 47.6119 65.9876 46.9918 66.2984C48.2562 68.0584 50.653 69.6084 54.5406 71.1884C54.5988 71.2106 54.6521 71.2449 54.6976 71.2894C54.743 71.3338 54.7795 71.3874 54.805 71.4471C54.8305 71.5068 54.8445 71.5713 54.8461 71.6368C54.8477 71.7022 54.8369 71.7674 54.8143 71.8284C54.7892 71.9549 54.7196 72.0665 54.6198 72.1408C54.5199 72.2151 54.3972 72.2464 54.2764 72.2284V72.2284ZM48.9356 55.7584C48.9356 55.7584 48.4072 55.7584 47.2182 58.1084C45.85 60.7884 45.5009 62.9984 46.1519 64.8684C46.2305 65.0989 46.3251 65.3228 46.435 65.5384C46.9438 65.3056 47.3769 64.9196 47.6806 64.4284C49.0016 62.2884 49.6339 57.8884 49.1432 56.1684C49.0677 55.8184 48.945 55.7584 48.9356 55.7584ZM42.1699 51.5484C41.6546 52.6849 41.2316 53.8658 40.9055 55.0784C40.1867 57.1791 40.0718 59.4585 40.5752 61.6284L40.6601 61.3784C41.6313 58.2019 42.1404 54.8873 42.1699 51.5484V51.5484ZM35.961 48.3984C35.8006 48.5484 35.3382 49.1784 34.6777 51.6184C33.9157 54.3619 34.1618 57.3093 35.3665 59.8684C35.5588 59.4173 35.7013 58.9441 35.7911 58.4584C36.8008 53.5484 36.4894 49.1084 35.961 48.3984Z" fill="#3E4147"/>
<path d="M90.1525 124.648C88.6503 124.66 87.172 124.25 85.8685 123.458C85.7607 123.39 85.6826 123.279 85.6508 123.15C85.6191 123.021 85.6362 122.884 85.6986 122.768C85.7632 122.657 85.8666 122.576 85.9866 122.544C86.1066 122.512 86.2336 122.532 86.3403 122.598C89.709 124.688 94.059 123.228 94.9554 121.698C95.0202 121.602 95.0661 121.494 95.0904 121.379C95.1147 121.264 95.117 121.144 95.097 121.028C93.3742 121.134 91.6683 120.62 90.2563 119.568C87.8501 117.978 87.6613 117.498 87.6802 117.118C87.6867 117.01 87.7197 116.905 87.7759 116.814C87.8321 116.722 87.9097 116.648 88.001 116.598C88.9446 116.098 93.2003 118.178 94.9743 119.408C95.187 119.558 95.3832 119.732 95.5593 119.928C96.2564 119.761 96.8847 119.361 97.3522 118.788C97.6108 118.461 97.8006 118.079 97.9089 117.668H97.7202C96.2104 117.828 94.7007 117.138 93.0871 115.568C91.9736 114.478 91.549 113.728 91.6905 113.138C91.7334 112.973 91.8201 112.823 91.9405 112.708C92.0609 112.593 92.2099 112.517 92.3699 112.488C93.6721 112.138 96.8898 113.598 98.2109 115.128C98.5034 115.461 98.7112 115.867 98.8148 116.308C100.051 115.698 101.353 114.308 102.891 112.038C102.965 111.931 103.075 111.859 103.198 111.836C103.322 111.814 103.448 111.843 103.552 111.918C103.602 111.957 103.645 112.006 103.677 112.062C103.71 112.118 103.731 112.18 103.741 112.246C103.75 112.311 103.748 112.377 103.733 112.441C103.719 112.505 103.692 112.565 103.656 112.618C101.882 115.258 100.391 116.758 98.9375 117.368C98.8602 118.107 98.5741 118.805 98.1165 119.368C97.5753 120.041 96.8603 120.531 96.0595 120.778C96.1049 121.017 96.1049 121.263 96.0595 121.502C96.0142 121.74 95.9243 121.967 95.7952 122.168C94.9366 123.588 92.6625 124.648 90.1525 124.648ZM89.3126 117.708C89.6335 117.958 90.0864 118.288 90.7375 118.708C91.7521 119.434 92.9179 119.887 94.1345 120.028C92.6137 119.067 90.9964 118.289 89.3126 117.708V117.708ZM92.6058 113.458C92.873 114.002 93.2499 114.477 93.7099 114.848C95.1064 116.228 96.3803 116.848 97.607 116.688H97.9089C97.8419 116.378 97.6987 116.091 97.4937 115.858C96.1633 114.278 93.2475 113.298 92.6058 113.458V113.458Z" fill="#3E4147"/>
<path d="M102.646 123.278L87.9444 126.108L74.5923 48.8884L46.2369 54.3584L0 141.358L4.96339 170.068L64.2598 158.648L68.3173 182.128L96.6822 176.668L92.6247 153.188L107.326 150.358L102.646 123.278ZM28.2422 137.598L52.7383 91.9984L59.5795 131.538L28.2422 137.598Z" fill="#20BF55"/>
<path d="M221.059 43.6384C220.613 38.7841 219.599 34.0074 218.04 29.4184C216.438 25.0246 214.211 20.9169 211.435 17.2384C208.153 12.9472 204.074 9.4173 199.451 6.86837C194.418 3.93503 187.744 1.89837 179.427 0.758367C162.159 -1.6283 148.7 1.61837 139.05 10.4984C129.4 19.3784 123.05 36.3784 119.999 61.4984C118.771 70.886 118.455 80.3824 119.055 89.8384C119.684 98.505 121.188 105.485 123.566 110.778C126.595 117.903 131.368 124.039 137.39 128.548C143.347 132.982 151.525 135.912 161.923 137.338C180.406 139.892 194.11 136.128 203.036 126.048C211.963 115.968 217.886 98.9517 220.805 74.9984C222.088 64.5946 222.174 54.064 221.059 43.6384Z" fill="#20BF55"/>
<path d="M170.416 127.078C168.151 126.998 165.698 126.778 163.244 126.438C154.601 125.248 147.92 122.928 143.372 119.548C138.836 116.154 135.25 111.524 132.992 106.148V106.038C131.181 102.038 129.992 96.2884 129.473 89.0384C128.923 80.3297 129.214 71.5844 130.341 62.9384C133.709 35.2184 140.664 23.6584 145.901 18.8384C152.016 13.2084 160.263 10.6684 171.124 11.0684C173.351 11.1484 175.71 11.3584 178.125 11.6884C185.098 12.6884 190.609 14.2884 194.516 16.5484C197.878 18.378 200.854 20.9127 203.263 23.9984C205.388 26.7951 207.093 29.9217 208.321 33.2684C209.569 36.9991 210.38 40.8781 210.736 44.8184C211.731 54.3764 211.626 64.027 210.425 73.5584C207.811 95.0884 202.753 110.228 195.403 118.558C189.949 124.718 181.768 127.558 170.388 127.098L170.416 127.078Z" fill="#3E4147"/>
<path d="M334.67 132.298L319.884 130.178L329.678 52.3684L301.106 48.2884L231.798 115.908L228.155 144.838L287.876 153.388L284.895 177.048L313.467 181.128L316.449 157.468L331.207 159.588L334.67 132.298ZM259.729 121.578L296.293 86.2484L291.283 126.098L259.729 121.578Z" fill="#20BF55"/>
<path d="M304.786 180.388H304.701C304.579 180.364 304.47 180.289 304.399 180.181C304.329 180.072 304.301 179.938 304.324 179.808L326.31 51.8684C326.335 51.7399 326.406 51.6266 326.508 51.5521C326.61 51.4776 326.735 51.4476 326.857 51.4684C326.979 51.4927 327.088 51.5673 327.158 51.6759C327.229 51.7846 327.256 51.9185 327.234 52.0484L305.22 179.998C305.199 180.105 305.145 180.202 305.066 180.273C304.988 180.343 304.889 180.384 304.786 180.388V180.388Z" fill="#3E4147"/>
<path d="M324.29 53.9984C324.29 54.2198 324.207 54.4322 324.06 54.5888C323.912 54.7454 323.711 54.8334 323.502 54.8334C323.293 54.8334 323.093 54.7454 322.945 54.5888C322.797 54.4322 322.714 54.2198 322.714 53.9984C322.722 53.7809 322.811 53.5755 322.961 53.4273C323.112 53.2792 323.311 53.2004 323.517 53.2084C323.722 53.2163 323.916 53.3104 324.055 53.4698C324.195 53.6292 324.27 53.8409 324.262 54.0584L324.29 53.9984Z" fill="#3E4147"/>
<path d="M321.148 71.3184C321.144 71.4261 321.121 71.532 321.078 71.63C321.036 71.728 320.976 71.8162 320.902 71.8896C320.827 71.9629 320.74 72.02 320.644 72.0576C320.549 72.0951 320.448 72.1124 320.346 72.1084C320.245 72.1058 320.145 72.0819 320.053 72.0382C319.96 71.9944 319.877 71.9317 319.808 71.8535C319.738 71.7754 319.684 71.6834 319.649 71.583C319.613 71.4825 319.597 71.3756 319.601 71.2684C319.601 71.0509 319.682 70.8423 319.827 70.6885C319.972 70.5348 320.169 70.4484 320.374 70.4484C320.579 70.4484 320.776 70.5348 320.921 70.6885C321.067 70.8423 321.148 71.0509 321.148 71.2684V71.3184Z" fill="#3E4147"/>
<path d="M317.996 88.6184C317.993 88.7261 317.969 88.832 317.927 88.93C317.885 89.028 317.824 89.1162 317.75 89.1896C317.675 89.263 317.588 89.3201 317.493 89.3576C317.397 89.3951 317.296 89.4124 317.194 89.4084C317.086 89.4211 316.977 89.4095 316.873 89.3743C316.77 89.3392 316.674 89.2812 316.593 89.2043C316.512 89.1274 316.447 89.0333 316.403 88.928C316.358 88.8227 316.335 88.7087 316.335 88.5934C316.335 88.4781 316.358 88.3641 316.403 88.2588C316.447 88.1535 316.512 88.0593 316.593 87.9824C316.674 87.9055 316.77 87.8476 316.873 87.8124C316.977 87.7773 317.086 87.7657 317.194 87.7784C317.3 87.7742 317.405 87.7931 317.504 87.8337C317.602 87.8743 317.692 87.9359 317.767 88.0146C317.842 88.0933 317.901 88.1874 317.941 88.2913C317.98 88.3951 317.999 88.5065 317.996 88.6184V88.6184Z" fill="#3E4147"/>
<path d="M311.816 106.628C311.815 106.736 311.793 106.842 311.752 106.941C311.711 107.04 311.652 107.128 311.578 107.202C311.504 107.276 311.417 107.333 311.321 107.37C311.226 107.407 311.125 107.424 311.023 107.418C310.915 107.427 310.806 107.411 310.704 107.373C310.602 107.334 310.508 107.273 310.43 107.193C310.352 107.114 310.29 107.018 310.249 106.911C310.208 106.805 310.188 106.691 310.191 106.576C310.195 106.461 310.221 106.348 310.268 106.244C310.315 106.141 310.382 106.049 310.465 105.974C310.548 105.9 310.645 105.845 310.749 105.813C310.853 105.781 310.963 105.773 311.07 105.788C311.172 105.791 311.271 105.815 311.364 105.859C311.456 105.902 311.539 105.965 311.609 106.043C311.678 106.121 311.732 106.213 311.768 106.314C311.803 106.414 311.82 106.521 311.816 106.628V106.628Z" fill="#3E4147"/>
<path d="M311.712 123.218C311.712 123.436 311.63 123.644 311.485 123.798C311.34 123.952 311.143 124.038 310.938 124.038C310.733 124.038 310.536 123.952 310.391 123.798C310.246 123.644 310.164 123.436 310.164 123.218C310.168 123.111 310.192 123.005 310.234 122.907C310.276 122.809 310.336 122.721 310.411 122.647C310.485 122.574 310.573 122.517 310.668 122.479C310.764 122.442 310.865 122.424 310.967 122.428C311.163 122.433 311.35 122.518 311.488 122.665C311.627 122.812 311.707 123.01 311.712 123.218V123.218Z" fill="#3E4147"/>
<path d="M308.56 140.518C308.553 140.737 308.465 140.943 308.314 141.093C308.164 141.243 307.964 141.324 307.758 141.318C307.553 141.31 307.359 141.216 307.219 141.057C307.08 140.898 307.005 140.686 307.013 140.468C307.02 140.251 307.109 140.045 307.259 139.897C307.41 139.749 307.61 139.67 307.815 139.678C308.018 139.686 308.211 139.779 308.35 139.936C308.49 140.093 308.565 140.303 308.56 140.518V140.518Z" fill="#3E4147"/>
<path d="M305.428 157.828C305.424 157.936 305.4 158.042 305.358 158.14C305.316 158.238 305.255 158.326 305.181 158.399C305.106 158.473 305.019 158.53 304.924 158.567C304.828 158.605 304.727 158.622 304.625 158.618C304.524 158.614 304.424 158.589 304.332 158.544C304.239 158.5 304.156 158.436 304.087 158.357C304.017 158.278 303.964 158.185 303.928 158.084C303.893 157.983 303.876 157.876 303.88 157.768C303.882 157.661 303.905 157.555 303.946 157.457C303.988 157.36 304.047 157.271 304.12 157.198C304.194 157.124 304.281 157.067 304.376 157.029C304.471 156.992 304.572 156.974 304.673 156.978C304.775 156.981 304.876 157.005 304.97 157.049C305.063 157.094 305.148 157.157 305.218 157.236C305.288 157.315 305.343 157.408 305.379 157.51C305.415 157.612 305.431 157.72 305.428 157.828Z" fill="#3E4147"/>
<path d="M302.276 175.128C302.269 175.344 302.181 175.548 302.033 175.696C301.884 175.844 301.687 175.924 301.483 175.918C301.277 175.911 301.082 175.817 300.941 175.658C300.8 175.499 300.723 175.287 300.728 175.068C300.732 174.961 300.756 174.855 300.798 174.757C300.84 174.659 300.9 174.571 300.975 174.497C301.049 174.424 301.137 174.367 301.232 174.329C301.327 174.292 301.429 174.274 301.53 174.278C301.632 174.281 301.733 174.305 301.826 174.349C301.919 174.394 302.003 174.457 302.072 174.537C302.142 174.616 302.196 174.709 302.231 174.811C302.266 174.912 302.281 175.02 302.276 175.128V175.128Z" fill="#3E4147"/>
<path d="M311.042 107.108C310.934 107.107 310.829 107.066 310.745 106.994C310.661 106.921 310.603 106.82 310.58 106.708C310.567 106.644 310.567 106.578 310.579 106.513C310.59 106.449 310.614 106.387 310.648 106.333C310.682 106.278 310.726 106.231 310.778 106.194C310.829 106.157 310.887 106.132 310.948 106.118L313.288 105.578C313.35 105.565 313.414 105.564 313.476 105.576C313.538 105.589 313.597 105.614 313.65 105.651C313.703 105.687 313.749 105.735 313.785 105.79C313.821 105.845 313.846 105.908 313.859 105.973C313.872 106.039 313.872 106.107 313.861 106.173C313.849 106.239 313.825 106.302 313.791 106.358C313.756 106.414 313.711 106.462 313.659 106.5C313.607 106.538 313.548 106.565 313.486 106.578L311.146 107.108H311.042Z" fill="#3E4147"/>
<path d="M318.865 97.8884C317.751 100.948 316.806 104.073 316.034 107.248C315.326 110.778 315.279 118.678 315.279 118.678" fill="#3E4147"/>
<path d="M315.288 119.178C315.162 119.176 315.042 119.121 314.954 119.026C314.866 118.93 314.816 118.802 314.816 118.668C314.816 118.348 314.873 110.668 315.581 107.148C316.349 103.946 317.294 100.793 318.412 97.7084C318.434 97.6476 318.467 97.5921 318.509 97.5451C318.551 97.498 318.602 97.4604 318.658 97.4343C318.714 97.4082 318.775 97.3943 318.836 97.3933C318.898 97.3923 318.959 97.4042 319.016 97.4284C319.074 97.4506 319.127 97.4849 319.172 97.5294C319.218 97.5738 319.254 97.6275 319.28 97.6871C319.305 97.7468 319.319 97.8113 319.321 97.8768C319.323 97.9422 319.312 98.0074 319.289 98.0684C318.177 101.105 317.232 104.206 316.458 107.358C315.77 110.798 315.713 118.598 315.713 118.678C315.713 118.803 315.67 118.923 315.592 119.015C315.513 119.108 315.405 119.166 315.288 119.178Z" fill="#3E4147"/>
</svg>
