<svg width="150" height="117" viewBox="0 0 150 117" fill="none" xmlns="http://www.w3.org/2000/svg">
<path fill-rule="evenodd" clip-rule="evenodd" d="M0 21.32C0.756754 21.3232 1.50018 21.5194 2.16 21.89L74.51 62.07L146.83 21.89C147.49 21.5194 148.233 21.3232 148.99 21.32C148.87 12.92 148.25 8.16 145.05 4.97C141.05 0.970001 134.7 0.970001 121.93 0.970001H27.09C14.32 1 7.94 1 4 5C0.77 8.16 0.15 12.92 0 21.32ZM149 31L78.9 70C77.5583 70.7497 76.047 71.1433 74.51 71.1433C72.9731 71.1433 71.4617 70.7497 70.12 70L72.32 66L70.12 70L0 31V89.81C0 102.58 0 109 4 112.94C8 116.88 14.35 116.94 27.12 116.94H121.96C134.73 116.94 141.11 116.94 145.08 112.94C149.05 108.94 149.08 102.58 149.08 89.81L149 31Z" fill="white"/>
</svg>
