<svg width="136" height="136" viewBox="0 0 136 136" fill="none" xmlns="http://www.w3.org/2000/svg">
<path d="M135.2 58.92L124.86 51.78C123.842 48.0536 122.445 44.4413 120.69 41L123.34 30.6L108.34 14.54L97.79 16.45C94.4774 14.4736 90.9728 12.8385 87.33 11.57V11.57L80.89 0.75L58.92 0L51.78 10.34C48.0546 11.3565 44.4426 12.7504 41 14.5L30.59 11.86L14.52 26.86L16.45 37.39C14.4578 40.7097 12.8189 44.2289 11.56 47.89L0.75 54.31L0 76.28L10.35 83.43C11.3484 87.1727 12.7395 90.7995 14.5 94.25V94.25L11.86 104.62L26.86 120.68L37.35 118.76C40.6916 120.744 44.2265 122.382 47.9 123.65V123.65L54.3 134.45L76.3 135.2L83.44 124.87C87.1855 123.846 90.82 122.453 94.29 120.71V120.71L104.64 123.34L120.7 108.34L118.75 97.8C120.738 94.4816 122.377 90.9662 123.64 87.31V87.31L134.45 80.89L135.2 58.92ZM66.75 92.31C61.8656 92.143 57.1405 90.5313 53.1721 87.6788C49.2037 84.8263 46.1703 80.8611 44.4555 76.2846C42.7407 71.7081 42.4215 66.7258 43.5383 61.9679C44.6551 57.21 47.1577 52.8901 50.7296 49.5545C54.3015 46.2189 58.7824 44.0175 63.6055 43.2285C68.4286 42.4396 73.3774 43.0986 77.826 45.1222C82.2746 47.1458 86.0232 50.4432 88.5978 54.5973C91.1723 58.7514 92.4572 63.5756 92.29 68.46C92.0631 75.0086 89.2456 81.1992 84.4565 85.6713C79.6675 90.1435 73.2988 92.5313 66.75 92.31V92.31Z" fill="#EBEBEB"/>
</svg>
