<svg width="35" height="35" viewBox="0 0 35 35" fill="none" xmlns="http://www.w3.org/2000/svg">
<path opacity="0.3" d="M33.84 20.2L34.12 17.65L32.58 17C32.577 16.1321 32.5035 15.2659 32.36 14.41L33.76 13.52L33.05 11.05H31.38C31.0497 10.2476 30.6516 9.47479 30.19 8.74L31.14 7.38L29.53 5.38L28 6.05C27.3795 5.44031 26.7106 4.88182 26 4.38L26.37 2.76L24.13 1.52L23 2.71C22.2009 2.37623 21.3745 2.11192 20.53 1.92L20.19 0.29L17.64 0L17 1.53C16.1318 1.54451 15.266 1.62474 14.41 1.77L13.53 0.36L11.06 1.08V2.75C10.263 3.08496 9.49385 3.48289 8.76 3.94L7.4 3L5.4 4.61L6 6.12C5.39319 6.74315 4.8349 7.41176 4.33 8.12L2.76 7.75L1.52 10L2.7 11.17C2.36924 11.9771 2.10502 12.8099 1.91 13.66L0.27 13.93L0 16.48L1.53 17.12C1.53681 17.9848 1.61373 18.8476 1.76 19.7L0.35 20.59L1.07 23.06H2.74C3.07249 23.8582 3.47052 24.6275 3.93 25.36L3 26.72L4.61 28.72L6.15 28.07C6.77054 28.6797 7.43939 29.2382 8.15 29.74L7.78 31.36L10 32.61L11.18 31.43C11.9788 31.762 12.8054 32.023 13.65 32.21L13.94 33.85L16.49 34.13L17.12 32.6C17.9881 32.5845 18.8538 32.5043 19.71 32.36L20.6 33.77L23.06 33.05V31.38C23.8605 31.0455 24.6329 30.6476 25.37 30.19L26.72 31.19L28.72 29.58L28.07 28C28.6801 27.377 29.2417 26.7084 29.75 26L31.36 26.36L32.6 24.11L31.42 23C31.7402 22.1969 32.0009 21.3713 32.2 20.53L33.84 20.2ZM21 19.21C20.5768 19.9842 19.9336 20.6156 19.1515 21.0241C18.3695 21.4327 17.4838 21.6001 16.6066 21.5052C15.7294 21.4103 14.9 21.0573 14.2235 20.4909C13.5469 19.9246 13.0535 19.1702 12.8058 18.3234C12.558 17.4766 12.567 16.5753 12.8316 15.7335C13.0962 14.8918 13.6046 14.1475 14.2923 13.5947C14.98 13.042 15.8163 12.7056 16.6952 12.6283C17.5741 12.5509 18.4563 12.7359 19.23 13.16C20.2665 13.7281 21.0351 14.6843 21.3669 15.8187C21.6988 16.9531 21.5668 18.1729 21 19.21V19.21Z" fill="#20BF55"/>
</svg>
