<svg width="39" height="39" viewBox="0 0 39 39" fill="none" xmlns="http://www.w3.org/2000/svg">
<path d="M39 17L36 14.95C35.7049 13.8759 35.3028 12.834 34.8 11.84L35.56 8.84L31.23 4.19L28.23 4.74C27.2802 4.17248 26.275 3.70338 25.23 3.34V3.34L23.32 0.22L17 0L14.93 3C13.8591 3.29521 12.8206 3.69722 11.83 4.2L8.83 3.44L4.19 7.74L4.74 10.74C4.16982 11.6898 3.69741 12.6949 3.33 13.74L0.22 15.66L0 22L3 24.06C3.29073 25.1388 3.69289 26.1844 4.2 27.18V27.18L3.44 30.18L7.76 34.81L10.76 34.26C11.7081 34.8332 12.7136 35.3058 13.76 35.67V35.67L15.61 38.78L22 39L24 36C25.0825 35.7107 26.1316 35.3085 27.13 34.8V34.8L30.13 35.56L34.76 31.24L34.2 28.24C34.7707 27.2905 35.2432 26.2853 35.61 25.24V25.24L38.72 23.39L39 17ZM19.24 26.61C17.833 26.5618 16.4718 26.0975 15.3286 25.2759C14.1854 24.4542 13.3114 23.3121 12.8171 21.9938C12.3229 20.6756 12.2305 19.2404 12.5517 17.8697C12.8729 16.499 13.5933 15.2542 14.6218 14.2928C15.6503 13.3314 16.9407 12.6965 18.3299 12.4683C19.7192 12.2401 21.1449 12.4289 22.4268 13.0108C23.7088 13.5928 24.7895 14.5417 25.5323 15.7376C26.2751 16.9336 26.6466 18.3229 26.6 19.73C26.5322 21.6169 25.7197 23.4001 24.3404 24.6895C22.9611 25.9789 21.1272 26.6694 19.24 26.61V26.61Z" fill="white"/>
</svg>
