<svg width="175" height="175" viewBox="0 0 175 175" fill="none" xmlns="http://www.w3.org/2000/svg">
<path d="M174.51 97L175 83.9L166.93 81.26C166.593 76.8099 165.873 72.397 164.78 68.07L171.62 63.07L166.97 50.73L158.51 51.41C156.512 47.4301 154.169 43.6323 151.51 40.06L155.89 32.75L146.89 23.14L139.24 27C135.848 24.097 132.222 21.4782 128.4 19.17L129.63 10.77L117.63 5.33L112.13 11.77C107.889 10.3941 103.541 9.37394 99.13 8.72L97.07 0.45L83.9 0L81.3 8.07C76.8479 8.41893 72.4327 9.13808 68.1 10.22L63 3.42L50.68 8L51.36 16.46C47.3818 18.5054 43.5819 20.8804 40 23.56L32.72 19.18L23.08 28.18L27 35.75C24.0902 39.13 21.4803 42.757 19.2 46.59L10.81 45.33L5.33 57.33L11.8 62.82C10.4377 67.0617 9.43421 71.4103 8.8 75.82L0.45 77.92L0 91.06L8.1 93.7C8.43995 98.1498 9.15923 102.563 10.25 106.89L3.42 111.89L8.06 124.24L16.52 123.56C18.5244 127.537 20.8663 131.334 23.52 134.91L19.14 142.22L28.14 151.83L35.75 148C39.137 150.91 42.7631 153.529 46.59 155.83L45.33 164.22L57.33 169.67L62.86 163.23C67.1027 164.6 71.4506 165.62 75.86 166.28L77.86 174.51L91.03 174.96L93.64 166.89C98.0881 166.535 102.5 165.816 106.83 164.74L111.83 171.54L124.18 166.93L123.53 158.47C127.538 156.426 131.374 154.062 135 151.4L142.28 155.78L151.92 146.78L148.05 139.18C150.961 135.801 153.571 132.174 155.85 128.34L164.25 129.6L169.72 117.6L163.25 112.1C164.64 107.863 165.66 103.513 166.3 99.1L174.51 97ZM85.71 139.57C75.3984 139.22 65.4224 135.819 57.0437 129.798C48.665 123.778 42.2601 115.408 38.639 105.746C35.0179 96.0851 34.3434 85.567 36.7008 75.5225C39.0582 65.4779 44.3415 56.358 51.8825 49.3165C59.4236 42.2749 68.8835 37.628 79.0659 35.9634C89.2482 34.2988 99.6955 35.6914 109.086 39.965C118.477 44.2386 126.39 51.2013 131.823 59.9723C137.256 68.7433 139.966 78.9286 139.61 89.24C139.38 96.0871 137.803 102.822 134.97 109.059C132.136 115.297 128.102 120.915 123.096 125.593C118.091 130.27 112.213 133.916 105.798 136.321C99.3829 138.726 92.5569 139.844 85.71 139.61V139.57Z" fill="#EBEBEB"/>
</svg>
