<svg width="61" height="61" viewBox="0 0 61 61" fill="none" xmlns="http://www.w3.org/2000/svg">
<path d="M49.05 53.72L52.36 50.63L51 48C52.0017 46.8288 52.9017 45.5743 53.69 44.25L56.59 44.69L58.47 40.55L56.24 38.65C56.7012 37.1881 57.0357 35.6892 57.24 34.17L60.09 33.45L60.24 28.91L57.54 28C57.4164 26.4665 57.1723 24.9452 56.81 23.45L59.15 21.7L57.55 17.45L54.64 17.68C53.9382 16.3093 53.1255 14.9983 52.21 13.76L53.72 11.26L50.62 8L48 9.3C46.8279 8.29646 45.5735 7.39328 44.25 6.6L44.67 3.71L40.56 1.82L38.66 4.05C37.1935 3.59333 35.6917 3.25886 34.17 3.05L33.46 0.16L28.92 0L28 2.8C26.4645 2.9123 24.9419 3.15992 23.45 3.54L21.73 1.18L17.47 2.77L17.71 5.69C16.3367 6.38722 15.0253 7.20016 13.79 8.12L11.27 6.62L8 9.71L9.33 12.33C8.32747 13.4993 7.42434 14.7504 6.63 16.07L3.7 15.63L1.82 19.78L4.05 21.67C3.58879 23.1353 3.25423 24.6375 3.05 26.16L0.2 26.87L0 31.41L2.79 32.31C2.9038 33.8446 3.14802 35.3668 3.52 36.86L1.17 38.6L2.77 42.86L5.68 42.64C6.38171 44.0098 7.19795 45.3177 8.12 46.55L6.61 49.06L9.71 52.38L12.31 51.05C13.4813 52.047 14.7322 52.9467 16.05 53.74L15.63 56.63L19.76 58.51L21.66 56.29C23.1285 56.7634 24.6336 57.1146 26.16 57.34L26.86 60.18L31.4 60.34L32.31 57.55C33.8449 57.4328 35.3671 57.1853 36.86 56.81L38.6 59.16L42.86 57.57L42.62 54.65C43.9941 53.9542 45.3056 53.1412 46.54 52.22L49.05 53.72ZM25.43 34.59C24.5571 33.6548 23.981 32.4817 23.7746 31.2192C23.5682 29.9566 23.7407 28.6612 24.2704 27.4966C24.8 26.3321 25.663 25.3507 26.7503 24.6766C27.8376 24.0024 29.1003 23.6657 30.3789 23.709C31.6575 23.7523 32.8945 24.1737 33.9337 24.9199C34.9728 25.6661 35.7675 26.7037 36.2171 27.9014C36.6667 29.0991 36.7511 30.4032 36.4598 31.6489C36.1684 32.8946 35.5142 34.026 34.58 34.9C33.9591 35.4809 33.2298 35.9337 32.4337 36.2325C31.6377 36.5314 30.7905 36.6704 29.9407 36.6416C29.091 36.6128 28.2552 36.4168 27.4812 36.0647C26.7072 35.7127 26.0102 35.2116 25.43 34.59V34.59Z" fill="#EBEBEB"/>
</svg>
