<svg width="112" height="112" viewBox="0 0 112 112" fill="none" xmlns="http://www.w3.org/2000/svg">
<path d="M63.25 111.82H63.18L45.86 111.22C45.5094 111.213 45.1662 111.117 44.8621 110.943C44.558 110.768 44.3028 110.519 44.12 110.22L39.46 102.37C36.9401 101.452 34.5016 100.325 32.17 99L24.67 100.37C24.3213 100.436 23.9616 100.413 23.6243 100.302C23.2869 100.192 22.9828 99.9988 22.74 99.74L10.92 87C10.6725 86.7372 10.4958 86.4158 10.4066 86.0659C10.3174 85.7161 10.3185 85.3493 10.41 85L12.3 77.59C11.1333 75.187 10.1764 72.6877 9.44 70.12L1.91 65C1.61852 64.7966 1.38256 64.5236 1.22362 64.2057C1.06468 63.8878 0.987803 63.5352 1 63.18L1.59 45.86C1.60088 45.5101 1.69782 45.1683 1.87224 44.8648C2.04665 44.5614 2.29318 44.3055 2.59 44.12L10.45 39.45C11.3679 36.943 12.4952 34.5178 13.82 32.2L12.44 24.67C12.3754 24.322 12.4002 23.9632 12.5121 23.6274C12.624 23.2915 12.8195 22.9896 13.08 22.75L25.78 10.92C26.0433 10.6734 26.3652 10.498 26.7151 10.4105C27.0651 10.323 27.4316 10.3263 27.78 10.42L35.21 12.31C37.6084 11.146 40.1005 10.186 42.66 9.44L47.83 1.91C48.0284 1.61593 48.2991 1.3778 48.6161 1.21844C48.933 1.05909 49.2856 0.983871 49.64 1L67 1.6C67.352 1.60746 67.6965 1.70287 68.0021 1.87753C68.3078 2.0522 68.5649 2.30056 68.75 2.6L73.37 10.5C75.8704 11.4182 78.289 12.5455 80.6 13.87L88.15 12.48C88.498 12.4182 88.856 12.4443 89.1913 12.5561C89.5266 12.6679 89.8287 12.8617 90.07 13.12L101.9 25.79C102.148 26.0522 102.325 26.3741 102.412 26.7244C102.5 27.0748 102.496 27.4418 102.4 27.79L100.51 35.23C101.676 37.6242 102.636 40.1132 103.38 42.67L110.9 47.87C111.193 48.0691 111.431 48.3399 111.59 48.6567C111.75 48.9735 111.825 49.3258 111.81 49.68L111.22 67C111.213 67.3506 111.117 67.6938 110.943 67.9979C110.768 68.302 110.519 68.5572 110.22 68.74L102.35 73.41C101.447 75.9068 100.326 78.3194 99 80.62L100.38 88.15C100.444 88.4987 100.42 88.8579 100.31 89.1949C100.2 89.5319 100.007 89.8361 99.75 90.08L87 101.9C86.7378 102.148 86.4159 102.325 86.0656 102.412C85.7152 102.5 85.3482 102.496 85 102.4L77.6 100.52C75.1876 101.684 72.6822 102.644 70.11 103.39L65 110.91C64.8033 111.192 64.5414 111.421 64.2367 111.58C63.932 111.738 63.5935 111.821 63.25 111.82V111.82ZM47.16 107L62.16 107.52L67.16 100.32C67.445 99.9082 67.8666 99.6107 68.35 99.48C71.1661 98.7166 73.8969 97.6678 76.5 96.35V96.35C76.9678 96.1251 77.5025 96.0824 78 96.23L85 98L96 87.78L94.66 80.6C94.5628 80.0935 94.6592 79.5689 94.93 79.13C96.4072 76.6496 97.6301 74.0262 98.58 71.3C98.7359 70.8061 99.0713 70.3887 99.52 70.13L107 65.66L107.51 50.66L100.31 45.66C99.9286 45.4056 99.6461 45.0278 99.51 44.59C99.5057 44.5368 99.5057 44.4832 99.51 44.43C98.7448 41.6449 97.6995 38.9444 96.39 36.37C96.1586 35.9125 96.1018 35.3864 96.23 34.89L98 27.83L87.75 16.83L80.57 18.14C80.0647 18.2372 79.5413 18.1447 79.1 17.88C76.6148 16.3998 73.9885 15.1704 71.26 14.21C71.1058 14.1614 70.958 14.0942 70.82 14.01C70.529 13.8305 70.2854 13.5835 70.11 13.29L65.66 5.78L50.66 5.26L45.66 12.47C45.3671 12.898 44.9249 13.2012 44.42 13.32C41.6364 14.0855 38.9363 15.1274 36.36 16.43C35.9058 16.6597 35.3846 16.7199 34.89 16.6L27.81 14.79L16.85 25L18.16 32.18C18.2563 32.6387 18.2001 33.1162 18 33.54L17.9 33.71C16.4147 36.1967 15.1915 38.8308 14.25 41.57C14.0875 42.0416 13.761 42.439 13.33 42.69L5.78 47.16L5.26 62.16L12.47 67.16C12.8836 67.4431 13.1818 67.8654 13.31 68.35C14.0613 71.1543 15.1037 73.8724 16.42 76.46C16.4914 76.6075 16.5483 76.7615 16.59 76.92C16.6747 77.248 16.6747 77.592 16.59 77.92L14.79 85L25 96L32.14 94.7C32.6388 94.599 33.1574 94.692 33.59 94.96C36.0923 96.4383 38.7353 97.6643 41.48 98.62C41.975 98.773 42.3955 99.1045 42.66 99.55L47.16 107ZM56.43 88.08H55.32C47.0071 87.9337 39.0884 84.5098 33.2875 78.5537C27.4866 72.5976 24.273 64.5913 24.3462 56.2774C24.4194 47.9635 27.7734 40.015 33.6783 34.1619C39.5831 28.3088 47.5608 25.0249 55.875 25.0249C64.1892 25.0249 72.1669 28.3088 78.0718 34.1619C83.9766 40.015 87.3306 47.9635 87.4038 56.2774C87.477 64.5913 84.2634 72.5976 78.4625 78.5537C72.6616 84.5098 64.7429 87.9337 56.43 88.08V88.08ZM56.43 28.98C49.1678 29.1118 42.2515 32.1062 37.1858 37.3116C32.1202 42.5171 29.3152 49.5124 29.3811 56.7755C29.4471 64.0386 32.3785 70.9818 37.5378 76.0944C42.6971 81.2071 49.6666 84.0755 56.93 84.0755C64.1934 84.0755 71.1629 81.2071 76.3222 76.0944C81.4815 70.9818 84.413 64.0386 84.4789 56.7755C84.5448 49.5124 81.7398 42.5171 76.6742 37.3116C71.6085 32.1062 64.6922 29.1118 57.43 28.98H56.43Z" fill="#EBEBEB"/>
</svg>
