<svg width="43" height="42" viewBox="0 0 43 42" fill="none" xmlns="http://www.w3.org/2000/svg">
<path d="M22.19 42C22.1229 42.0016 22.0561 41.9891 21.9941 41.9632C21.9321 41.9374 21.8762 41.8988 21.83 41.85L19.73 39.69C18.6675 39.5901 17.6164 39.3926 16.59 39.1L13.32 40.54C13.247 40.5821 13.1643 40.6043 13.08 40.6043C12.9958 40.6043 12.913 40.5821 12.84 40.54L7.37001 36.84C7.29826 36.7963 7.23926 36.7344 7.1989 36.6607C7.15853 36.587 7.13823 36.504 7.14001 36.42L7.20001 32.85C6.52587 32.0187 5.93314 31.1246 5.43001 30.18L2.62001 29.09C2.54318 29.0582 2.4755 29.0076 2.42312 28.943C2.37073 28.8784 2.3353 28.8018 2.32001 28.72L1.00001 22.29C0.984596 22.2077 0.989275 22.1229 1.01365 22.0429C1.03802 21.9628 1.08137 21.8898 1.14001 21.83L3.30001 19.73C3.40178 18.6644 3.59924 17.6102 3.89001 16.58L2.46001 13.32C2.41788 13.247 2.3957 13.1643 2.3957 13.08C2.3957 12.9958 2.41788 12.913 2.46001 12.84L6.13001 7.36001C6.17345 7.28866 6.23549 7.23049 6.30948 7.19173C6.38348 7.15297 6.46663 7.13509 6.55001 7.14001L10.11 7.20001C10.9496 6.53244 11.8464 5.94015 12.79 5.43001L13.88 2.62001C13.9127 2.54274 13.9633 2.47434 14.0277 2.42044C14.092 2.36655 14.1682 2.3287 14.25 2.31001L20.68 1.00001C20.7623 0.984596 20.8471 0.989275 20.9272 1.01365C21.0073 1.03802 21.0803 1.08137 21.14 1.14001L23.24 3.30001C24.3056 3.40178 25.3598 3.59924 26.39 3.89001L29.65 2.45001C29.723 2.40788 29.8058 2.3857 29.89 2.3857C29.9743 2.3857 30.057 2.40788 30.13 2.45001L35.61 6.08001C35.6786 6.12635 35.7346 6.18897 35.773 6.26228C35.8114 6.33558 35.831 6.41727 35.83 6.50001V10.07C36.4953 10.9056 37.0844 11.7992 37.59 12.74L40.4 13.83C40.4782 13.8613 40.5475 13.9114 40.6016 13.976C40.6556 14.0406 40.6929 14.1175 40.71 14.2L42 20.68C42.0182 20.7623 42.0148 20.8478 41.9903 20.9284C41.9658 21.0089 41.9209 21.0818 41.86 21.14L39.7 23.24C39.5973 24.3022 39.3999 25.353 39.11 26.38L40.55 29.65C40.5921 29.723 40.6143 29.8058 40.6143 29.89C40.6143 29.9743 40.5921 30.057 40.55 30.13L36.84 35.6C36.7955 35.6711 36.7336 35.7295 36.66 35.7698C36.5865 35.8101 36.5038 35.8308 36.42 35.83L32.86 35.77C32.0259 36.4422 31.1283 37.0316 30.18 37.53L29.09 40.35C29.0587 40.4282 29.0086 40.4975 28.944 40.5516C28.8794 40.6056 28.8025 40.6429 28.72 40.66L22.29 42H22.19ZM16.55 38H16.69C17.7698 38.317 18.8787 38.5247 20 38.62C20.1219 38.6275 20.2363 38.6811 20.32 38.77L22.32 40.87L28.22 39.67L29.32 37C29.3585 36.8834 29.441 36.7865 29.55 36.73C30.5521 36.2136 31.4972 35.5935 32.37 34.88C32.4583 34.8031 32.5731 34.7637 32.69 34.77H36.16L39.49 29.77L38.08 26.58C38.0454 26.4693 38.0454 26.3507 38.08 26.24C38.3868 25.1825 38.5878 24.0972 38.68 23C38.6894 22.8786 38.7427 22.7649 38.83 22.68L40.93 20.68L39.73 14.78L37 13.66C36.8868 13.6096 36.7948 13.5212 36.74 13.41C36.2198 12.4164 35.6 11.4782 34.89 10.61C34.8114 10.5181 34.7688 10.4009 34.77 10.28L34.83 6.81001L29.83 3.48001L26.65 4.88001C26.5402 4.91973 26.4199 4.91973 26.31 4.88001C25.2299 4.56998 24.1207 4.37227 23 4.29001C22.8781 4.28253 22.7637 4.22889 22.68 4.14001L20.68 2.04001L14.77 3.24001L13.66 6.00001C13.6108 6.11075 13.5265 6.20215 13.42 6.26001C12.422 6.77172 11.4774 7.38138 10.6 8.08001C10.5574 8.12034 10.5071 8.15174 10.4521 8.17235C10.3972 8.19296 10.3387 8.20236 10.28 8.20001H6.81001L3.48001 13.2L4.89001 16.37C4.91946 16.4379 4.93466 16.511 4.93466 16.585C4.93466 16.659 4.91946 16.7322 4.89001 16.8C4.58969 17.8454 4.3888 18.9168 4.29001 20C4.28253 20.1219 4.22889 20.2363 4.14001 20.32L2.04001 22.32L3.24001 28.22L5.97001 29.22C6.09091 29.2675 6.18803 29.361 6.24001 29.48C6.75926 30.4688 7.37563 31.4034 8.08001 32.27C8.15859 32.3619 8.20122 32.4791 8.20001 32.6V36.07L13.2 39.4L16.38 37.99C16.4369 37.9859 16.494 37.9892 16.55 38V38ZM21.47 34.77C19.0693 34.7631 16.7151 34.1075 14.6564 32.8726C12.5977 31.6377 10.9111 29.8693 9.77479 27.7546C8.63852 25.6398 8.0949 23.2573 8.20144 20.859C8.30798 18.4606 9.0607 16.1357 10.38 14.13V14.13C11.653 12.2099 13.4021 10.6527 15.4567 9.61065C17.5113 8.56856 19.8011 8.07717 22.1023 8.18447C24.4036 8.29177 26.6377 8.99409 28.5864 10.2228C30.5351 11.4516 32.1318 13.1647 33.2205 15.195C34.3093 17.2252 34.8529 19.5032 34.7982 21.8063C34.7435 24.1094 34.0924 26.3589 32.9085 28.3352C31.7246 30.3115 30.0484 31.9469 28.0435 33.0817C26.0387 34.2166 23.7738 34.8121 21.47 34.81V34.77ZM11.21 14.68C9.40678 17.4056 8.75936 20.7355 9.41002 23.9382C10.0607 27.1408 11.9562 29.9542 14.68 31.76C16.713 33.1078 19.1 33.8224 21.5391 33.8133C23.9782 33.8042 26.3599 33.0719 28.3827 31.709C30.4056 30.3461 31.9787 28.4138 32.9032 26.1566C33.8277 23.8995 34.062 21.4188 33.5763 19.0285C33.0907 16.6382 31.907 14.4456 30.1751 12.7282C28.4431 11.0107 26.2407 9.84549 23.8463 9.37998C21.452 8.91448 18.9734 9.16957 16.7241 10.113C14.4748 11.0564 12.5559 12.6458 11.21 14.68V14.68Z" fill="white"/>
</svg>
