<svg width="51" height="51" viewBox="0 0 51 51" fill="none" xmlns="http://www.w3.org/2000/svg">
<path d="M50.3 28L50.43 24.21L48.1 23.45C48.0057 22.1675 47.7982 20.8959 47.48 19.65L49.48 18.2L48.14 14.64L45.7 14.83C45.126 13.686 44.457 12.5921 43.7 11.56L44.96 9.46L42.32 6.66L40.14 7.77C39.1536 6.93631 38.1037 6.18069 37 5.51L37.35 3.09L33.91 1.52L32.32 3.38C31.0952 2.98819 29.8413 2.69393 28.57 2.5L28 0.13L24.18 0L23.43 2.33C22.148 2.42844 20.8768 2.63585 19.63 2.95L18.17 1L14.61 2.31L14.8 4.75C13.6581 5.32793 12.5646 5.99675 11.53 6.75L9.44 5.53L6.65 8.11L7.77 10.3C6.93443 11.2791 6.18184 12.326 5.52 13.43L3.1 13.07L1.52 16.52L3.39 18.11C2.99459 19.3338 2.70027 20.588 2.51 21.86L0.13 22.46L0 26.25L2.34 27C2.44608 28.2871 2.66696 29.5622 3 30.81L1 32.26L2.34 35.82L4.78 35.63C5.35403 36.774 6.02304 37.8679 6.78 38.9L5.53 41L8.12 43.77L10.3 42.65C11.2814 43.4856 12.3281 44.2413 13.43 44.91L13.07 47.33L16.52 48.9L18.12 47.04C19.3448 47.4318 20.5987 47.7261 21.87 47.92L22.46 50.29L26.26 50.42L27 48.1C28.282 48.0016 29.5532 47.7941 30.8 47.48L32.25 49.48L35.81 48.15L35.63 45.71C36.7706 45.1298 37.8639 44.461 38.9 43.71L41 44.9L43.78 42.32L42.66 40.13C43.499 39.1513 44.255 38.1043 44.92 37L47.34 37.37L48.92 33.91L47.05 32.32C47.4465 31.0965 47.7408 29.8422 47.93 28.57L50.3 28ZM24.71 40.24C21.7476 40.1337 18.8832 39.1521 16.4782 37.4191C14.0733 35.6861 12.2358 33.2794 11.1977 30.5029C10.1595 27.7263 9.96732 24.7044 10.6453 21.8187C11.3233 18.933 12.8412 16.3129 15.0071 14.2892C17.1731 12.2655 19.8902 10.9289 22.8152 10.4482C25.7402 9.96748 28.7421 10.3642 31.4419 11.5883C34.1416 12.8124 36.4181 14.8089 37.984 17.3259C39.5499 19.8428 40.3349 22.7672 40.24 25.73C40.1768 27.7036 39.7245 29.6454 38.909 31.4438C38.0936 33.2422 36.9311 34.862 35.4883 36.2101C34.0454 37.5582 32.3505 38.6081 30.5009 39.2997C28.6513 39.9912 26.6834 40.3108 24.71 40.24V40.24Z" fill="#20BF55"/>
</svg>
