<svg width="14" height="14" viewBox="0 0 14 14" fill="none" xmlns="http://www.w3.org/2000/svg">
<path d="M6.72999 9.24999L9.92999 12.45C10.3302 12.8433 10.8689 13.0637 11.43 13.0637C11.9911 13.0637 12.5298 12.8433 12.93 12.45V12.45C13.3209 12.0486 13.5397 11.5103 13.5397 10.95C13.5397 10.3896 13.3209 9.85144 12.93 9.44999L9.75999 6.22999C9.35854 5.83905 8.82033 5.62029 8.25999 5.62029C7.69964 5.62029 7.16143 5.83905 6.75999 6.22999V6.22999C6.35661 6.62708 6.12697 7.1678 6.12135 7.7338C6.11573 8.2998 6.33457 8.84497 6.72999 9.24999V9.24999Z" fill="#F0F0F0"/>
<path d="M4.48 1.30001C5.04296 1.07158 5.64566 0.957175 6.25316 0.96344C6.86067 0.969705 7.46088 1.09651 8.01901 1.3365C8.57713 1.5765 9.08206 1.9249 9.50451 2.36152C9.92697 2.79814 10.2585 3.31427 10.48 3.88001C10.6649 4.45647 10.7342 5.06377 10.684 5.66708C10.6337 6.27039 10.4648 6.85784 10.187 7.39575C9.90926 7.93366 9.52803 8.41145 9.06521 8.80171C8.6024 9.19198 8.06709 9.48705 7.49 9.67001C6.92613 9.89542 6.32328 10.0072 5.71609 9.99894C5.10889 9.99068 4.5093 9.86253 3.95178 9.62186C3.39425 9.3812 2.88976 9.03275 2.46729 8.59654C2.04483 8.16033 1.7127 7.64495 1.49 7.08001C1.30523 6.50422 1.23605 5.89759 1.28644 5.29498C1.33684 4.69237 1.50581 4.10565 1.78366 3.56855C2.0615 3.03145 2.44274 2.55454 2.90547 2.16523C3.36819 1.77592 3.90329 1.48188 4.48 1.30001V1.30001Z" fill="#E0E0E0"/>
<path d="M0.996637 6.54658L1.45981 7.83591L10.9651 4.42129L10.5019 3.13196L0.996637 6.54658Z" fill="#F0F0F0"/>
</svg>
