<svg width="9" height="9" viewBox="0 0 9 9" fill="none" xmlns="http://www.w3.org/2000/svg">
<path d="M4.01999 8.91L7.86999 7.87L8.90999 4.02L7.39999 2.52L5.80999 5.81L2.51999 7.4L4.01999 8.91Z" fill="#E0E0E0"/>
<path d="M3.79 6.33C3.48911 5.98635 3.33012 5.54116 3.34525 5.08464C3.36038 4.62813 3.54849 4.19445 3.87147 3.87147C4.19445 3.54849 4.62813 3.36037 5.08465 3.34525C5.54116 3.33012 5.98635 3.48911 6.33 3.79L4.41 0.919998L1.84 2.22L1.28 4.91L3.79 6.33Z" fill="#E0E0E0"/>
<path d="M7.7 2.82L4.88 0L1 1L0 4.88L2.82 7.7L6.67 6.7L7.7 2.82ZM2.58 5.13C2.3946 4.96767 2.24451 4.76901 2.13902 4.54631C2.03353 4.32362 1.97489 4.08164 1.96673 3.83535C1.95856 3.58907 2.00106 3.34374 2.09158 3.11454C2.18209 2.88535 2.3187 2.67719 2.49295 2.50295C2.66719 2.3287 2.87535 2.19209 3.10454 2.10158C3.33374 2.01106 3.57907 1.96856 3.82535 1.97673C4.07164 1.98489 4.31362 2.04353 4.53631 2.14902C4.75901 2.25451 4.95767 2.4046 5.12 2.59C5.42089 2.93365 5.57988 3.37884 5.56475 3.83535C5.54962 4.29186 5.36151 4.72555 5.03853 5.04853C4.71555 5.37151 4.28186 5.55962 3.82535 5.57475C3.36884 5.58988 2.92365 5.43089 2.58 5.13V5.13Z" fill="#F0F0F0"/>
</svg>
