<svg width="17" height="17" viewBox="0 0 17 17" fill="none" xmlns="http://www.w3.org/2000/svg">
<path d="M9.1 16.6L1.93 14.67L0 7.5L2.81 4.69L5.77 10.83L11.91 13.79L9.1 16.6Z" fill="#E0E0E0"/>
<path d="M9.55 11.8C10.1786 11.1714 10.5317 10.3189 10.5317 9.43001C10.5317 8.54108 10.1786 7.68857 9.55 7.06001C8.92143 6.43144 8.06892 6.07832 7.18 6.07832C6.29107 6.07832 5.43856 6.43144 4.81 7.06001L8.38 1.71001L13.16 4.13001L14.21 9.13001L9.55 11.8Z" fill="#E0E0E0"/>
<path d="M2.24001 5.26L7.50001 0L14.67 1.93L16.6 9.1L11.34 14.36L4.17001 12.43L2.24001 5.26ZM11.79 9.55C12.2582 9.08136 12.5769 8.48444 12.7059 7.8347C12.8349 7.18495 12.7683 6.51155 12.5147 5.89962C12.261 5.28768 11.8316 4.76468 11.2808 4.39673C10.73 4.02877 10.0824 3.83239 9.42001 3.83239C8.75758 3.83239 8.11003 4.02877 7.5592 4.39673C7.00836 4.76468 6.57898 5.28768 6.32533 5.89962C6.07168 6.51155 6.00514 7.18495 6.13413 7.8347C6.26312 8.48444 6.58184 9.08136 7.05001 9.55C7.68092 10.1741 8.53255 10.5242 9.42001 10.5242C10.3075 10.5242 11.1591 10.1741 11.79 9.55V9.55Z" fill="#F0F0F0"/>
</svg>
