<svg width="412" height="351" viewBox="0 0 412 351" fill="none" xmlns="http://www.w3.org/2000/svg">
<g id="Robot">
<g id="Background">
<path id="Vector" d="M342.87 27.91L335.7 25.99L333.77 18.82L336.58 16.01L339.55 22.14L345.68 25.11L342.87 27.91Z" fill="#E0E0E0"/>
<path id="Vector_2" d="M343.31 23.11C343.621 22.7994 343.867 22.4307 344.035 22.0249C344.203 21.6192 344.29 21.1842 344.29 20.745C344.29 20.3058 344.203 19.8709 344.035 19.4651C343.867 19.0593 343.621 18.6906 343.31 18.38C342.999 18.0694 342.631 17.8231 342.225 17.655C341.819 17.4869 341.384 17.4004 340.945 17.4004C340.506 17.4004 340.071 17.4869 339.665 17.655C339.259 17.8231 338.891 18.0694 338.58 18.38L342.15 13.02L346.93 15.44L347.98 20.44L343.31 23.11Z" fill="#E0E0E0"/>
<path id="Vector_3" d="M336.01 16.59L341.27 11.33L348.43 13.24L350.36 20.41L345.1 25.67L337.93 23.74L336.01 16.59ZM345.56 20.89C346.028 20.4214 346.347 19.8245 346.476 19.1747C346.605 18.525 346.538 17.8516 346.285 17.2396C346.031 16.6277 345.602 16.1047 345.051 15.7367C344.5 15.3688 343.852 15.1724 343.19 15.1724C342.528 15.1724 341.88 15.3688 341.329 15.7367C340.778 16.1047 340.349 16.6277 340.095 17.2396C339.842 17.8516 339.775 18.525 339.904 19.1747C340.033 19.8245 340.352 20.4214 340.82 20.89C341.454 21.5115 342.307 21.8579 343.194 21.8542C344.082 21.8505 344.932 21.4968 345.56 20.87V20.89Z" fill="#F0F0F0"/>
<path id="Vector_4" d="M49.66 219.3L53.5 218.27L54.54 214.42L53.03 212.91L51.44 216.2L48.15 217.79L49.66 219.3Z" fill="#E0E0E0"/>
<path id="Vector_5" d="M49.43 216.72C49.1291 216.376 48.9701 215.931 48.9853 215.475C49.0004 215.018 49.1885 214.584 49.5115 214.261C49.8345 213.938 50.2682 213.75 50.7247 213.735C51.1812 213.72 51.6264 213.879 51.97 214.18L50.06 211.31L47.43 212.59L46.87 215.29L49.43 216.72Z" fill="#E0E0E0"/>
<path id="Vector_6" d="M53.33 213.21L50.51 210.39L46.66 211.39L45.66 215.24L48.43 218.09L52.28 217.09L53.33 213.21ZM48.21 215.52C48.0246 215.358 47.8745 215.159 47.769 214.936C47.6635 214.714 47.6049 214.472 47.5967 214.225C47.5886 213.979 47.6311 213.734 47.7216 213.505C47.8121 213.275 47.9487 213.067 48.1229 212.893C48.2972 212.719 48.5054 212.582 48.7345 212.492C48.9637 212.401 49.2091 212.359 49.4554 212.367C49.7016 212.375 49.9436 212.434 50.1663 212.539C50.389 212.644 50.5877 212.795 50.75 212.98C51.0509 213.324 51.2099 213.769 51.1947 214.225C51.1796 214.682 50.9915 215.116 50.6685 215.439C50.3456 215.762 49.9119 215.95 49.4554 215.965C48.9988 215.98 48.5537 215.821 48.21 215.52Z" fill="#F0F0F0"/>
<path id="Vector_7" d="M35.79 8.25001L38.99 11.45C39.3902 11.8433 39.9289 12.0637 40.49 12.0637C41.0511 12.0637 41.5898 11.8433 41.99 11.45C42.3809 11.0486 42.5997 10.5104 42.5997 9.95C42.5997 9.38966 42.3809 8.85145 41.99 8.45L38.8 5.26C38.3986 4.86906 37.8604 4.6503 37.3 4.6503C36.7397 4.6503 36.2014 4.86906 35.8 5.26C35.4084 5.65845 35.1881 6.19427 35.1862 6.75297C35.1843 7.31167 35.401 7.84895 35.79 8.25001Z" fill="#F0F0F0"/>
<path id="Vector_8" d="M33.54 0.300001C34.375 0.0678045 35.2597 0.0845028 36.0854 0.348051C36.911 0.6116 37.6418 1.11053 38.1878 1.78357C38.7339 2.45661 39.0716 3.27446 39.1593 4.13671C39.2471 4.99896 39.0812 5.86807 38.6819 6.63734C38.2826 7.4066 37.6674 8.04252 36.9118 8.46702C36.1561 8.89153 35.293 9.08613 34.4283 9.02695C33.5636 8.96776 32.735 8.65734 32.0443 8.13383C31.3536 7.61032 30.8307 6.89649 30.54 6.08C30.3555 5.50356 30.2867 4.89632 30.3378 4.29321C30.3888 3.69011 30.5586 3.10305 30.8375 2.56584C31.1163 2.02863 31.4986 1.55187 31.9624 1.163C32.4263 0.774133 32.9624 0.480841 33.54 0.300001Z" fill="#E0E0E0"/>
<path id="Vector_9" d="M30.0599 5.54462L30.523 6.83395L40.0283 3.41933L39.5652 2.13L30.0599 5.54462Z" fill="#F0F0F0"/>
</g>
<g id="Shadow">
<path id="&#60;Path&#62;" d="M209.43 350.15C316.512 350.15 403.32 345.082 403.32 338.83C403.32 332.578 316.512 327.51 209.43 327.51C102.348 327.51 15.54 332.578 15.54 338.83C15.54 345.082 102.348 350.15 209.43 350.15Z" fill="#F5F5F5"/>
</g>
<g id="404">
<path id="Vector_10" d="M88.11 94.17H87.93C83.43 92.42 80.74 90.72 79.34 88.67C78.2441 88.8777 77.1104 88.7232 76.11 88.23C74.9382 87.6565 73.966 86.7436 73.32 85.61C72.9805 85.8706 72.5806 86.0411 72.1575 86.1058C71.7345 86.1705 71.3019 86.1272 70.9 85.98C69.6676 85.5189 68.6159 84.674 67.9 83.57C67.4522 83.9036 66.8955 84.057 66.34 84C63.34 83.76 59.34 77.84 59.05 71.54C59.0471 71.407 59.0952 71.278 59.1845 71.1794C59.2738 71.0808 59.3974 71.0202 59.53 71.01C59.5957 71.0073 59.6613 71.0176 59.7229 71.0403C59.7846 71.063 59.8413 71.0976 59.8895 71.1422C59.9378 71.1868 59.9769 71.2404 60.0044 71.3001C60.032 71.3598 60.0474 71.4243 60.05 71.49C60.33 77.49 64.16 82.82 66.43 83C66.5952 83.0186 66.7624 83.0043 66.922 82.9579C67.0816 82.9116 67.2305 82.8341 67.36 82.73C66.5779 81.3043 66.0868 79.7374 65.9151 78.1203C65.7435 76.5032 65.8947 74.8682 66.36 73.31C67.22 70.31 67.98 69.13 68.9 69.31C70.62 69.74 70.39 76.31 69.48 80.6C69.3421 81.3737 69.057 82.1138 68.64 82.78C69.2295 83.7685 70.1195 84.5428 71.18 84.99C71.4627 85.0976 71.7703 85.1219 72.0663 85.0598C72.3624 84.9978 72.6344 84.8521 72.85 84.64C72.07 82.71 71.85 80.07 72.97 76.71C74.37 72.28 74.97 72.16 75.28 72.08C75.3966 72.0555 75.5177 72.063 75.6304 72.1017C75.743 72.1405 75.8431 72.209 75.92 72.3C76.85 73.35 75.74 80.23 74.58 83.63C74.4442 84.0392 74.2559 84.4291 74.02 84.79C74.5566 85.8716 75.4306 86.7491 76.51 87.29C77.218 87.6343 78.0053 87.7828 78.79 87.72C78.7 87.53 78.62 87.34 78.54 87.14C77.75 84.99 78.14 82.52 79.73 79.56C80.78 77.61 81.64 76.69 82.44 76.69C82.6524 76.6928 82.8595 76.7565 83.0367 76.8735C83.214 76.9905 83.3539 77.1558 83.44 77.35C84.31 78.96 83.68 84.27 81.96 86.91C81.5573 87.5152 80.9972 87.9992 80.34 88.31C81.68 90.07 84.23 91.62 88.34 93.2C88.4017 93.2222 88.4582 93.2566 88.5063 93.301C88.5545 93.3454 88.5932 93.3991 88.6202 93.4587C88.6472 93.5184 88.662 93.5829 88.6637 93.6484C88.6654 93.7139 88.654 93.779 88.63 93.84C88.5912 93.9442 88.5193 94.0328 88.4255 94.0924C88.3316 94.1519 88.2208 94.1792 88.11 94.17ZM82.43 77.7C82.43 77.7 81.86 77.7 80.6 80.05C79.15 82.73 78.78 84.94 79.47 86.8C79.5537 87.0303 79.6539 87.2542 79.77 87.47C80.3117 87.2462 80.7722 86.8624 81.09 86.37C82.49 84.23 83.16 79.83 82.64 78.11C82.57 77.76 82.43 77.7 82.43 77.7ZM75.25 73.49C74.7087 74.6285 74.2606 75.8091 73.91 77.02C73.1431 79.1187 73.0109 81.3967 73.53 83.57L73.62 83.31C74.6701 80.1403 75.2299 76.8288 75.28 73.49H75.25ZM68.67 70.34C68.5 70.49 68.01 71.12 67.32 73.56C66.5039 76.2983 66.7614 79.2447 68.04 81.8C68.2452 81.3529 68.3963 80.8829 68.49 80.4C69.56 75.49 69.26 71.05 68.7 70.34H68.67Z" fill="#263238"/>
<path id="Vector_11" d="M126.13 146.59C124.531 146.605 122.957 146.195 121.57 145.4C121.456 145.331 121.373 145.221 121.339 145.092C121.306 144.963 121.324 144.826 121.39 144.71C121.423 144.654 121.467 144.604 121.519 144.565C121.571 144.526 121.631 144.498 121.694 144.482C121.758 144.466 121.823 144.463 121.888 144.473C121.953 144.483 122.014 144.506 122.07 144.54C125.64 146.63 130.25 145.17 131.2 143.64C131.269 143.544 131.317 143.435 131.343 143.32C131.369 143.205 131.371 143.086 131.35 142.97C129.524 143.075 127.717 142.56 126.22 141.51C123.67 139.92 123.47 139.44 123.49 139.06C123.495 138.951 123.529 138.845 123.589 138.753C123.649 138.662 123.732 138.588 123.83 138.54C124.83 138.04 129.34 140.11 131.22 141.35C131.445 141.5 131.653 141.674 131.84 141.87C132.579 141.702 133.245 141.303 133.74 140.73C134.019 140.402 134.221 140.016 134.33 139.6H134.13C132.53 139.76 130.93 139.07 129.22 137.49C128.04 136.41 127.59 135.66 127.74 135.07C127.785 134.904 127.877 134.755 128.005 134.64C128.133 134.525 128.29 134.448 128.46 134.42C129.84 134.07 133.26 135.53 134.65 137.06C134.96 137.393 135.18 137.799 135.29 138.24C136.6 137.63 137.98 136.24 139.61 133.97C139.648 133.916 139.696 133.87 139.752 133.835C139.808 133.799 139.87 133.775 139.935 133.764C140 133.753 140.067 133.755 140.131 133.77C140.195 133.784 140.256 133.812 140.31 133.85C140.417 133.928 140.489 134.045 140.512 134.176C140.534 134.306 140.505 134.441 140.43 134.55C138.54 137.19 136.96 138.69 135.38 139.3C135.298 140.039 134.995 140.736 134.51 141.3C133.934 141.97 133.177 142.459 132.33 142.71C132.378 142.949 132.377 143.194 132.329 143.433C132.281 143.672 132.186 143.898 132.05 144.1C131.21 145.53 128.79 146.59 126.13 146.59ZM125.24 139.65C125.58 139.9 126.06 140.23 126.75 140.65C127.825 141.375 129.061 141.828 130.35 141.97C128.74 141.005 127.026 140.226 125.24 139.65ZM128.73 135.4C129.017 135.941 129.416 136.415 129.9 136.79C131.38 138.16 132.73 138.79 134.03 138.63H134.35C134.279 138.319 134.127 138.033 133.91 137.8C132.51 136.22 129.43 135.24 128.73 135.4Z" fill="#263238"/>
<path id="Vector_12" d="M139.37 145.22L123.79 148.05L109.64 70.83L79.58 76.29L30.58 163.29L35.84 192L98.69 180.59L102.99 204.07L133.05 198.59L128.75 175.11L144.33 172.28L139.37 145.22ZM60.52 159.59L86.52 114.02L93.77 153.56L60.52 159.59Z" fill="#20BF55"/>
<path id="Vector_13" d="M264.86 65.59C264.387 60.7357 263.312 55.959 261.66 51.37C259.961 46.9741 257.6 42.8635 254.66 39.18C251.18 34.8946 246.857 31.3686 241.96 28.82C236.627 25.8933 229.553 23.8567 220.74 22.71C202.44 20.3233 188.18 23.57 177.96 32.45C167.74 41.33 161.007 58.33 157.76 83.45C156.464 92.8381 156.129 102.334 156.76 111.79C157.427 120.457 159.02 127.433 161.54 132.72C164.747 139.849 169.806 145.989 176.19 150.5C182.503 154.933 191.17 157.863 202.19 159.29C221.777 161.843 236.3 158.08 245.76 148C255.22 137.92 261.487 120.887 264.56 96.9C265.926 86.5139 266.027 76.0004 264.86 65.59Z" fill="#20BF55"/>
<path id="Vector_14" d="M211.2 149.02C208.79 148.94 206.2 148.72 203.59 148.38C194.43 147.19 187.35 144.87 182.53 141.49C177.723 138.096 173.923 133.466 171.53 128.09L171.48 127.98C169.56 123.98 168.3 118.23 167.75 110.98C167.167 102.271 167.476 93.526 168.67 84.88C172.24 57.16 179.61 45.59 185.16 40.77C191.64 35.15 200.39 32.61 211.89 33.01C214.25 33.09 216.75 33.3 219.32 33.63C226.7 34.63 232.55 36.23 236.69 38.49C240.267 40.3323 243.434 42.8802 246 45.98C248.245 48.7797 250.049 51.9057 251.35 55.25C252.679 58.9791 253.538 62.8588 253.91 66.8C254.976 76.3498 254.879 85.9937 253.62 95.52C250.85 117.06 245.49 132.2 237.7 140.52C231.92 146.68 223.25 149.52 211.19 149.06L211.2 149.02Z" fill="#263238"/>
<path id="gearinner3" opacity="0.3" d="M246.55 135.46L246.83 132.9L245.29 132.28C245.288 131.409 245.214 130.539 245.07 129.68L246.46 128.79L245.75 126.32H244.09C243.762 125.517 243.364 124.744 242.9 124.01L243.84 122.65L242.24 120.65L240.71 121.29C240.09 120.677 239.421 120.115 238.71 119.61L239.08 117.99L236.83 116.75L235.65 117.94C234.846 117.609 234.017 117.345 233.17 117.15L232.89 115.52L230.34 115.23L229.71 116.77C228.841 116.774 227.975 116.854 227.12 117.01L226.23 115.59L223.76 116.32V117.98C222.956 118.312 222.184 118.713 221.45 119.18L220.09 118.18L218.09 119.78L218.73 121.31C218.12 121.931 217.562 122.599 217.06 123.31L215.44 122.95L214.21 125.2L215.39 126.37C215.055 127.175 214.79 128.009 214.6 128.86L212.96 129.13L212.69 131.68L214.22 132.32C214.221 133.185 214.298 134.048 214.45 134.9L213.04 135.79L213.76 138.26H215.43C215.764 139.059 216.165 139.829 216.63 140.56L215.63 141.92L217.23 143.92L218.78 143.27C219.395 143.885 220.065 144.444 220.78 144.94L220.43 146.59L222.68 147.82L223.85 146.65C224.655 146.973 225.484 147.23 226.33 147.42L226.62 149.06L229.17 149.34L229.79 147.81C230.675 147.809 231.557 147.735 232.43 147.59L233.32 149L235.78 148.28V146.62C236.584 146.282 237.36 145.881 238.1 145.42L239.44 146.42L241.44 144.81L240.79 143.28C241.406 142.66 241.971 141.991 242.48 141.28L244.09 141.64L245.33 139.39L244.15 138.23C244.472 137.425 244.729 136.596 244.92 135.75L246.55 135.46ZM233.68 134.46C233.257 135.234 232.614 135.866 231.832 136.274C231.049 136.683 230.164 136.85 229.287 136.755C228.409 136.66 227.58 136.307 226.903 135.741C226.227 135.175 225.734 134.42 225.486 133.573C225.238 132.727 225.247 131.825 225.512 130.984C225.776 130.142 226.285 129.397 226.972 128.845C227.66 128.292 228.496 127.956 229.375 127.878C230.254 127.801 231.136 127.986 231.91 128.41C232.945 128.98 233.711 129.936 234.043 131.07C234.375 132.203 234.244 133.422 233.68 134.46V134.46Z" fill="#20BF55"/>
<path id="Vector_15" d="M282.43 41.71L282.95 40.46C283.304 40.2608 283.638 40.0298 283.95 39.77H285.11L286.47 37.77L286.03 36.7C286.198 36.3436 286.332 35.9719 286.43 35.59L287.43 34.67L287.01 32.32L285.75 31.8C285.553 31.4454 285.321 31.1105 285.06 30.8V29.64L283.11 28.28L282.03 28.73C281.635 28.591 281.226 28.497 280.81 28.45L279.89 27.45L277.55 27.87L277.02 29.13C276.649 29.3224 276.297 29.5501 275.97 29.81H274.82L273.46 31.81L273.9 32.88C273.766 33.2762 273.672 33.6849 273.62 34.1L272.62 35.03L273.04 37.37L274.3 37.89C274.491 38.2464 274.719 38.5816 274.98 38.89V40.04L276.98 41.4L278.05 40.96C278.45 41.09 278.862 41.1805 279.28 41.23L280.2 42.23L282.43 41.71ZM277.43 35.23C277.335 34.7082 277.398 34.1701 277.609 33.6838C277.821 33.1975 278.171 32.7848 278.617 32.498C279.063 32.2112 279.584 32.0631 280.115 32.0725C280.645 32.0819 281.16 32.2484 281.596 32.5509C282.031 32.8534 282.367 33.2783 282.561 33.7718C282.755 34.2653 282.798 34.8053 282.685 35.3234C282.572 35.8415 282.308 36.3144 281.926 36.6822C281.544 37.0501 281.062 37.2964 280.54 37.39C279.842 37.5126 279.123 37.3544 278.541 36.9499C277.958 36.5454 277.559 35.9273 277.43 35.23Z" fill="#20BF55"/>
<path id="Vector_16" d="M255.04 35.08L254.27 34.43C255.92 32.3834 257.959 30.684 260.27 29.43L260.74 30.31C258.543 31.5064 256.605 33.1278 255.04 35.08Z" fill="#20BF55"/>
<path id="Vector_17" d="M263.02 29.39L262.63 28.47C266.323 26.8652 270.361 26.2186 274.37 26.59L274.27 27.59C270.428 27.2279 266.557 27.8472 263.02 29.39Z" fill="#20BF55"/>
<path id="Vector_18" d="M261.13 36.31L260.31 35.75C262.719 32.4966 266.226 30.2265 270.18 29.36L270.37 30.36C266.674 31.167 263.394 33.2796 261.13 36.31Z" fill="#20BF55"/>
<path id="Vector_19" d="M385.26 154.24L369.56 152.12L379.94 74.31L349.66 70.23L276.21 137.85L272.35 166.78L335.64 175.32L332.48 198.99L362.76 203.07L365.92 179.41L381.62 181.53L385.26 154.24ZM305.84 143.52L344.6 108.19L339.28 148.03L305.84 143.52Z" fill="#20BF55"/>
<path id="Vector_20" d="M353.56 202.33H353.43C353.3 202.306 353.185 202.231 353.11 202.122C353.036 202.014 353.007 201.88 353.03 201.75L376.43 73.81C376.457 73.6815 376.532 73.5682 376.64 73.4937C376.748 73.4192 376.88 73.3893 377.01 73.41C377.14 73.4343 377.255 73.5089 377.33 73.6176C377.404 73.7262 377.433 73.8601 377.41 73.99L354.06 201.92C354.037 202.036 353.974 202.14 353.883 202.214C353.792 202.289 353.678 202.33 353.56 202.33Z" fill="#263238"/>
<path id="Vector_21" d="M374.26 75.96C374.252 76.1775 374.158 76.3829 373.999 76.531C373.839 76.6792 373.627 76.758 373.41 76.75C373.193 76.742 372.987 76.648 372.839 76.4886C372.691 76.3292 372.612 76.1175 372.62 75.9C372.628 75.6825 372.722 75.4771 372.881 75.3289C373.041 75.1808 373.253 75.102 373.47 75.11C373.687 75.118 373.893 75.212 374.041 75.3714C374.189 75.5308 374.268 75.7425 374.26 75.96Z" fill="#263238"/>
<path id="Vector_22" d="M370.93 93.26C370.924 93.422 370.87 93.5786 370.775 93.71C370.68 93.8414 370.548 93.9416 370.396 93.9981C370.244 94.0546 370.079 94.0647 369.921 94.0273C369.763 93.9898 369.62 93.9065 369.51 93.7877C369.4 93.6689 369.327 93.5201 369.301 93.3601C369.275 93.2 369.297 93.0359 369.365 92.8884C369.432 92.741 369.542 92.6168 369.68 92.5317C369.818 92.4465 369.978 92.4042 370.14 92.41C370.248 92.4139 370.354 92.4389 370.452 92.4837C370.55 92.5286 370.638 92.5923 370.711 92.6712C370.785 92.7502 370.842 92.8428 370.879 92.9438C370.917 93.0449 370.934 93.1523 370.93 93.26Z" fill="#263238"/>
<path id="Vector_23" d="M367.6 110.59C367.596 110.698 367.571 110.804 367.526 110.902C367.481 111 367.418 111.088 367.339 111.161C367.26 111.235 367.167 111.292 367.066 111.329C366.965 111.367 366.858 111.384 366.75 111.38C366.643 111.377 366.537 111.354 366.439 111.31C366.341 111.266 366.253 111.203 366.179 111.125C366.106 111.047 366.049 110.955 366.011 110.855C365.973 110.754 365.956 110.647 365.96 110.54C365.963 110.431 365.987 110.324 366.031 110.225C366.075 110.126 366.139 110.037 366.218 109.962C366.297 109.888 366.39 109.83 366.492 109.792C366.593 109.754 366.702 109.736 366.81 109.74C367.027 109.75 367.231 109.845 367.378 110.004C367.526 110.163 367.606 110.373 367.6 110.59Z" fill="#263238"/>
<path id="Vector_24" d="M361.04 128.59C361.018 128.791 360.922 128.976 360.772 129.111C360.622 129.245 360.427 129.32 360.225 129.32C360.023 129.32 359.828 129.245 359.678 129.111C359.528 128.976 359.432 128.791 359.41 128.59C359.397 128.475 359.409 128.359 359.444 128.25C359.479 128.14 359.537 128.039 359.614 127.953C359.691 127.867 359.785 127.798 359.89 127.751C359.996 127.704 360.11 127.68 360.225 127.68C360.34 127.68 360.454 127.704 360.56 127.751C360.665 127.798 360.759 127.867 360.836 127.953C360.913 128.039 360.971 128.14 361.006 128.25C361.041 128.359 361.053 128.475 361.04 128.59Z" fill="#263238"/>
<path id="Vector_25" d="M360.93 145.16C360.927 145.268 360.903 145.375 360.859 145.473C360.815 145.572 360.751 145.661 360.672 145.734C360.592 145.808 360.499 145.865 360.398 145.902C360.296 145.939 360.188 145.955 360.08 145.95C359.918 145.944 359.761 145.89 359.63 145.795C359.499 145.7 359.398 145.568 359.342 145.416C359.285 145.264 359.275 145.099 359.313 144.941C359.35 144.783 359.434 144.64 359.552 144.53C359.671 144.42 359.82 144.347 359.98 144.321C360.14 144.295 360.304 144.317 360.452 144.385C360.599 144.452 360.723 144.562 360.808 144.7C360.893 144.838 360.936 144.998 360.93 145.16Z" fill="#263238"/>
<path id="Vector_26" d="M357.6 162.46C357.596 162.623 357.544 162.78 357.45 162.913C357.356 163.046 357.225 163.147 357.073 163.205C356.921 163.264 356.755 163.275 356.597 163.239C356.438 163.202 356.294 163.12 356.183 163.001C356.072 162.883 355.998 162.734 355.971 162.574C355.945 162.413 355.966 162.249 356.034 162.1C356.101 161.952 356.211 161.828 356.349 161.742C356.487 161.657 356.648 161.614 356.81 161.62C357.026 161.628 357.23 161.72 357.378 161.878C357.526 162.035 357.605 162.244 357.6 162.46Z" fill="#263238"/>
<path id="Vector_27" d="M354.27 179.76C354.262 179.978 354.169 180.185 354.009 180.335C353.85 180.484 353.638 180.565 353.42 180.56C353.312 180.556 353.206 180.531 353.108 180.486C353.01 180.441 352.922 180.378 352.849 180.299C352.775 180.22 352.718 180.127 352.681 180.026C352.643 179.925 352.626 179.818 352.63 179.71C352.633 179.602 352.658 179.496 352.702 179.398C352.746 179.3 352.809 179.211 352.888 179.137C352.966 179.064 353.059 179.006 353.159 178.968C353.26 178.93 353.367 178.912 353.475 178.915C353.583 178.918 353.689 178.943 353.787 178.987C353.885 179.031 353.974 179.094 354.048 179.173C354.121 179.251 354.179 179.344 354.217 179.444C354.255 179.545 354.273 179.652 354.27 179.76Z" fill="#263238"/>
<path id="Vector_28" d="M350.93 197.07C350.924 197.232 350.87 197.389 350.775 197.52C350.68 197.651 350.548 197.752 350.396 197.808C350.244 197.865 350.079 197.875 349.921 197.837C349.763 197.8 349.62 197.716 349.51 197.598C349.4 197.479 349.327 197.33 349.301 197.17C349.275 197.01 349.297 196.846 349.365 196.698C349.432 196.551 349.542 196.427 349.68 196.342C349.818 196.257 349.978 196.214 350.14 196.22C350.248 196.223 350.355 196.247 350.453 196.291C350.552 196.335 350.641 196.399 350.714 196.478C350.788 196.558 350.845 196.651 350.882 196.752C350.919 196.854 350.935 196.962 350.93 197.07Z" fill="#263238"/>
<path id="Vector_29" d="M360.22 129.04C360.107 129.04 359.998 129.001 359.911 128.93C359.823 128.859 359.763 128.76 359.74 128.65C359.725 128.586 359.723 128.519 359.735 128.454C359.746 128.389 359.77 128.327 359.805 128.271C359.84 128.215 359.886 128.167 359.94 128.129C359.995 128.091 360.056 128.064 360.12 128.05L362.6 127.52C362.665 127.505 362.732 127.504 362.798 127.516C362.864 127.527 362.926 127.552 362.982 127.589C363.038 127.625 363.086 127.672 363.124 127.727C363.161 127.782 363.187 127.845 363.2 127.91C363.213 127.974 363.214 128.041 363.201 128.105C363.189 128.17 363.163 128.231 363.127 128.286C363.091 128.341 363.044 128.388 362.99 128.424C362.936 128.461 362.874 128.487 362.81 128.5L360.33 129.03L360.22 129.04Z" fill="#263238"/>
<path id="Vector_30" d="M368.51 119.83C367.33 122.89 366.329 126.015 365.51 129.19C364.76 132.72 364.72 140.62 364.72 140.62" fill="#263238"/>
<path id="Vector_31" d="M364.72 141.12C364.587 141.115 364.462 141.059 364.369 140.964C364.276 140.87 364.222 140.743 364.22 140.61C364.22 140.29 364.28 132.61 365.03 129.09C365.844 125.887 366.846 122.735 368.03 119.65C368.05 119.584 368.083 119.523 368.128 119.471C368.173 119.419 368.228 119.376 368.289 119.346C368.351 119.316 368.419 119.299 368.487 119.296C368.556 119.293 368.625 119.304 368.689 119.329C368.753 119.354 368.811 119.392 368.86 119.44C368.909 119.489 368.947 119.547 368.973 119.61C368.998 119.674 369.01 119.743 369.008 119.812C369.006 119.88 368.99 119.948 368.96 120.01C367.782 123.046 366.78 126.148 365.96 129.3C365.23 132.74 365.18 140.54 365.17 140.62C365.171 140.744 365.125 140.865 365.042 140.957C364.958 141.049 364.844 141.108 364.72 141.12Z" fill="#263238"/>
</g>
<g id="Character">
<path id="Vector_32" d="M181.88 227.43C183.27 205.03 180.72 164.3 222.83 169.7C267.96 175.47 255.05 228.25 255.05 228.25L181.88 227.43Z" fill="#263238"/>
<path id="Vector_33" d="M210.95 213.97C221.101 213.97 229.33 205.741 229.33 195.59C229.33 185.439 221.101 177.21 210.95 177.21C200.799 177.21 192.57 185.439 192.57 195.59C192.57 205.741 200.799 213.97 210.95 213.97Z" fill="white"/>
<path id="eyelid" d="M213.36 177.24C204.65 175.76 195.36 182.17 194.43 188.67L228.94 191.85C227.72 184.44 220.26 178.42 213.36 177.24Z" fill="#263238"/>
<path id="eye" d="M225.01 195.13C224.76 199.94 222.14 203.71 219.16 203.55C216.18 203.39 213.96 199.38 214.16 194.55C214.36 189.72 217.03 185.97 220.01 186.13C222.99 186.29 225.25 190.33 225.01 195.13Z" fill="#263238"/>
<path id="Vector_34" d="M210.94 214.97C207.107 214.97 203.36 213.833 200.173 211.704C196.986 209.574 194.502 206.548 193.035 203.006C191.568 199.465 191.185 195.568 191.932 191.809C192.68 188.05 194.526 184.597 197.236 181.886C199.947 179.176 203.4 177.33 207.159 176.582C210.919 175.835 214.815 176.218 218.356 177.685C221.898 179.152 224.924 181.636 227.054 184.823C229.183 188.01 230.32 191.757 230.32 195.59C230.315 200.728 228.271 205.655 224.638 209.288C221.005 212.921 216.078 214.965 210.94 214.97ZM210.94 178.22C207.502 178.22 204.142 179.24 201.283 181.15C198.425 183.06 196.197 185.775 194.882 188.951C193.567 192.128 193.223 195.623 193.895 198.994C194.566 202.366 196.222 205.463 198.654 207.893C201.086 210.323 204.183 211.978 207.555 212.647C210.928 213.317 214.422 212.971 217.598 211.654C220.774 210.337 223.487 208.108 225.396 205.249C227.304 202.389 228.322 199.028 228.32 195.59C228.315 190.983 226.482 186.567 223.223 183.31C219.965 180.053 215.547 178.223 210.94 178.22Z" fill="#20BF55"/>
<path id="Vector_35" opacity="0.3" d="M249.92 226.87H249.8C249.736 226.856 249.675 226.829 249.621 226.791C249.568 226.753 249.522 226.705 249.488 226.649C249.453 226.593 249.43 226.53 249.42 226.465C249.41 226.4 249.414 226.334 249.43 226.27C249.43 226.14 252.65 212.58 249.34 198.87C249.308 198.737 249.33 198.598 249.402 198.481C249.473 198.365 249.587 198.282 249.72 198.25C249.853 198.218 249.992 198.24 250.109 198.312C250.225 198.383 250.308 198.497 250.34 198.63C253.71 212.63 250.46 226.37 250.43 226.5C250.4 226.611 250.334 226.708 250.241 226.775C250.148 226.843 250.035 226.876 249.92 226.87Z" fill="white"/>
<path id="Vector_36" opacity="0.3" d="M247.13 191.35C247.034 191.349 246.94 191.321 246.859 191.27C246.778 191.219 246.712 191.146 246.67 191.06C245.427 188.313 243.834 185.738 241.93 183.4C241.847 183.298 241.808 183.167 241.821 183.036C241.834 182.905 241.899 182.784 242 182.7C242.051 182.657 242.11 182.625 242.173 182.606C242.237 182.586 242.304 182.58 242.37 182.586C242.436 182.593 242.5 182.612 242.558 182.644C242.617 182.675 242.668 182.718 242.71 182.77C244.661 185.176 246.297 187.82 247.58 190.64C247.609 190.699 247.625 190.763 247.628 190.828C247.632 190.894 247.622 190.959 247.599 191.021C247.577 191.082 247.543 191.139 247.498 191.187C247.453 191.235 247.4 191.273 247.34 191.3C247.274 191.331 247.203 191.348 247.13 191.35Z" fill="white"/>
<path id="Vector_37" d="M88.16 332.51H87.79C86.4639 332.473 85.2069 331.91 84.2955 330.947C83.3841 329.983 82.8929 328.696 82.93 327.37C82.9672 326.044 83.5296 324.787 84.4935 323.875C85.4574 322.964 86.7439 322.473 88.07 322.51H88.16C91.05 322.51 98 319 112.54 296.08C112.926 295.471 113.439 294.953 114.044 294.561C114.649 294.169 115.331 293.913 116.045 293.809C116.758 293.706 117.485 293.758 118.176 293.961C118.868 294.165 119.507 294.516 120.05 294.99C131.469 304.806 143.922 313.35 157.19 320.47C157.804 320.749 158.355 321.15 158.81 321.648C159.265 322.146 159.615 322.73 159.838 323.367C160.062 324.003 160.154 324.679 160.109 325.352C160.065 326.025 159.884 326.682 159.579 327.283C159.274 327.885 158.85 328.419 158.333 328.852C157.817 329.286 157.217 329.61 156.572 329.806C155.926 330.002 155.248 330.065 154.577 329.992C153.907 329.919 153.258 329.711 152.67 329.38C140.339 322.827 128.683 315.077 117.87 306.24C105.68 324.59 96.64 332.51 88.16 332.51Z" fill="#263238"/>
<path id="Vector_38" d="M119.1 294.09H118.67C117.884 293.976 117.176 293.555 116.699 292.92C116.223 292.284 116.019 291.486 116.13 290.7C116.84 285.7 115.96 267.07 109.65 252.57C109.37 251.929 109.323 251.211 109.516 250.539C109.71 249.867 110.132 249.284 110.71 248.89C124.41 239.56 153.59 238.44 154.83 238.4C155.224 238.387 155.617 238.451 155.986 238.59C156.355 238.729 156.693 238.939 156.981 239.208C157.269 239.477 157.5 239.801 157.663 240.16C157.826 240.518 157.917 240.906 157.93 241.3C157.943 241.694 157.879 242.087 157.74 242.456C157.601 242.825 157.391 243.163 157.122 243.451C156.853 243.738 156.529 243.97 156.17 244.133C155.812 244.296 155.424 244.387 155.03 244.4C154.76 244.4 129.25 245.4 116.15 252.6C121.73 267.04 123 285.03 122.07 291.54C121.962 292.25 121.603 292.898 121.058 293.366C120.513 293.834 119.818 294.091 119.1 294.09Z" fill="#263238"/>
<path id="Vector_39" d="M124.14 290.21C122.14 285.5 113.14 286.03 107.87 290.07C105.05 292.22 101.23 298.71 100.87 301.07C100.75 301.631 100.768 302.212 100.922 302.765C101.077 303.317 101.363 303.823 101.757 304.24C102.15 304.658 102.639 304.973 103.181 305.159C103.724 305.345 104.303 305.397 104.87 305.31C108.32 305.01 113.05 300 113.05 300C109.9 303.09 113.97 305.27 120.05 300.8C123.37 298.31 126.37 295.48 124.14 290.21Z" fill="#20BF55"/>
<path id="Vector_40" d="M296.14 228.75C296.094 228.76 296.046 228.76 296 228.75C295.936 228.733 295.877 228.703 295.825 228.662C295.773 228.621 295.73 228.57 295.698 228.512C295.666 228.455 295.646 228.391 295.64 228.325C295.633 228.259 295.64 228.193 295.66 228.13C296.99 223.49 298.44 220.66 300.35 219.13C300.051 218.054 300.107 216.911 300.51 215.87C300.976 214.655 301.799 213.609 302.87 212.87C302.579 212.555 302.372 212.172 302.269 211.756C302.166 211.34 302.17 210.904 302.28 210.49C302.642 209.237 303.391 208.131 304.42 207.33C304.049 206.915 303.846 206.377 303.85 205.82C303.85 202.82 309.36 198.3 315.61 197.44C315.743 197.421 315.877 197.456 315.984 197.537C316.091 197.618 316.161 197.737 316.18 197.87C316.199 198.003 316.164 198.137 316.083 198.244C316.002 198.351 315.883 198.421 315.75 198.44C309.81 199.25 304.83 203.55 304.85 205.82C304.848 206.158 304.977 206.485 305.21 206.73C306.555 205.818 308.069 205.183 309.662 204.862C311.255 204.54 312.897 204.54 314.49 204.86C317.56 205.45 318.81 206.1 318.67 207.03C318.39 208.78 311.86 209.15 307.48 208.63C306.695 208.559 305.932 208.338 305.23 207.98C304.287 208.651 303.586 209.609 303.23 210.71C303.144 211.001 303.145 211.312 303.232 211.603C303.319 211.894 303.488 212.153 303.72 212.35C305.58 211.35 308.19 210.99 311.64 211.75C316.17 212.75 316.34 213.3 316.45 213.63C316.485 213.747 316.488 213.871 316.458 213.989C316.428 214.107 316.367 214.214 316.28 214.3C315.33 215.3 308.38 214.83 304.89 213.97C304.469 213.874 304.062 213.723 303.68 213.52C302.647 214.148 301.852 215.101 301.42 216.23C301.131 216.96 301.052 217.757 301.19 218.53C301.368 218.424 301.552 218.327 301.74 218.24C303.81 217.24 306.31 217.42 309.4 218.74C311.4 219.61 312.4 220.39 312.5 221.18C312.504 221.383 312.454 221.583 312.353 221.759C312.253 221.935 312.107 222.08 311.93 222.18C310.4 223.18 305.06 223.04 302.28 221.56C301.641 221.213 301.108 220.697 300.74 220.07C299.11 221.57 297.79 224.24 296.59 228.43C296.554 228.521 296.492 228.599 296.412 228.656C296.332 228.713 296.238 228.745 296.14 228.75ZM301.56 219.42C301.838 219.937 302.263 220.362 302.78 220.64C305.04 221.84 309.48 222.11 311.14 221.44C311.48 221.3 311.53 221.19 311.53 221.19C311.53 221.19 311.48 220.63 309.03 219.58C306.23 218.38 304.03 218.21 302.2 219.06C301.979 219.166 301.766 219.287 301.56 219.42ZM304.9 212.85L305.15 212.92C308.406 213.67 311.758 213.923 315.09 213.67C313.908 213.232 312.69 212.897 311.45 212.67C309.296 212.087 307.018 212.149 304.9 212.85ZM306.16 207.23C306.622 207.395 307.102 207.503 307.59 207.55C312.59 208.14 316.98 207.45 317.59 206.82C317.42 206.67 316.75 206.24 314.27 205.77C311.479 205.213 308.581 205.735 306.16 207.23Z" fill="#263238"/>
<path id="Vector_41" d="M165.96 330.84C166.62 330.63 166.4 329.99 165.66 329.99H152.12C126.34 327.26 108.33 330.92 119.68 331.78C131.03 332.64 118.88 332.46 110.59 335.6C102.3 338.74 172.24 339.53 178.59 335.6C184.43 331.98 156.82 333.77 165.96 330.84Z" fill="#263238"/>
<path id="Vector_42" d="M262.9 334.83L145.1 330.93L140.21 216.7L279.32 219.81L262.9 334.83Z" fill="#20BF55"/>
<path id="Vector_43" d="M181.88 332.64C181.754 332.64 181.633 332.593 181.54 332.508C181.447 332.423 181.39 332.306 181.38 332.18L171.94 217.46C171.932 217.328 171.975 217.198 172.061 217.097C172.147 216.996 172.268 216.933 172.4 216.92C172.532 216.914 172.66 216.958 172.761 217.044C172.861 217.129 172.925 217.249 172.94 217.38L182.43 332.1C182.435 332.166 182.428 332.232 182.408 332.295C182.388 332.357 182.355 332.416 182.312 332.466C182.27 332.516 182.217 332.557 182.159 332.587C182.1 332.617 182.036 332.635 181.97 332.64H181.88Z" fill="#263238"/>
<path id="Vector_44" d="M262.9 334.83L294.56 330.01L304.54 223.8L279.32 219.81L262.9 334.83Z" fill="#20BF55"/>
<path id="Vector_45" opacity="0.2" d="M262.9 334.83L294.56 330.01L304.54 223.8L279.32 219.81L262.9 334.83Z" fill="black"/>
<path id="Vector_46" d="M155.16 308.91L152.26 241.04C152.188 239.363 152.462 237.69 153.063 236.123C153.664 234.556 154.58 233.129 155.754 231.93C156.928 230.732 158.336 229.786 159.89 229.153C161.445 228.52 163.112 228.213 164.79 228.25L252.85 230.25C254.584 230.289 256.29 230.695 257.855 231.442C259.421 232.189 260.81 233.259 261.932 234.582C263.054 235.905 263.882 237.451 264.363 239.117C264.843 240.784 264.965 242.533 264.72 244.25L254.96 312.59C254.538 315.583 253.025 318.315 250.713 320.262C248.401 322.209 245.451 323.234 242.43 323.14L167.04 320.64C163.945 320.545 161.001 319.282 158.797 317.107C156.594 314.931 155.295 312.003 155.16 308.91Z" fill="#263238"/>
<path id="Vector_47" d="M164.68 249.08L178.3 249.51L178.19 253.02L169.66 252.75L169.58 255.37L177.49 255.62L177.38 258.98L169.47 258.72L169.37 261.97L178.14 262.25L178.02 265.97L164.15 265.53L164.68 249.08Z" fill="white"/>
<path id="Vector_48" d="M180.83 266.06L181.35 249.61L189.83 249.88C191.046 249.874 192.256 250.049 193.42 250.4C194.245 250.676 194.951 251.227 195.42 251.96C195.768 252.494 196.001 253.094 196.107 253.722C196.213 254.35 196.188 254.994 196.034 255.612C195.88 256.23 195.601 256.81 195.213 257.316C194.825 257.821 194.337 258.241 193.78 258.55C193.211 258.843 192.601 259.045 191.97 259.15C192.435 259.3 192.876 259.515 193.28 259.79C193.572 260.061 193.833 260.363 194.06 260.69C194.318 261.001 194.545 261.336 194.74 261.69L197.05 266.54L191.31 266.35L188.75 261.24C188.547 260.752 188.248 260.31 187.87 259.94C187.511 259.68 187.083 259.534 186.64 259.52H186.19L185.98 266.19L180.83 266.06ZM186.25 256.44L188.39 256.51C188.844 256.482 189.296 256.419 189.74 256.32C190.075 256.269 190.378 256.094 190.59 255.83C190.806 255.563 190.929 255.233 190.94 254.89C190.959 254.661 190.927 254.431 190.845 254.217C190.764 254.002 190.636 253.809 190.47 253.65C189.912 253.289 189.253 253.118 188.59 253.16L186.35 253.09L186.25 256.44Z" fill="white"/>
<path id="Vector_49" d="M198.71 266.59L199.23 250.14L207.7 250.41C208.916 250.403 210.126 250.578 211.29 250.93C212.117 251.203 212.824 251.755 213.29 252.49C213.798 253.291 214.036 254.234 213.97 255.18C213.973 255.978 213.76 256.762 213.353 257.449C212.946 258.135 212.361 258.699 211.66 259.08C211.091 259.371 210.48 259.573 209.85 259.68C210.312 259.829 210.75 260.045 211.15 260.32C211.449 260.583 211.714 260.882 211.94 261.21C212.196 261.523 212.423 261.857 212.62 262.21L214.93 267.05L209.19 266.87L206.63 261.76C206.425 261.273 206.126 260.831 205.75 260.46C205.393 260.19 204.958 260.043 204.51 260.04H204.07L203.85 266.72L198.71 266.59ZM204.12 256.97L206.27 257.03C206.725 257.013 207.177 256.952 207.62 256.85C207.953 256.801 208.253 256.625 208.46 256.36C208.684 256.098 208.808 255.765 208.81 255.42C208.832 255.192 208.802 254.962 208.722 254.747C208.642 254.533 208.515 254.339 208.35 254.18C207.792 253.81 207.127 253.638 206.46 253.69L204.23 253.62L204.12 256.97Z" fill="white"/>
<path id="Vector_50" d="M215.75 258.95C215.673 257.802 215.851 256.651 216.271 255.58C216.692 254.509 217.344 253.545 218.182 252.756C219.019 251.967 220.021 251.374 221.115 251.018C222.209 250.663 223.369 250.554 224.51 250.7C225.662 250.662 226.809 250.856 227.885 251.27C228.96 251.684 229.941 252.309 230.77 253.11C231.51 253.962 232.068 254.955 232.412 256.029C232.756 257.104 232.878 258.237 232.77 259.36C232.778 260.994 232.394 262.606 231.65 264.06C230.976 265.25 229.968 266.217 228.75 266.84C227.315 267.526 225.727 267.829 224.14 267.72C222.558 267.733 220.993 267.392 219.56 266.72C218.34 266.058 217.345 265.049 216.7 263.82C215.944 262.314 215.615 260.63 215.75 258.95ZM220.83 259.13C220.68 260.391 220.966 261.664 221.64 262.74C221.955 263.092 222.338 263.377 222.766 263.578C223.194 263.778 223.658 263.891 224.13 263.909C224.602 263.926 225.073 263.849 225.514 263.681C225.956 263.513 226.359 263.257 226.7 262.93C227.441 261.807 227.793 260.472 227.7 259.13C227.834 257.925 227.54 256.711 226.87 255.7C226.567 255.351 226.192 255.071 225.771 254.879C225.35 254.687 224.893 254.589 224.43 254.59C223.963 254.556 223.495 254.629 223.06 254.802C222.626 254.975 222.236 255.245 221.92 255.59C221.163 256.611 220.778 257.86 220.83 259.13Z" fill="white"/>
<path id="Vector_51" d="M235.34 267.8L235.86 251.34L244.33 251.61C245.546 251.608 246.755 251.783 247.92 252.13C248.743 252.411 249.448 252.96 249.92 253.69C250.425 254.492 250.663 255.434 250.6 256.38C250.605 257.18 250.392 257.966 249.986 258.654C249.579 259.343 248.993 259.908 248.29 260.29C247.718 260.573 247.109 260.772 246.48 260.88C246.943 261.032 247.381 261.251 247.78 261.53C248.079 261.793 248.344 262.092 248.57 262.42C248.828 262.731 249.055 263.066 249.25 263.42L251.56 268.27L245.82 268.09L243.26 262.97C243.056 262.485 242.757 262.046 242.38 261.68C242.021 261.412 241.588 261.261 241.14 261.25H240.7L240.48 267.93L235.34 267.8ZM240.75 258.17L242.9 258.24C243.355 258.223 243.807 258.162 244.25 258.06C244.581 258.007 244.881 257.832 245.09 257.57C245.326 257.291 245.451 256.935 245.44 256.57C245.462 256.344 245.431 256.115 245.352 255.902C245.272 255.689 245.145 255.497 244.98 255.34C244.422 254.97 243.757 254.798 243.09 254.85L240.86 254.78L240.75 258.17Z" fill="white"/>
<path id="zigzag" d="M243.43 295.75C243.242 295.754 243.056 295.717 242.884 295.643C242.711 295.569 242.557 295.459 242.43 295.32L233.87 285.95L224.63 294.39C224.374 294.625 224.035 294.748 223.688 294.733C223.342 294.718 223.015 294.566 222.78 294.31L214.22 284.94L204.98 293.38C204.724 293.615 204.385 293.738 204.038 293.723C203.692 293.708 203.365 293.556 203.13 293.3L194.56 283.93L185.33 292.37C185.195 292.492 185.037 292.585 184.865 292.644C184.693 292.702 184.511 292.725 184.33 292.71C183.983 292.689 183.657 292.535 183.42 292.28L174.86 282.92L165.63 291.35C165.372 291.585 165.032 291.709 164.684 291.694C164.335 291.679 164.007 291.526 163.77 291.27C163.653 291.143 163.563 290.994 163.504 290.832C163.445 290.67 163.419 290.498 163.428 290.326C163.436 290.154 163.479 289.985 163.553 289.83C163.627 289.674 163.731 289.535 163.86 289.42L174.06 280.09C174.318 279.855 174.658 279.731 175.007 279.746C175.355 279.761 175.683 279.914 175.92 280.17L184.48 289.54L193.71 281.1C193.972 280.87 194.312 280.748 194.66 280.76C195.008 280.779 195.335 280.933 195.57 281.19L204.13 290.56L213.37 282.12C213.496 282.003 213.644 281.911 213.806 281.852C213.968 281.792 214.14 281.765 214.312 281.773C214.484 281.78 214.653 281.822 214.809 281.895C214.965 281.969 215.104 282.072 215.22 282.2L223.78 291.57L233.02 283.13C233.276 282.895 233.615 282.772 233.962 282.787C234.308 282.802 234.635 282.954 234.87 283.21L244.43 293.59C244.601 293.781 244.712 294.017 244.751 294.271C244.79 294.524 244.754 294.783 244.648 295.016C244.542 295.25 244.37 295.447 244.154 295.584C243.938 295.722 243.686 295.793 243.43 295.79V295.75Z" fill="white"/>
<path id="Vector_52" d="M85.18 337.26L78.93 334.27L73.34 307.11L76.37 303.77L85.18 337.26Z" fill="#20BF55"/>
<path id="Vector_53" d="M85.18 337.26L93.49 332.41L86.37 310.02L76.37 303.77L85.18 337.26Z" fill="#20BF55"/>
<path id="Vector_54" opacity="0.2" d="M85.18 337.26L93.49 332.41L86.37 310.02L76.37 303.77L85.18 337.26Z" fill="black"/>
<path id="Vector_55" d="M221.43 342.2H220.74C219.414 342.164 218.156 341.603 217.244 340.64C216.332 339.677 215.839 338.391 215.875 337.065C215.911 335.739 216.472 334.481 217.435 333.569C218.398 332.657 219.684 332.164 221.01 332.2C228.71 332.45 245.01 327.72 254.33 318.68C254.893 318.128 255.578 317.717 256.33 317.48C272.12 312.74 277.99 322.31 278.23 322.72L269.63 327.81C269.66 327.874 269.697 327.934 269.74 327.99C269.65 327.86 267.41 324.99 260.29 326.75C248.6 337.41 230.66 342.2 221.43 342.2Z" fill="#263238"/>
<path id="Vector_56" d="M220.83 348.84L202.62 347.7L201.18 314.12L225.66 315.04L220.83 348.84Z" fill="#20BF55"/>
<path id="Vector_57" d="M220.83 348.84L225.09 344.61L227.72 323.67L225.66 315.04L220.83 348.84Z" fill="#20BF55"/>
<path id="Vector_58" opacity="0.2" d="M220.83 348.84L225.09 344.61L227.72 323.67L225.66 315.04L220.83 348.84Z" fill="black"/>
<path id="Vector_59" d="M326.34 336.13C325.686 336.129 325.051 335.915 324.53 335.52C314.13 327.62 300.08 313.59 294.69 300.06C294.609 299.864 294.552 299.659 294.52 299.45C291.89 283.81 289.38 250.9 289.27 249.51C289.24 249.116 289.289 248.72 289.412 248.345C289.536 247.97 289.732 247.622 289.99 247.323C290.51 246.718 291.249 246.345 292.045 246.285C292.841 246.225 293.627 246.484 294.232 247.005C294.837 247.525 295.21 248.264 295.27 249.06C295.27 249.39 297.84 282.62 300.4 298.13C305.78 311.29 320.4 324.8 328.18 330.74C328.681 331.12 329.05 331.648 329.234 332.249C329.419 332.85 329.41 333.494 329.209 334.09C329.008 334.686 328.625 335.203 328.113 335.569C327.602 335.935 326.989 336.131 326.36 336.13H326.34Z" fill="#263238"/>
<path id="Vector_60" d="M340.21 337.64C337.89 337.64 335.26 336.59 332.39 334.52C331.746 334.053 331.313 333.35 331.187 332.564C331.062 331.778 331.253 330.974 331.72 330.33C332.187 329.686 332.89 329.253 333.676 329.127C334.462 329.002 335.266 329.193 335.91 329.66C338.39 331.45 339.74 331.66 340.21 331.66C341.006 331.66 341.769 331.976 342.331 332.539C342.894 333.101 343.21 333.864 343.21 334.66C343.21 335.456 342.894 336.219 342.331 336.781C341.769 337.344 341.006 337.66 340.21 337.66V337.64Z" fill="#263238"/>
<path id="Vector_61" d="M333.23 334.43C336.44 324.9 349.6 326.78 354.14 328.2C358.018 329.326 361.738 330.939 365.21 333C367.66 334.6 367.7 337.29 364.43 338.82C360.43 340.7 350.27 339.03 350.27 339.03C355.51 341.32 350.27 345.03 341.06 341.39C338.07 340.21 332.1 337.93 333.23 334.43Z" fill="#20BF55"/>
<path id="Vector_62" d="M301.29 253.59C300.1 261.69 293.39 267.66 287.93 266.86C282.47 266.06 282.25 258.86 283.44 250.72C284.63 242.58 286.79 236.72 292.25 237.52C297.71 238.32 302.48 245.52 301.29 253.59Z" fill="#263238"/>
<path id="Vector_63" d="M169.31 221.29C169.763 221.29 170.13 220.923 170.13 220.47C170.13 220.017 169.763 219.65 169.31 219.65C168.857 219.65 168.49 220.017 168.49 220.47C168.49 220.923 168.857 221.29 169.31 221.29Z" fill="#263238"/>
<path id="Vector_64" d="M177.64 226.37C177.64 226.532 177.592 226.691 177.502 226.826C177.412 226.96 177.284 227.065 177.134 227.128C176.984 227.19 176.819 227.206 176.66 227.174C176.501 227.143 176.355 227.065 176.24 226.95C176.126 226.835 176.047 226.689 176.016 226.53C175.984 226.371 176 226.206 176.062 226.056C176.124 225.906 176.23 225.778 176.364 225.688C176.499 225.598 176.658 225.55 176.82 225.55C177.037 225.55 177.246 225.636 177.4 225.79C177.554 225.944 177.64 226.153 177.64 226.37Z" fill="#263238"/>
<path id="Vector_65" d="M178.56 323.27C178.56 323.432 178.512 323.591 178.422 323.726C178.332 323.86 178.204 323.966 178.054 324.028C177.904 324.09 177.739 324.106 177.58 324.074C177.421 324.043 177.275 323.965 177.16 323.85C177.046 323.735 176.967 323.589 176.936 323.43C176.904 323.271 176.92 323.106 176.982 322.956C177.044 322.806 177.15 322.678 177.284 322.588C177.419 322.498 177.578 322.45 177.74 322.45C177.957 322.45 178.166 322.536 178.32 322.69C178.474 322.844 178.56 323.053 178.56 323.27Z" fill="#263238"/>
<path id="Vector_66" d="M186.07 329.18C186.07 329.342 186.022 329.501 185.932 329.636C185.842 329.77 185.714 329.876 185.564 329.938C185.414 330 185.249 330.016 185.09 329.984C184.931 329.953 184.785 329.875 184.67 329.76C184.556 329.645 184.477 329.499 184.446 329.34C184.414 329.181 184.43 329.016 184.492 328.866C184.555 328.716 184.66 328.588 184.794 328.498C184.929 328.408 185.088 328.36 185.25 328.36C185.468 328.36 185.676 328.446 185.83 328.6C185.984 328.754 186.07 328.963 186.07 329.18Z" fill="#263238"/>
</g>
<g id="RobotParts">
<path id="Vector_67" d="M41.94 339.01C40.5004 338.943 39.0942 338.553 37.8255 337.869C36.5568 337.185 35.4579 336.225 34.61 335.06C34.5684 335.006 34.5382 334.945 34.5212 334.879C34.5042 334.814 34.5007 334.745 34.511 334.678C34.5212 334.611 34.545 334.547 34.5809 334.489C34.6168 334.432 34.6641 334.382 34.7198 334.343C34.7755 334.304 34.8385 334.277 34.905 334.264C34.9715 334.25 35.04 334.25 35.1065 334.264C35.1729 334.278 35.2358 334.305 35.2915 334.344C35.3471 334.383 35.3942 334.432 35.43 334.49C37.3 337.19 41.43 338.62 43.23 337.77C43.4103 337.694 43.571 337.577 43.7 337.43C42.7905 337.03 41.9936 336.412 41.3796 335.63C40.7657 334.849 40.3537 333.928 40.18 332.95C39.95 331.68 39.77 329.95 40.81 329.73C42.25 329.41 44.13 332.88 44.81 335.51C44.9332 335.945 44.9772 336.399 44.94 336.85C45.5168 337.022 46.1235 337.07 46.72 336.99C46.9888 336.969 47.2504 336.893 47.488 336.765C47.7256 336.638 47.934 336.462 48.1 336.25C47.4419 335.753 46.896 335.124 46.4979 334.402C46.0999 333.679 45.8586 332.882 45.79 332.06C45.41 329.32 45.7 328.85 46 328.61C46.0972 328.535 46.2132 328.489 46.3351 328.477C46.4569 328.465 46.5798 328.487 46.69 328.54C47.76 328.99 49.05 332.87 49.3 335.07C49.33 335.299 49.33 335.531 49.3 335.76C49.7311 335.926 50.1882 336.014 50.65 336.02C51.498 336.053 52.3367 335.834 53.06 335.39C52.92 335.3 52.79 335.2 52.66 335.1C51.66 334.21 51.2 332.79 51.38 330.77C51.52 329.2 51.87 328.34 52.5 328.07C52.7033 327.988 52.9258 327.968 53.1407 328.01C53.3555 328.053 53.5533 328.157 53.71 328.31C54.3851 329.055 54.8895 329.939 55.1883 330.899C55.4871 331.859 55.573 332.873 55.44 333.87C55.3532 334.285 55.1794 334.677 54.93 335.02C56.77 335.34 59.35 334.82 61.58 334.27C61.6457 334.254 61.7138 334.252 61.7805 334.262C61.8472 334.273 61.9111 334.296 61.9687 334.332C62.0263 334.367 62.0764 334.413 62.116 334.468C62.1557 334.522 62.1843 334.584 62.2 334.65C62.2158 334.716 62.2184 334.784 62.2079 334.85C62.1973 334.917 62.1737 334.981 62.1384 335.039C62.1031 335.096 62.0569 335.146 62.0022 335.186C61.9476 335.226 61.8857 335.254 61.82 335.27C59.11 335.94 56.19 336.49 54.13 335.89C53.1244 336.654 51.8931 337.063 50.63 337.05C50.0695 337.043 49.5146 336.938 48.99 336.74C48.7574 337.1 48.4452 337.401 48.0777 337.622C47.7102 337.842 47.297 337.975 46.87 338.01C46.1183 338.107 45.3547 338.042 44.63 337.82C44.3967 338.213 44.0473 338.524 43.63 338.71C43.0937 338.926 42.5181 339.029 41.94 339.01ZM41.08 330.73C40.9417 331.41 40.9691 332.113 41.16 332.78C41.3011 333.58 41.6329 334.333 42.1273 334.978C42.6216 335.622 43.2641 336.137 44 336.48C43.986 336.243 43.9458 336.008 43.88 335.78C43.1 332.92 41.6 330.95 41.08 330.73ZM46.65 329.86C46.6565 330.55 46.7133 331.238 46.82 331.92C46.9303 333.139 47.4688 334.28 48.34 335.14C48.0939 333.294 47.5217 331.506 46.65 329.86ZM52.94 328.99C52.94 328.99 52.56 329.18 52.42 330.85C52.28 332.52 52.57 333.67 53.35 334.34C53.5346 334.49 53.7359 334.617 53.95 334.72C54.213 334.439 54.399 334.094 54.49 333.72C54.6681 332.146 54.2429 330.563 53.3 329.29C53.09 329.03 52.97 328.99 52.94 328.99Z" fill="#263238"/>
<path id="Vector_68" d="M188.31 346.57L191.02 341.87L188.31 337.17H185.41L187.04 341.87L185.41 346.57H188.31Z" fill="#263238"/>
<path id="Vector_69" d="M185.59 344.32C185.256 344.341 184.921 344.294 184.605 344.181C184.29 344.068 184.002 343.891 183.757 343.662C183.513 343.433 183.318 343.156 183.185 342.849C183.052 342.541 182.984 342.21 182.984 341.875C182.984 341.54 183.052 341.209 183.185 340.901C183.318 340.594 183.513 340.317 183.757 340.088C184.002 339.859 184.29 339.682 184.605 339.569C184.921 339.456 185.256 339.409 185.59 339.43L180.99 338.51L179.76 342.23L181.82 345.37L185.59 344.32Z" fill="#263238"/>
<path id="Vector_70" d="M185.99 337.17H180.56L177.85 341.87L180.56 346.57H185.99L188.7 341.87L185.99 337.17ZM183.28 344.32C182.795 344.322 182.32 344.18 181.916 343.912C181.512 343.644 181.196 343.262 181.009 342.815C180.822 342.367 180.772 341.874 180.866 341.398C180.959 340.922 181.192 340.485 181.534 340.141C181.876 339.798 182.313 339.563 182.788 339.468C183.264 339.372 183.757 339.42 184.205 339.606C184.654 339.791 185.037 340.105 185.306 340.508C185.576 340.911 185.72 341.385 185.72 341.87C185.72 342.518 185.463 343.14 185.006 343.599C184.549 344.058 183.928 344.317 183.28 344.32Z" fill="#20BF55"/>
<path id="Vector_71" d="M377.32 336.86L375.31 333.37L377.32 329.88H379.48L378.26 333.37L379.48 336.86H377.32Z" fill="#20BF55"/>
<path id="Vector_72" d="M379.33 335.18C379.58 335.199 379.831 335.165 380.067 335.083C380.303 335 380.52 334.869 380.703 334.699C380.887 334.528 381.033 334.322 381.133 334.093C381.233 333.863 381.285 333.615 381.285 333.365C381.285 333.115 381.233 332.867 381.133 332.637C381.033 332.408 380.887 332.202 380.703 332.031C380.52 331.861 380.303 331.73 380.067 331.647C379.831 331.565 379.58 331.531 379.33 331.55L382.75 330.87L383.66 333.63L382.14 335.96L379.33 335.18Z" fill="#20BF55"/>
<path id="Vector_73" d="M379.04 329.87H383.04L385.04 333.36L383.04 336.85H379.04L377.04 333.36L379.04 329.87ZM381.04 335.18C381.4 335.182 381.753 335.077 382.054 334.878C382.354 334.679 382.589 334.396 382.729 334.063C382.868 333.731 382.905 333.365 382.836 333.011C382.767 332.657 382.595 332.332 382.34 332.077C382.086 331.821 381.762 331.647 381.409 331.576C381.055 331.505 380.689 331.54 380.356 331.678C380.023 331.815 379.738 332.048 379.537 332.348C379.337 332.647 379.23 333 379.23 333.36C379.229 333.599 379.275 333.837 379.366 334.058C379.457 334.279 379.591 334.481 379.76 334.65C379.929 334.819 380.131 334.953 380.352 335.044C380.573 335.135 380.811 335.181 381.05 335.18H381.04Z" fill="#263238"/>
<path id="Vector_74" d="M302.43 341.49H306.95C307.516 341.487 308.058 341.261 308.457 340.86C308.856 340.459 309.08 339.916 309.08 339.35C309.08 338.784 308.856 338.241 308.457 337.84C308.058 337.439 307.516 337.213 306.95 337.21H302.43C301.862 337.21 301.318 337.435 300.917 337.837C300.515 338.238 300.29 338.782 300.29 339.35C300.29 339.918 300.515 340.462 300.917 340.863C301.318 341.265 301.862 341.49 302.43 341.49Z" fill="#263238"/>
<path id="Vector_75" d="M295.16 337.45C295.579 336.687 296.213 336.064 296.983 335.657C297.752 335.249 298.624 335.076 299.491 335.159C300.357 335.241 301.181 335.576 301.86 336.121C302.539 336.666 303.043 337.397 303.312 338.226C303.58 339.054 303.599 339.943 303.368 340.782C303.137 341.621 302.666 342.375 302.012 342.949C301.358 343.524 300.55 343.895 299.688 344.016C298.826 344.137 297.947 344.002 297.16 343.63C296.079 343.072 295.261 342.11 294.887 340.952C294.512 339.794 294.61 338.536 295.16 337.45Z" fill="#20BF55"/>
<path id="Vector_76" d="M296.39 343.629L297.629 344.213L301.936 335.077L300.696 334.493L296.39 343.629Z" fill="#263238"/>
</g>
</g>
</svg>
