<svg width="175" height="177" viewBox="0 0 175 177" fill="none" xmlns="http://www.w3.org/2000/svg">
<path d="M60.7759 68.6424C66.6796 68.6424 71.4655 63.7902 71.4655 57.8047C71.4655 51.8191 66.6796 46.9669 60.7759 46.9669C54.8722 46.9669 50.0863 51.8191 50.0863 57.8047C50.0863 63.7902 54.8722 68.6424 60.7759 68.6424Z" fill="white"/>
<path d="M61.1497 99.989C67.0534 99.989 71.8393 95.136 71.8393 89.151C71.8393 83.1653 67.0534 78.313 61.1497 78.313C55.2459 78.313 50.46 83.1653 50.46 89.151C50.46 95.136 55.2459 99.989 61.1497 99.989Z" fill="white"/>
<path d="M60.7759 131.335C66.6796 131.335 71.4655 126.482 71.4655 120.497C71.4655 114.511 66.6796 109.659 60.7759 109.659C54.8722 109.659 50.0863 114.511 50.0863 120.497C50.0863 126.482 54.8722 131.335 60.7759 131.335Z" fill="white"/>
<path d="M123.866 49.6722L123.861 49.6671C119.353 45.5919 112.439 45.9936 108.42 50.5643L81.8349 80.7948C77.8154 85.3655 78.2115 92.374 82.7198 96.45L82.7254 96.455C87.234 100.53 94.147 100.128 98.166 95.558L124.751 65.3271C128.771 60.7564 128.375 53.7474 123.866 49.6722Z" fill="white"/>
<path d="M123.444 128.723L123.45 128.718C127.987 124.676 128.434 117.67 124.448 113.07L97.406 81.8627C93.42 77.2623 86.5098 76.8092 81.9722 80.8508L81.9666 80.8558C77.429 84.8974 76.9821 91.903 80.9685 96.504L108.01 127.711C111.996 132.311 118.907 132.765 123.444 128.723Z" fill="white"/>
<path d="M52.8811 163.804C52.7948 163.763 52.7075 163.725 52.6192 163.689C50.8333 162.961 48.7578 162.964 47.4696 163.001C45.9047 163.045 44.0856 163.221 42.2081 163.442C40.4314 163.652 38.472 163.918 36.4697 164.191L36.0693 164.245C33.9071 164.539 31.6794 164.84 29.4468 165.102C24.9281 165.634 20.6548 165.975 17.2065 165.823C15.4874 165.748 14.1647 165.556 13.216 165.292C12.4917 165.091 12.1873 164.903 12.1108 164.852C12.0594 164.774 11.8638 164.453 11.6559 163.687C11.3898 162.706 11.199 161.347 11.1238 159.594C10.9729 156.078 11.3105 151.729 11.8344 147.144C12.0934 144.877 12.3898 142.616 12.6797 140.423L12.7346 140.008C13.0028 137.98 13.2648 135.998 13.4709 134.202C13.689 132.299 13.8616 130.463 13.9052 128.887C13.9413 127.583 13.9423 125.519 13.2391 123.748C13.2041 123.661 13.1669 123.573 13.1275 123.487C6.81642 109.718 4.34886 94.4509 5.99741 79.352L0.532974 78.7554L5.99741 79.352C7.64586 64.253 13.3461 49.9083 22.4697 37.8772L18.0873 34.5539L22.4697 37.8772C31.5929 25.8467 43.788 16.5922 57.7221 11.1107C71.6557 5.62945 86.8014 4.12776 101.514 6.7665C116.227 9.40531 129.953 16.0854 141.197 26.0895C152.442 36.0941 160.773 49.0408 165.275 63.5262C169.777 78.0121 170.276 93.4743 166.715 108.229C163.155 122.983 155.675 136.457 145.098 147.185C133.243 159.209 118.042 167.242 101.556 170.211C85.0696 173.18 68.0799 170.945 52.8811 163.804Z" stroke="white" stroke-width="11" stroke-linejoin="round"/>
</svg>
