<svg width="412" height="351" viewBox="0 0 412 351" fill="none" xmlns="http://www.w3.org/2000/svg">
<g id="Robot">
<g id="Background">
<path id="gear1" d="M175.5 123.47L175.95 110.33L167.89 107.69C167.544 103.237 166.821 98.8212 165.73 94.49L172.57 89.49L167.93 77.15L159.47 77.83C157.464 73.8542 155.122 70.0571 152.47 66.48L156.85 59.17L147.85 49.56L140.29 53.43C136.89 50.5241 133.258 47.902 129.43 45.59L130.65 37.19L118.65 31.75L113.15 38.19C108.907 36.8327 104.559 35.8293 100.15 35.19L98.15 26.96L84.97 26.51L82.37 34.58C77.9213 34.9298 73.5095 35.6489 69.18 36.73L64.1 29.93L51.76 34.54L52.44 43C48.4663 45.0363 44.6698 47.4012 41.09 50.07L33.73 45.59L24.08 54.59L27.95 62.19C25.0434 65.5725 22.4337 69.1993 20.15 73.03L11.76 71.77L6.28001 83.77L12.76 89.26C11.3931 93.5004 10.3895 97.8494 9.76001 102.26L1.43001 104.35L0.980011 117.49L9.08001 120.13C9.41506 124.58 10.1344 128.994 11.23 133.32L4.39001 138.32L9.04001 150.67L17.5 149.99C19.5007 153.969 21.8428 157.766 24.5 161.34L20.11 168.65L29.11 178.26L36.67 174.39C40.0606 177.295 43.6864 179.914 47.51 182.22L46.25 190.61L58.25 196.06L63.78 189.62C68.0229 190.99 72.3707 192.01 76.78 192.67L78.78 200.9L91.96 201.35L94.56 193.28C99.0115 192.926 103.426 192.207 107.76 191.13L112.76 197.93L125.1 193.32L124.46 184.86C128.426 182.811 132.222 180.447 135.81 177.79L143.08 182.17L152.73 173.17L148.86 165.57C151.768 162.188 154.377 158.561 156.66 154.73L165.05 155.99L170.53 143.99L164.05 138.49C165.44 134.253 166.46 129.903 167.1 125.49L175.5 123.47ZM86.71 166.04C76.3979 165.692 66.4209 162.293 58.0408 156.273C49.6607 150.254 43.2542 141.884 39.6316 132.223C36.009 122.562 35.3331 112.043 37.6894 101.998C40.0457 91.9528 45.3283 82.832 52.869 75.7894C60.4097 68.7469 69.8697 64.099 80.0524 62.4336C90.2351 60.7683 100.683 62.1604 110.074 66.4338C119.466 70.7072 127.379 77.6699 132.812 86.4412C138.246 95.2124 140.956 105.398 140.6 115.71C140.125 129.53 134.182 142.595 124.076 152.033C113.97 161.471 100.53 166.51 86.71 166.04V166.04Z" fill="#EBEBEB"/>
<path id="gear4" d="M400.43 80.01L403.74 76.92L402.43 74.31C403.429 73.1405 404.329 71.8895 405.12 70.57L408.02 71L409.89 66.86L407.67 64.97C408.148 63.5062 408.499 62.004 408.72 60.48L411.57 59.77L411.71 55.23L408.93 54.33C408.808 52.7924 408.56 51.2673 408.19 49.77L410.54 48.02L408.94 43.77L406.03 44C405.328 42.6293 404.515 41.3183 403.6 40.08L405.11 37.58L402 34.26L399.4 35.59C398.229 34.593 396.978 33.6933 395.66 32.9L396.08 30L391.95 28.11L390.05 30.34C388.583 29.8834 387.082 29.5489 385.56 29.34L384.85 26.5L380.31 26.33L379.4 29.13C377.868 29.2471 376.35 29.4947 374.86 29.87L373.12 27.52L368.86 29.11L369.1 32.03C367.725 32.7249 366.414 33.538 365.18 34.46L362.66 32.95L359.34 36.04L360.63 38.59C359.623 39.7562 358.72 41.0075 357.93 42.33L355.04 41.9L353.16 46.04L355.39 47.94C354.928 49.4016 354.593 50.9006 354.39 52.42L351.53 53.13L351.39 57.67L354.18 58.57C354.294 60.1079 354.538 61.6334 354.91 63.13L352.55 64.87L354.15 69.12L357.07 68.9C357.772 70.2707 358.585 71.5818 359.5 72.82L357.99 75.32L361.1 78.64L363.7 77.31C364.869 78.3103 366.12 79.2101 367.44 80L367.01 82.89L371.15 84.78L373.05 82.56C374.518 83.012 376.019 83.3464 377.54 83.56L378.25 86.4L382.79 86.57L383.7 83.77C385.232 83.6536 386.751 83.4061 388.24 83.03L389.98 85.38L394.24 83.79L394.01 80.87C395.381 80.1741 396.689 79.3611 397.92 78.44L400.43 80.01ZM376.81 60.88C375.937 59.9443 375.361 58.7706 375.155 57.5074C374.948 56.2442 375.122 54.9482 375.652 53.7835C376.183 52.6187 377.047 51.6375 378.135 50.964C379.224 50.2904 380.487 49.9548 381.767 49.9996C383.046 50.0444 384.283 50.4676 385.321 51.2156C386.36 51.9636 387.153 53.0028 387.601 54.2018C388.049 55.4008 388.131 56.7057 387.837 57.9514C387.543 59.1971 386.887 60.3277 385.95 61.2C385.328 61.7861 384.597 62.243 383.797 62.5444C382.998 62.8458 382.147 62.9857 381.293 62.956C380.439 62.9262 379.6 62.7274 378.824 62.3711C378.047 62.0147 377.349 61.5079 376.77 60.88H376.81Z" fill="#EBEBEB"/>
<path id="gear2" d="M279.43 214.93L269.09 207.78C268.076 204.057 266.682 200.448 264.93 197.01L267.58 186.61L252.58 170.55L242.02 172.48C238.707 170.495 235.198 168.857 231.55 167.59V167.59L225.13 156.78L203.13 156.03L195.99 166.37C192.271 167.383 188.666 168.773 185.23 170.52L174.83 167.87L158.77 182.87L160.7 193.41C158.717 196.73 157.082 200.245 155.82 203.9L145.01 210.32L144.26 232.32L154.61 239.46C155.607 243.203 156.998 246.83 158.76 250.28V250.28L156.08 260.59L171.08 276.65L181.57 274.73C184.908 276.717 188.439 278.359 192.11 279.63V279.63L198.52 290.42L220.52 291.18L227.65 280.84C231.402 279.827 235.041 278.433 238.51 276.68L248.85 279.32L264.92 264.32L262.99 253.78C264.979 250.46 266.615 246.941 267.87 243.28V243.28L278.68 236.86L279.43 214.93ZM210.98 248.32C206.096 248.153 201.371 246.542 197.403 243.69C193.435 240.838 190.401 236.873 188.686 232.297C186.971 227.721 186.651 222.739 187.767 217.982C188.883 213.224 191.385 208.904 194.955 205.568C198.526 202.232 203.006 200.03 207.829 199.24C212.651 198.449 217.6 199.107 222.049 201.129C226.498 203.151 230.247 206.447 232.823 210.6C235.399 214.753 236.685 219.576 236.52 224.46C236.291 231.01 233.471 237.202 228.681 241.675C223.89 246.149 217.521 248.539 210.97 248.32H210.98Z" fill="#EBEBEB"/>
<path id="gear3" d="M302.98 152.59H302.91L285.59 152C285.239 151.994 284.896 151.899 284.591 151.724C284.287 151.549 284.032 151.3 283.85 151L279.18 143.15C276.663 142.229 274.228 141.099 271.9 139.77L264.43 141.06C264.082 141.124 263.724 141.098 263.388 140.987C263.052 140.875 262.75 140.68 262.51 140.42L250.68 127.76C250.432 127.498 250.255 127.176 250.168 126.826C250.08 126.475 250.084 126.108 250.18 125.76L252.07 118.35C250.899 115.949 249.942 113.449 249.21 110.88L241.68 105.68C241.388 105.48 241.151 105.208 240.992 104.892C240.833 104.576 240.757 104.224 240.77 103.87L241.36 86.55C241.372 86.2003 241.469 85.8588 241.643 85.5555C241.818 85.2522 242.064 84.9962 242.36 84.81L250.23 80.14C251.138 77.6288 252.265 75.2027 253.6 72.89L252.22 65.36C252.155 65.0104 252.18 64.6502 252.292 64.3128C252.404 63.9754 252.599 63.6717 252.86 63.43L265.52 51.61C265.782 51.3608 266.103 51.183 266.453 51.0937C266.804 51.0044 267.171 51.0066 267.52 51.1L274.96 53C277.355 51.8284 279.848 50.8681 282.41 50.13L287.61 42.6C287.803 42.3009 288.073 42.0588 288.391 41.8989C288.709 41.7389 289.065 41.6668 289.42 41.69L306.73 42.29C307.082 42.2974 307.426 42.3929 307.732 42.5675C308.038 42.7422 308.295 42.9905 308.48 43.29L313.15 51.15C315.649 52.0675 318.065 53.1983 320.37 54.53L327.93 53.14C328.278 53.0753 328.637 53.1001 328.973 53.2121C329.308 53.324 329.61 53.5194 329.85 53.78L341.68 66.44C341.927 66.7033 342.102 67.0251 342.189 67.3751C342.277 67.7251 342.274 68.0916 342.18 68.44L340.28 75.87C341.452 78.2663 342.415 80.7588 343.16 83.32L350.68 88.52C350.972 88.7204 351.209 88.9915 351.368 89.308C351.527 89.6245 351.603 89.976 351.59 90.33L351 107.64C350.988 107.991 350.891 108.334 350.717 108.639C350.542 108.944 350.296 109.202 350 109.39L342.13 114.06C341.216 116.565 340.089 118.988 338.76 121.3L340.14 128.84C340.205 129.188 340.18 129.547 340.068 129.883C339.956 130.218 339.761 130.52 339.5 130.76L326.76 142.59C326.498 142.838 326.176 143.015 325.826 143.102C325.475 143.19 325.108 143.186 324.76 143.09L317.36 141.2C314.949 142.366 312.443 143.326 309.87 144.07L304.72 151.59C304.534 151.887 304.279 152.133 303.975 152.308C303.672 152.482 303.33 152.579 302.98 152.59V152.59ZM286.89 147.82L301.89 148.33L306.89 141.14C307.167 140.72 307.592 140.42 308.08 140.3C310.894 139.53 313.624 138.482 316.23 137.17V137.17C316.684 136.951 317.201 136.898 317.69 137.02L324.69 138.81L335.69 128.56L334.43 121.33C334.333 120.825 334.425 120.301 334.69 119.86C336.175 117.384 337.399 114.76 338.34 112.03C338.499 111.535 338.833 111.115 339.28 110.85L346.81 106.39L347.32 91.39L340.12 86.39C339.741 86.131 339.456 85.7553 339.31 85.32C339.31 85.27 339.31 85.21 339.31 85.15C338.54 82.3859 337.494 79.7059 336.19 77.15C335.959 76.6925 335.902 76.1664 336.03 75.67L337.83 68.59L327.58 57.59L320.39 58.91C319.888 59.001 319.37 58.9087 318.93 58.65C316.449 57.1618 313.822 55.932 311.09 54.98C310.933 54.9298 310.782 54.8627 310.64 54.78C310.352 54.6001 310.112 54.3531 309.94 54.06L305.43 46.51L290.43 45.99L285.43 53.2C285.132 53.6227 284.692 53.9243 284.19 54.05C281.405 54.811 278.704 55.8531 276.13 57.16C275.676 57.3916 275.153 57.4485 274.66 57.32L267.58 55.52L256.58 65.77L257.9 72.94C257.978 73.3923 257.912 73.8577 257.71 74.27L257.61 74.44C256.123 76.9256 254.899 79.56 253.96 82.3C253.794 82.7698 253.469 83.1663 253.04 83.42L245.51 87.89L245 102.89L252.21 107.89C252.621 108.171 252.919 108.589 253.05 109.07C253.8 111.878 254.842 114.6 256.16 117.19C256.231 117.337 256.288 117.492 256.33 117.65C256.405 117.979 256.405 118.321 256.33 118.65L254.53 125.65L264.78 136.65L271.92 135.34C272.419 135.249 272.934 135.341 273.37 135.6C275.87 137.085 278.513 138.315 281.26 139.27C281.756 139.417 282.175 139.75 282.43 140.2L286.89 147.82ZM296.16 128.85C295.79 128.85 295.42 128.85 295.05 128.85C286.737 128.704 278.818 125.28 273.018 119.324C267.217 113.368 264.003 105.361 264.076 97.0474C264.149 88.7335 267.503 80.785 273.408 74.9319C279.313 69.0788 287.291 65.7949 295.605 65.7949C303.919 65.7949 311.897 69.0788 317.802 74.9319C323.707 80.785 327.061 88.7335 327.134 97.0474C327.207 105.361 323.993 113.368 318.192 119.324C312.392 125.28 304.473 128.704 296.16 128.85ZM296.16 69.76C288.896 69.8853 281.975 72.8751 276.904 78.0786C271.833 83.2822 269.023 90.2781 269.086 97.5434C269.149 104.809 272.079 111.755 277.238 116.87C282.398 121.986 289.369 124.856 296.635 124.856C303.901 124.856 310.872 121.986 316.032 116.87C321.191 111.755 324.121 104.809 324.184 97.5434C324.247 90.2781 321.437 83.2822 316.366 78.0786C311.295 72.8751 304.375 69.8853 297.11 69.76H296.16Z" fill="#EBEBEB"/>
<path id="Vector" d="M342.87 27.91L335.7 25.99L333.77 18.82L336.58 16.01L339.55 22.14L345.68 25.11L342.87 27.91Z" fill="#E0E0E0"/>
<path id="Vector_2" d="M343.31 23.11C343.621 22.7994 343.867 22.4307 344.035 22.0249C344.203 21.6192 344.29 21.1842 344.29 20.745C344.29 20.3058 344.203 19.8709 344.035 19.4651C343.867 19.0593 343.621 18.6906 343.31 18.38C342.999 18.0694 342.631 17.8231 342.225 17.655C341.819 17.4869 341.384 17.4004 340.945 17.4004C340.506 17.4004 340.071 17.4869 339.665 17.655C339.259 17.8231 338.891 18.0694 338.58 18.38L342.15 13.02L346.93 15.44L347.98 20.44L343.31 23.11Z" fill="#E0E0E0"/>
<path id="Vector_3" d="M336.01 16.59L341.27 11.33L348.43 13.24L350.36 20.41L345.1 25.67L337.93 23.74L336.01 16.59ZM345.56 20.89C346.028 20.4214 346.347 19.8245 346.476 19.1747C346.605 18.525 346.538 17.8516 346.285 17.2396C346.031 16.6277 345.602 16.1047 345.051 15.7367C344.5 15.3688 343.852 15.1724 343.19 15.1724C342.528 15.1724 341.88 15.3688 341.329 15.7367C340.778 16.1047 340.349 16.6277 340.095 17.2396C339.842 17.8516 339.775 18.525 339.904 19.1747C340.033 19.8245 340.352 20.4214 340.82 20.89C341.454 21.5115 342.307 21.8579 343.194 21.8542C344.082 21.8505 344.932 21.4968 345.56 20.87V20.89Z" fill="#F0F0F0"/>
<path id="Vector_4" d="M49.66 219.3L53.5 218.27L54.54 214.42L53.03 212.91L51.44 216.2L48.15 217.79L49.66 219.3Z" fill="#E0E0E0"/>
<path id="Vector_5" d="M49.43 216.72C49.1291 216.376 48.9701 215.931 48.9853 215.475C49.0004 215.018 49.1885 214.584 49.5115 214.261C49.8345 213.938 50.2682 213.75 50.7247 213.735C51.1812 213.72 51.6264 213.879 51.97 214.18L50.06 211.31L47.43 212.59L46.87 215.29L49.43 216.72Z" fill="#E0E0E0"/>
<path id="Vector_6" d="M53.33 213.21L50.51 210.39L46.66 211.39L45.66 215.24L48.43 218.09L52.28 217.09L53.33 213.21ZM48.21 215.52C48.0246 215.358 47.8745 215.159 47.769 214.936C47.6635 214.714 47.6049 214.472 47.5967 214.225C47.5886 213.979 47.6311 213.734 47.7216 213.505C47.8121 213.275 47.9487 213.067 48.1229 212.893C48.2972 212.719 48.5054 212.582 48.7345 212.492C48.9637 212.401 49.2091 212.359 49.4554 212.367C49.7016 212.375 49.9436 212.434 50.1663 212.539C50.389 212.644 50.5877 212.795 50.75 212.98C51.0509 213.324 51.2099 213.769 51.1947 214.225C51.1796 214.682 50.9915 215.116 50.6685 215.439C50.3456 215.762 49.9119 215.95 49.4554 215.965C48.9988 215.98 48.5537 215.821 48.21 215.52V215.52Z" fill="#F0F0F0"/>
<path id="Vector_7" d="M35.79 8.25001L38.99 11.45C39.3902 11.8433 39.9289 12.0637 40.49 12.0637C41.0511 12.0637 41.5898 11.8433 41.99 11.45V11.45C42.3809 11.0486 42.5997 10.5104 42.5997 9.95C42.5997 9.38966 42.3809 8.85145 41.99 8.45L38.8 5.26C38.3986 4.86906 37.8604 4.6503 37.3 4.6503C36.7397 4.6503 36.2014 4.86906 35.8 5.26V5.26C35.4084 5.65845 35.1881 6.19427 35.1862 6.75297C35.1843 7.31167 35.401 7.84895 35.79 8.25001Z" fill="#F0F0F0"/>
<path id="Vector_8" d="M33.54 0.300001C34.375 0.0678045 35.2597 0.0845028 36.0854 0.348051C36.911 0.6116 37.6418 1.11053 38.1878 1.78357C38.7339 2.45661 39.0716 3.27446 39.1593 4.13671C39.2471 4.99896 39.0812 5.86807 38.6819 6.63734C38.2826 7.4066 37.6674 8.04252 36.9118 8.46702C36.1561 8.89153 35.293 9.08614 34.4283 9.02695C33.5636 8.96775 32.735 8.65734 32.0443 8.13383C31.3536 7.61032 30.8307 6.89649 30.54 6.08C30.3555 5.50357 30.2867 4.89632 30.3378 4.29321C30.3888 3.69011 30.5586 3.10305 30.8375 2.56584C31.1163 2.02863 31.4986 1.55187 31.9624 1.163C32.4263 0.774133 32.9624 0.48084 33.54 0.300001V0.300001Z" fill="#E0E0E0"/>
<path id="Vector_9" d="M30.0599 5.54462L30.523 6.83395L40.0283 3.41933L39.5652 2.13L30.0599 5.54462Z" fill="#F0F0F0"/>
</g>
<g id="Shadow">
<path id="&#60;Path&#62;" d="M209.43 350.15C316.512 350.15 403.32 345.082 403.32 338.83C403.32 332.578 316.512 327.51 209.43 327.51C102.348 327.51 15.54 332.578 15.54 338.83C15.54 345.082 102.348 350.15 209.43 350.15Z" fill="#F5F5F5"/>
</g>
<g id="404">
<path id="Vector_10" d="M88.11 94.17H87.93C83.43 92.42 80.74 90.72 79.34 88.67C78.2441 88.8777 77.1104 88.7232 76.11 88.23C74.9382 87.6565 73.966 86.7436 73.32 85.61C72.9805 85.8706 72.5806 86.0411 72.1575 86.1058C71.7345 86.1705 71.3019 86.1272 70.9 85.98C69.6676 85.5189 68.6159 84.674 67.9 83.57C67.4522 83.9036 66.8955 84.057 66.34 84C63.34 83.76 59.34 77.84 59.05 71.54C59.0471 71.407 59.0952 71.278 59.1845 71.1794C59.2738 71.0808 59.3974 71.0202 59.53 71.01C59.5957 71.0073 59.6613 71.0176 59.7229 71.0403C59.7846 71.063 59.8413 71.0976 59.8895 71.1422C59.9378 71.1868 59.9769 71.2404 60.0044 71.3001C60.032 71.3598 60.0474 71.4243 60.05 71.49C60.33 77.49 64.16 82.82 66.43 83C66.5952 83.0186 66.7624 83.0043 66.922 82.9579C67.0816 82.9116 67.2305 82.8341 67.36 82.73C66.5779 81.3043 66.0868 79.7374 65.9151 78.1203C65.7435 76.5032 65.8947 74.8682 66.36 73.31C67.22 70.31 67.98 69.13 68.9 69.31C70.62 69.74 70.39 76.31 69.48 80.6C69.3421 81.3737 69.057 82.1138 68.64 82.78C69.2295 83.7685 70.1195 84.5428 71.18 84.99C71.4627 85.0976 71.7703 85.1219 72.0663 85.0598C72.3624 84.9978 72.6344 84.8521 72.85 84.64C72.07 82.71 71.85 80.07 72.97 76.71C74.37 72.28 74.97 72.16 75.28 72.08C75.3966 72.0555 75.5177 72.063 75.6304 72.1017C75.743 72.1405 75.8431 72.209 75.92 72.3C76.85 73.35 75.74 80.23 74.58 83.63C74.4442 84.0392 74.2559 84.4291 74.02 84.79C74.5566 85.8716 75.4306 86.7491 76.51 87.29C77.218 87.6343 78.0053 87.7828 78.79 87.72C78.7 87.53 78.62 87.34 78.54 87.14C77.75 84.99 78.14 82.52 79.73 79.56C80.78 77.61 81.64 76.69 82.44 76.69C82.6524 76.6928 82.8595 76.7565 83.0367 76.8735C83.214 76.9905 83.3539 77.1558 83.44 77.35C84.31 78.96 83.68 84.27 81.96 86.91C81.5573 87.5152 80.9972 87.9992 80.34 88.31C81.68 90.07 84.23 91.62 88.34 93.2C88.4017 93.2222 88.4582 93.2566 88.5063 93.301C88.5545 93.3454 88.5932 93.3991 88.6202 93.4587C88.6472 93.5184 88.662 93.5829 88.6637 93.6484C88.6654 93.7139 88.654 93.779 88.63 93.84C88.5912 93.9442 88.5193 94.0328 88.4255 94.0924C88.3316 94.1519 88.2208 94.1792 88.11 94.17ZM82.43 77.7C82.43 77.7 81.86 77.7 80.6 80.05C79.15 82.73 78.78 84.94 79.47 86.8C79.5537 87.0303 79.6539 87.2542 79.77 87.47C80.3117 87.2462 80.7722 86.8624 81.09 86.37C82.49 84.23 83.16 79.83 82.64 78.11C82.57 77.76 82.43 77.7 82.43 77.7ZM75.25 73.49C74.7087 74.6285 74.2606 75.8091 73.91 77.02C73.1431 79.1187 73.0109 81.3967 73.53 83.57L73.62 83.31C74.6701 80.1403 75.2299 76.8288 75.28 73.49H75.25ZM68.67 70.34C68.5 70.49 68.01 71.12 67.32 73.56C66.5039 76.2983 66.7614 79.2447 68.04 81.8C68.2452 81.3529 68.3963 80.8829 68.49 80.4C69.56 75.49 69.26 71.05 68.7 70.34H68.67Z" fill="#263238"/>
<path id="Vector_11" d="M126.13 146.59C124.531 146.605 122.957 146.195 121.57 145.4C121.456 145.331 121.373 145.221 121.339 145.092C121.306 144.963 121.324 144.826 121.39 144.71C121.423 144.654 121.467 144.604 121.519 144.565C121.571 144.526 121.631 144.498 121.694 144.482C121.758 144.466 121.823 144.463 121.888 144.473C121.953 144.483 122.014 144.506 122.07 144.54C125.64 146.63 130.25 145.17 131.2 143.64C131.269 143.544 131.317 143.435 131.343 143.32C131.369 143.205 131.371 143.086 131.35 142.97C129.524 143.075 127.717 142.56 126.22 141.51C123.67 139.92 123.47 139.44 123.49 139.06C123.495 138.951 123.529 138.845 123.589 138.753C123.649 138.662 123.732 138.588 123.83 138.54C124.83 138.04 129.34 140.11 131.22 141.35C131.445 141.5 131.653 141.674 131.84 141.87C132.579 141.702 133.245 141.303 133.74 140.73C134.019 140.402 134.221 140.016 134.33 139.6H134.13C132.53 139.76 130.93 139.07 129.22 137.49C128.04 136.41 127.59 135.66 127.74 135.07C127.785 134.904 127.877 134.755 128.005 134.64C128.133 134.525 128.29 134.448 128.46 134.42C129.84 134.07 133.26 135.53 134.65 137.06C134.96 137.393 135.18 137.799 135.29 138.24C136.6 137.63 137.98 136.24 139.61 133.97C139.648 133.916 139.696 133.87 139.752 133.835C139.808 133.799 139.87 133.775 139.935 133.764C140 133.753 140.067 133.755 140.131 133.77C140.195 133.784 140.256 133.812 140.31 133.85C140.417 133.928 140.489 134.045 140.512 134.176C140.534 134.306 140.505 134.441 140.43 134.55C138.54 137.19 136.96 138.69 135.38 139.3C135.298 140.039 134.995 140.736 134.51 141.3C133.934 141.97 133.177 142.459 132.33 142.71C132.378 142.949 132.377 143.194 132.329 143.433C132.281 143.672 132.186 143.898 132.05 144.1C131.21 145.53 128.79 146.59 126.13 146.59ZM125.24 139.65C125.58 139.9 126.06 140.23 126.75 140.65C127.825 141.375 129.061 141.828 130.35 141.97C128.74 141.005 127.026 140.226 125.24 139.65V139.65ZM128.73 135.4C129.017 135.941 129.416 136.415 129.9 136.79C131.38 138.16 132.73 138.79 134.03 138.63H134.35C134.279 138.319 134.127 138.033 133.91 137.8C132.51 136.22 129.43 135.24 128.73 135.4Z" fill="#263238"/>
<path id="Vector_12" d="M139.37 145.22L123.79 148.05L109.64 70.83L79.58 76.29L30.58 163.29L35.84 192L98.69 180.59L102.99 204.07L133.05 198.59L128.75 175.11L144.33 172.28L139.37 145.22ZM60.52 159.59L86.52 114.02L93.77 153.56L60.52 159.59Z" fill="#20BF55"/>
<path id="Vector_13" d="M264.86 65.59C264.387 60.7357 263.312 55.959 261.66 51.37C259.961 46.9741 257.6 42.8635 254.66 39.18C251.18 34.8946 246.857 31.3686 241.96 28.82C236.627 25.8933 229.553 23.8567 220.74 22.71C202.44 20.3233 188.18 23.57 177.96 32.45C167.74 41.33 161.007 58.33 157.76 83.45C156.464 92.8381 156.129 102.334 156.76 111.79C157.427 120.457 159.02 127.433 161.54 132.72C164.747 139.849 169.806 145.989 176.19 150.5C182.503 154.933 191.17 157.863 202.19 159.29C221.777 161.843 236.3 158.08 245.76 148C255.22 137.92 261.487 120.887 264.56 96.9C265.926 86.5139 266.027 76.0004 264.86 65.59V65.59Z" fill="#20BF55"/>
<path id="Vector_14" d="M211.2 149.02C208.79 148.94 206.2 148.72 203.59 148.38C194.43 147.19 187.35 144.87 182.53 141.49C177.723 138.096 173.923 133.466 171.53 128.09L171.48 127.98C169.56 123.98 168.3 118.23 167.75 110.98C167.167 102.271 167.476 93.526 168.67 84.88C172.24 57.16 179.61 45.59 185.16 40.77C191.64 35.15 200.39 32.61 211.89 33.01C214.25 33.09 216.75 33.3 219.32 33.63C226.7 34.63 232.55 36.23 236.69 38.49C240.267 40.3323 243.434 42.8802 246 45.98C248.245 48.7797 250.049 51.9057 251.35 55.25C252.679 58.9791 253.538 62.8588 253.91 66.8C254.976 76.3498 254.879 85.9937 253.62 95.52C250.85 117.06 245.49 132.2 237.7 140.52C231.92 146.68 223.25 149.52 211.19 149.06L211.2 149.02Z" fill="#263238"/>
<path id="gearinner4" d="M230.77 65.88L230.9 62.09L228.57 61.33C228.471 60.0481 228.263 58.7769 227.95 57.53L229.95 56.07L228.61 52.51L226.17 52.71C225.596 51.5658 224.927 50.472 224.17 49.44L225.43 47.33L222.83 44.56L220.65 45.68C219.675 44.8414 218.631 44.0854 217.53 43.42L217.88 41L214.42 39.43L212.84 41.29C211.616 40.8935 210.362 40.5992 209.09 40.41L208.5 38.04L204.7 37.91L203.95 40.23C202.669 40.3326 201.398 40.5399 200.15 40.85L198.68 38.85L195.12 40.18L195.32 42.62C194.176 43.1943 193.082 43.8633 192.05 44.62L189.95 43.35L187.17 45.94L188.29 48.13C187.449 49.1048 186.696 50.1522 186.04 51.26L183.62 50.89L182.04 54.35L183.91 55.93C183.504 57.1543 183.21 58.4127 183.03 59.69L180.65 60.29L180.52 64.07L182.85 64.83C182.948 66.1154 183.155 67.39 183.47 68.64L181.47 70.09L182.81 73.65L185.25 73.45C185.818 74.5974 186.487 75.6917 187.25 76.72L185.98 78.83L188.58 81.6L190.76 80.49C191.736 81.3254 192.779 82.078 193.88 82.74L193.52 85.16L196.98 86.73L198.57 84.88C199.797 85.2743 201.055 85.5653 202.33 85.75L202.92 88.13L206.71 88.26L207.46 85.93C208.745 85.8324 210.02 85.625 211.27 85.31L212.72 87.31L216.28 85.98L216.09 83.55C217.23 82.9684 218.323 82.2997 219.36 81.55L221.46 82.81L224.24 80.22L223.13 78.03C223.968 77.0585 224.717 76.0144 225.37 74.91L227.79 75.27L229.37 71.81L227.51 70.23C227.908 69.0075 228.199 67.7528 228.38 66.48L230.77 65.88ZM205.17 78.15C202.208 78.0418 199.345 77.0586 196.941 75.3244C194.538 73.5903 192.702 71.1829 191.665 68.4063C190.628 65.6297 190.438 62.6081 191.117 59.7232C191.796 56.8382 193.314 54.219 195.481 52.1963C197.647 50.1736 200.364 48.8379 203.289 48.358C206.213 47.878 209.215 48.2753 211.914 49.4996C214.613 50.7239 216.889 52.7204 218.454 55.237C220.02 57.7537 220.805 60.6777 220.71 63.64C220.647 65.6145 220.194 67.5571 219.378 69.3562C218.562 71.1553 217.399 72.7755 215.955 74.1237C214.511 75.472 212.815 76.5217 210.964 77.2126C209.113 77.9036 207.144 78.2221 205.17 78.15V78.15Z" fill="#20BF55"/>
<path id="gearinner3" opacity="0.3" d="M246.55 135.46L246.83 132.9L245.29 132.28C245.288 131.409 245.214 130.539 245.07 129.68L246.46 128.79L245.75 126.32H244.09C243.762 125.517 243.364 124.744 242.9 124.01L243.84 122.65L242.24 120.65L240.71 121.29C240.09 120.677 239.421 120.115 238.71 119.61L239.08 117.99L236.83 116.75L235.65 117.94C234.846 117.609 234.017 117.345 233.17 117.15L232.89 115.52L230.34 115.23L229.71 116.77C228.841 116.774 227.975 116.854 227.12 117.01L226.23 115.59L223.76 116.32V117.98C222.956 118.312 222.184 118.713 221.45 119.18L220.09 118.18L218.09 119.78L218.73 121.31C218.12 121.931 217.562 122.599 217.06 123.31L215.44 122.95L214.21 125.2L215.39 126.37C215.055 127.175 214.79 128.009 214.6 128.86L212.96 129.13L212.69 131.68L214.22 132.32C214.221 133.185 214.298 134.048 214.45 134.9L213.04 135.79L213.76 138.26H215.43C215.764 139.059 216.165 139.829 216.63 140.56L215.63 141.92L217.23 143.92L218.78 143.27C219.395 143.885 220.065 144.444 220.78 144.94L220.43 146.59L222.68 147.82L223.85 146.65C224.655 146.973 225.484 147.23 226.33 147.42L226.62 149.06L229.17 149.34L229.79 147.81C230.675 147.809 231.557 147.735 232.43 147.59L233.32 149L235.78 148.28V146.62C236.584 146.282 237.36 145.881 238.1 145.42L239.44 146.42L241.44 144.81L240.79 143.28C241.406 142.66 241.971 141.991 242.48 141.28L244.09 141.64L245.33 139.39L244.15 138.23C244.472 137.425 244.729 136.596 244.92 135.75L246.55 135.46ZM233.68 134.46C233.257 135.234 232.614 135.866 231.832 136.274C231.049 136.683 230.164 136.85 229.287 136.755C228.409 136.66 227.58 136.307 226.903 135.741C226.227 135.175 225.734 134.42 225.486 133.573C225.238 132.727 225.247 131.825 225.512 130.984C225.776 130.142 226.285 129.397 226.972 128.845C227.66 128.292 228.496 127.956 229.375 127.878C230.254 127.801 231.136 127.986 231.91 128.41C232.945 128.98 233.711 129.936 234.043 131.07C234.375 132.203 234.244 133.422 233.68 134.46V134.46Z" fill="#20BF55"/>
<path id="gearinner2" d="M260.72 92.24L257.72 90.18C257.425 89.1091 257.023 88.0706 256.52 87.08L257.28 84.08L252.96 79.45L249.96 80.01C249.008 79.4434 248.004 78.9711 246.96 78.6V78.6L245.11 75.48L238.78 75.27L236.72 78.27C235.648 78.5607 234.609 78.9629 233.62 79.47L230.62 78.7L225.99 83.03L226.55 86.03C225.975 86.9774 225.503 87.983 225.14 89.03L222.03 90.88L221.81 97.21L224.81 99.27C225.101 100.349 225.503 101.394 226.01 102.39V102.39L225.25 105.39L229.57 110.02L232.57 109.47C233.522 110.036 234.527 110.508 235.57 110.88V110.88L237.41 113.99L243.75 114.21L245.8 111.21C246.881 110.917 247.93 110.515 248.93 110.01V110.01L251.93 110.77L256.56 106.45L256.01 103.45C256.578 102.499 257.051 101.494 257.42 100.45V100.45L260.53 98.6L260.72 92.24ZM240.99 101.86C239.583 101.812 238.221 101.347 237.078 100.525C235.934 99.7028 235.06 98.5601 234.566 97.2413C234.073 95.9225 233.981 94.4868 234.303 93.1158C234.625 91.7449 235.346 90.5002 236.376 89.5393C237.405 88.5784 238.697 87.9443 240.087 87.7173C241.476 87.4903 242.902 87.6805 244.184 88.264C245.466 88.8474 246.546 89.7979 247.287 90.9951C248.029 92.1923 248.399 93.5826 248.35 94.99C248.282 96.876 247.469 98.6583 246.09 99.946C244.71 101.234 242.876 101.922 240.99 101.86V101.86Z" fill="white"/>
<path id="Vector_15" d="M282.43 41.71L282.95 40.46C283.304 40.2608 283.638 40.0298 283.95 39.77H285.11L286.47 37.77L286.03 36.7C286.198 36.3436 286.332 35.9719 286.43 35.59V35.59L287.43 34.67L287.01 32.32L285.75 31.8C285.553 31.4454 285.321 31.1105 285.06 30.8V29.64L283.11 28.28L282.03 28.73C281.635 28.591 281.226 28.497 280.81 28.45L279.89 27.45L277.55 27.87L277.02 29.13C276.649 29.3224 276.297 29.5501 275.97 29.81V29.81H274.82L273.46 31.81L273.9 32.88C273.766 33.2762 273.672 33.6849 273.62 34.1L272.62 35.03L273.04 37.37L274.3 37.89C274.491 38.2464 274.719 38.5816 274.98 38.89V38.89V40.04L276.98 41.4L278.05 40.96C278.45 41.09 278.862 41.1805 279.28 41.23V41.23L280.2 42.23L282.43 41.71ZM277.43 35.23C277.335 34.7082 277.398 34.1701 277.609 33.6838C277.821 33.1975 278.171 32.7848 278.617 32.498C279.063 32.2112 279.584 32.0631 280.115 32.0725C280.645 32.0819 281.16 32.2484 281.596 32.5509C282.031 32.8534 282.367 33.2783 282.561 33.7718C282.755 34.2653 282.798 34.8053 282.685 35.3234C282.572 35.8415 282.308 36.3144 281.926 36.6822C281.544 37.0501 281.062 37.2964 280.54 37.39C279.842 37.5126 279.123 37.3544 278.541 36.9499C277.958 36.5454 277.559 35.9273 277.43 35.23V35.23Z" fill="#20BF55"/>
<path id="Vector_16" d="M255.04 35.08L254.27 34.43C255.92 32.3834 257.959 30.684 260.27 29.43L260.74 30.31C258.543 31.5064 256.605 33.1278 255.04 35.08V35.08Z" fill="#20BF55"/>
<path id="Vector_17" d="M263.02 29.39L262.63 28.47C266.323 26.8652 270.361 26.2186 274.37 26.59L274.27 27.59C270.428 27.2279 266.557 27.8472 263.02 29.39V29.39Z" fill="#20BF55"/>
<path id="Vector_18" d="M261.13 36.31L260.31 35.75C262.719 32.4966 266.226 30.2265 270.18 29.36L270.37 30.36C266.674 31.167 263.394 33.2796 261.13 36.31V36.31Z" fill="#20BF55"/>
<path id="gearinner1" d="M194.77 132.59C194.634 132.586 194.504 132.528 194.41 132.43L192.32 130.27C191.254 130.173 190.2 129.979 189.17 129.69L185.9 131.13C185.828 131.169 185.747 131.19 185.665 131.19C185.583 131.19 185.502 131.169 185.43 131.13L179.95 127.5C179.879 127.453 179.822 127.389 179.783 127.314C179.745 127.239 179.726 127.155 179.73 127.07V123.51C179.061 122.673 178.472 121.776 177.97 120.83L175.16 119.75C175.081 119.72 175.012 119.67 174.957 119.605C174.903 119.54 174.866 119.463 174.85 119.38L173.55 112.94C173.533 112.858 173.537 112.772 173.561 112.692C173.586 112.612 173.63 112.539 173.69 112.48L175.85 110.39C175.953 109.325 176.147 108.272 176.43 107.24L174.99 103.97C174.951 103.898 174.93 103.817 174.93 103.735C174.93 103.653 174.951 103.572 174.99 103.5L178.62 98.02C178.665 97.9478 178.729 97.8893 178.805 97.8505C178.88 97.8118 178.965 97.7943 179.05 97.8L182.61 97.85C183.444 97.1778 184.342 96.5884 185.29 96.09L186.38 93.28C186.409 93.202 186.457 93.1327 186.52 93.0784C186.583 93.0242 186.659 92.9869 186.74 92.97L193.18 91.67C193.262 91.6518 193.348 91.6552 193.428 91.6797C193.509 91.7042 193.582 91.7491 193.64 91.81L195.73 93.97C196.799 94.0675 197.856 94.2616 198.89 94.55L202.15 93.11C202.224 93.0706 202.306 93.05 202.39 93.05C202.474 93.05 202.556 93.0706 202.63 93.11L208.1 96.74C208.169 96.7886 208.226 96.8529 208.266 96.9276C208.306 97.0022 208.328 97.0853 208.33 97.17L208.27 100.73C208.942 101.566 209.535 102.464 210.04 103.41L212.84 104.5C212.918 104.529 212.987 104.577 213.042 104.64C213.096 104.703 213.133 104.779 213.15 104.86L214.46 111.3C214.475 111.382 214.471 111.467 214.446 111.547C214.422 111.627 214.379 111.7 214.32 111.76L212.15 113.86C212.05 114.922 211.856 115.973 211.57 117L213.01 120.27C213.049 120.344 213.07 120.426 213.07 120.51C213.07 120.594 213.049 120.676 213.01 120.75L209.43 126.18C209.383 126.248 209.32 126.303 209.247 126.342C209.174 126.38 209.093 126.4 209.01 126.4L205.44 126.35C204.603 127.013 203.709 127.602 202.77 128.11L201.68 130.92C201.65 130.999 201.601 131.069 201.536 131.124C201.471 131.178 201.393 131.215 201.31 131.23L194.87 132.59H194.77ZM189.14 128.59C189.186 128.581 189.234 128.581 189.28 128.59C190.36 128.905 191.469 129.109 192.59 129.2C192.71 129.214 192.822 129.267 192.91 129.35L194.91 131.45L200.81 130.26L201.87 127.52C201.919 127.409 202.004 127.318 202.11 127.26C203.109 126.743 204.051 126.123 204.92 125.41C205.012 125.332 205.13 125.293 205.25 125.3L208.72 125.35L212.04 120.35L210.64 117.17C210.6 117.06 210.6 116.94 210.64 116.83C210.949 115.749 211.154 114.64 211.25 113.52C211.26 113.399 211.313 113.285 211.4 113.2L213.5 111.2L212.31 105.3L209.58 104.24C209.463 104.197 209.366 104.111 209.31 104C208.791 103.002 208.171 102.061 207.46 101.19C207.389 101.099 207.35 100.986 207.35 100.87V97.39L202.35 94.07L199.18 95.47C199.067 95.5104 198.943 95.5104 198.83 95.47C197.746 95.157 196.634 94.9527 195.51 94.86C195.39 94.8459 195.278 94.7932 195.19 94.71L193.19 92.61L187.29 93.81L186.24 96.59C186.198 96.7046 186.117 96.8004 186.01 96.86C185.007 97.3752 184.062 97.9953 183.19 98.71C183.147 98.749 183.096 98.7789 183.041 98.7978C182.986 98.8167 182.928 98.8243 182.87 98.82L179.4 98.77L176.07 103.77L177.47 106.95C177.502 107.017 177.519 107.091 177.519 107.165C177.519 107.239 177.502 107.313 177.47 107.38C177.174 108.436 176.98 109.517 176.89 110.61C176.881 110.731 176.827 110.845 176.74 110.93L174.64 112.93L175.84 118.83L178.56 119.89C178.681 119.94 178.781 120.033 178.84 120.15C179.356 121.141 179.972 122.076 180.68 122.94C180.754 123.03 180.793 123.144 180.79 123.26V126.74L185.79 130.06L188.97 128.66C189.022 128.627 189.08 128.603 189.14 128.59V128.59ZM194.05 125.35C191.643 125.348 189.282 124.694 187.217 123.457C185.152 122.22 183.461 120.446 182.323 118.325C181.186 116.204 180.644 113.814 180.756 111.41C180.868 109.005 181.63 106.676 182.96 104.67V104.67C184.232 102.745 185.982 101.184 188.038 100.138C190.095 99.0923 192.387 98.5982 194.692 98.7041C196.997 98.8099 199.234 99.5121 201.186 100.742C203.138 101.972 204.738 103.687 205.828 105.72C206.918 107.753 207.462 110.035 207.407 112.341C207.351 114.648 206.698 116.9 205.511 118.878C204.324 120.857 202.644 122.493 200.635 123.627C198.626 124.762 196.357 125.355 194.05 125.35ZM183.8 105.22C182.454 107.251 181.74 109.635 181.749 112.072C181.758 114.508 182.49 116.887 183.85 118.908C185.211 120.929 187.141 122.501 189.395 123.425C191.65 124.35 194.127 124.585 196.515 124.101C198.903 123.617 201.094 122.436 202.811 120.708C204.528 118.979 205.693 116.78 206.161 114.389C206.628 111.997 206.375 109.521 205.436 107.273C204.496 105.026 202.91 103.107 200.88 101.76C199.534 100.859 198.022 100.233 196.432 99.9193C194.843 99.6054 193.207 99.6094 191.619 99.9311C190.031 100.253 188.523 100.886 187.181 101.794C185.839 102.701 184.69 103.866 183.8 105.22V105.22Z" fill="white"/>
<path id="Vector_19" d="M385.26 154.24L369.56 152.12L379.94 74.31L349.66 70.23L276.21 137.85L272.35 166.78L335.64 175.32L332.48 198.99L362.76 203.07L365.92 179.41L381.62 181.53L385.26 154.24ZM305.84 143.52L344.6 108.19L339.28 148.03L305.84 143.52Z" fill="#20BF55"/>
<path id="Vector_20" d="M353.56 202.33H353.43C353.3 202.306 353.185 202.231 353.11 202.122C353.036 202.014 353.007 201.88 353.03 201.75L376.43 73.81C376.457 73.6815 376.532 73.5682 376.64 73.4937C376.748 73.4192 376.88 73.3893 377.01 73.41C377.14 73.4343 377.255 73.5089 377.33 73.6176C377.404 73.7262 377.433 73.8601 377.41 73.99L354.06 201.92C354.037 202.036 353.974 202.14 353.883 202.214C353.792 202.289 353.678 202.33 353.56 202.33V202.33Z" fill="#263238"/>
<path id="Vector_21" d="M374.26 75.96C374.252 76.1775 374.158 76.3829 373.999 76.531C373.839 76.6792 373.627 76.758 373.41 76.75C373.193 76.742 372.987 76.648 372.839 76.4886C372.691 76.3292 372.612 76.1175 372.62 75.9C372.628 75.6825 372.722 75.4771 372.881 75.3289C373.041 75.1808 373.253 75.102 373.47 75.11C373.687 75.118 373.893 75.212 374.041 75.3714C374.189 75.5308 374.268 75.7425 374.26 75.96Z" fill="#263238"/>
<path id="Vector_22" d="M370.93 93.26C370.924 93.422 370.87 93.5786 370.775 93.71C370.68 93.8414 370.548 93.9416 370.396 93.9981C370.244 94.0546 370.079 94.0647 369.921 94.0273C369.763 93.9898 369.62 93.9065 369.51 93.7877C369.4 93.6689 369.327 93.5201 369.301 93.3601C369.275 93.2 369.297 93.0359 369.365 92.8884C369.432 92.741 369.542 92.6168 369.68 92.5317C369.818 92.4465 369.978 92.4042 370.14 92.41C370.248 92.4139 370.354 92.4389 370.452 92.4837C370.55 92.5286 370.638 92.5923 370.711 92.6712C370.785 92.7502 370.842 92.8428 370.879 92.9438C370.917 93.0449 370.934 93.1523 370.93 93.26Z" fill="#263238"/>
<path id="Vector_23" d="M367.6 110.59C367.596 110.698 367.571 110.804 367.526 110.902C367.481 111 367.418 111.088 367.339 111.161C367.26 111.235 367.167 111.292 367.066 111.329C366.965 111.367 366.858 111.384 366.75 111.38C366.643 111.377 366.537 111.354 366.439 111.31C366.341 111.266 366.253 111.203 366.179 111.125C366.106 111.047 366.049 110.955 366.011 110.855C365.973 110.754 365.956 110.647 365.96 110.54C365.963 110.431 365.987 110.324 366.031 110.225C366.075 110.126 366.139 110.037 366.218 109.962C366.297 109.888 366.39 109.83 366.492 109.792C366.593 109.754 366.702 109.736 366.81 109.74C367.027 109.75 367.231 109.845 367.378 110.004C367.526 110.163 367.606 110.373 367.6 110.59Z" fill="#263238"/>
<path id="Vector_24" d="M361.04 128.59C361.018 128.791 360.922 128.976 360.772 129.111C360.622 129.245 360.427 129.32 360.225 129.32C360.023 129.32 359.828 129.245 359.678 129.111C359.528 128.976 359.432 128.791 359.41 128.59C359.397 128.475 359.409 128.359 359.444 128.25C359.479 128.14 359.537 128.039 359.614 127.953C359.691 127.867 359.785 127.798 359.89 127.751C359.996 127.704 360.11 127.68 360.225 127.68C360.34 127.68 360.454 127.704 360.56 127.751C360.665 127.798 360.759 127.867 360.836 127.953C360.913 128.039 360.971 128.14 361.006 128.25C361.041 128.359 361.053 128.475 361.04 128.59V128.59Z" fill="#263238"/>
<path id="Vector_25" d="M360.93 145.16C360.927 145.268 360.903 145.375 360.859 145.473C360.815 145.572 360.751 145.661 360.672 145.734C360.592 145.808 360.499 145.865 360.398 145.902C360.296 145.939 360.188 145.955 360.08 145.95C359.918 145.944 359.761 145.89 359.63 145.795C359.499 145.7 359.398 145.568 359.342 145.416C359.285 145.264 359.275 145.099 359.313 144.941C359.35 144.783 359.434 144.64 359.552 144.53C359.671 144.42 359.82 144.347 359.98 144.321C360.14 144.295 360.304 144.317 360.452 144.385C360.599 144.452 360.723 144.562 360.808 144.7C360.893 144.838 360.936 144.998 360.93 145.16Z" fill="#263238"/>
<path id="Vector_26" d="M357.6 162.46C357.596 162.623 357.544 162.78 357.45 162.913C357.356 163.046 357.225 163.147 357.073 163.205C356.921 163.264 356.755 163.275 356.597 163.239C356.438 163.202 356.294 163.12 356.183 163.001C356.072 162.883 355.998 162.734 355.971 162.574C355.945 162.413 355.966 162.249 356.034 162.1C356.101 161.952 356.211 161.828 356.349 161.742C356.487 161.657 356.648 161.614 356.81 161.62C357.026 161.628 357.23 161.72 357.378 161.878C357.526 162.035 357.605 162.244 357.6 162.46V162.46Z" fill="#263238"/>
<path id="Vector_27" d="M354.27 179.76C354.262 179.978 354.169 180.185 354.009 180.335C353.85 180.484 353.638 180.565 353.42 180.56C353.312 180.556 353.206 180.531 353.108 180.486C353.01 180.441 352.922 180.378 352.849 180.299C352.775 180.22 352.718 180.127 352.681 180.026C352.643 179.925 352.626 179.818 352.63 179.71C352.633 179.602 352.658 179.496 352.702 179.398C352.746 179.3 352.809 179.211 352.888 179.137C352.966 179.064 353.059 179.006 353.159 178.968C353.26 178.93 353.367 178.912 353.475 178.915C353.583 178.918 353.689 178.943 353.787 178.987C353.885 179.031 353.974 179.094 354.048 179.173C354.121 179.251 354.179 179.344 354.217 179.444C354.255 179.545 354.273 179.652 354.27 179.76V179.76Z" fill="#263238"/>
<path id="Vector_28" d="M350.93 197.07C350.924 197.232 350.87 197.389 350.775 197.52C350.68 197.651 350.548 197.752 350.396 197.808C350.244 197.865 350.079 197.875 349.921 197.837C349.763 197.8 349.62 197.716 349.51 197.598C349.4 197.479 349.327 197.33 349.301 197.17C349.275 197.01 349.297 196.846 349.365 196.698C349.432 196.551 349.542 196.427 349.68 196.342C349.818 196.257 349.978 196.214 350.14 196.22C350.248 196.223 350.355 196.247 350.453 196.291C350.552 196.335 350.641 196.399 350.714 196.478C350.788 196.558 350.845 196.651 350.882 196.752C350.919 196.854 350.935 196.962 350.93 197.07V197.07Z" fill="#263238"/>
<path id="Vector_29" d="M360.22 129.04C360.107 129.04 359.998 129.001 359.911 128.93C359.823 128.859 359.763 128.76 359.74 128.65C359.725 128.586 359.723 128.519 359.735 128.454C359.746 128.389 359.77 128.327 359.805 128.271C359.84 128.215 359.886 128.167 359.94 128.129C359.995 128.091 360.056 128.064 360.12 128.05L362.6 127.52C362.665 127.505 362.732 127.504 362.798 127.516C362.864 127.527 362.926 127.552 362.982 127.589C363.038 127.625 363.086 127.672 363.124 127.727C363.161 127.782 363.187 127.845 363.2 127.91C363.213 127.974 363.214 128.041 363.201 128.105C363.189 128.17 363.163 128.231 363.127 128.286C363.091 128.341 363.044 128.388 362.99 128.424C362.936 128.461 362.874 128.487 362.81 128.5L360.33 129.03L360.22 129.04Z" fill="#263238"/>
<path id="Vector_30" d="M368.51 119.83C367.33 122.89 366.329 126.015 365.51 129.19C364.76 132.72 364.72 140.62 364.72 140.62" fill="#263238"/>
<path id="Vector_31" d="M364.72 141.12C364.587 141.115 364.462 141.059 364.369 140.964C364.276 140.87 364.222 140.743 364.22 140.61C364.22 140.29 364.28 132.61 365.03 129.09C365.844 125.887 366.846 122.735 368.03 119.65C368.05 119.584 368.083 119.523 368.128 119.471C368.173 119.419 368.228 119.376 368.289 119.346C368.351 119.316 368.419 119.299 368.487 119.296C368.556 119.293 368.625 119.304 368.689 119.329C368.753 119.354 368.811 119.392 368.86 119.44C368.909 119.489 368.947 119.547 368.973 119.61C368.998 119.674 369.01 119.743 369.008 119.812C369.006 119.88 368.99 119.948 368.96 120.01C367.782 123.046 366.78 126.148 365.96 129.3C365.23 132.74 365.18 140.54 365.17 140.62C365.171 140.744 365.125 140.865 365.042 140.957C364.958 141.049 364.844 141.108 364.72 141.12Z" fill="#263238"/>
</g>
<g id="Character">
<path id="Vector_32" d="M181.88 227.43C183.27 205.03 180.72 164.3 222.83 169.7C267.96 175.47 255.05 228.25 255.05 228.25L181.88 227.43Z" fill="#263238"/>
<path id="Vector_33" d="M210.95 213.97C221.101 213.97 229.33 205.741 229.33 195.59C229.33 185.439 221.101 177.21 210.95 177.21C200.799 177.21 192.57 185.439 192.57 195.59C192.57 205.741 200.799 213.97 210.95 213.97Z" fill="white"/>
<path id="eyelid" d="M213.36 177.24C204.65 175.76 195.36 182.17 194.43 188.67L228.94 191.85C227.72 184.44 220.26 178.42 213.36 177.24Z" fill="#263238"/>
<path id="eye" d="M225.01 195.13C224.76 199.94 222.14 203.71 219.16 203.55C216.18 203.39 213.96 199.38 214.16 194.55C214.36 189.72 217.03 185.97 220.01 186.13C222.99 186.29 225.25 190.33 225.01 195.13Z" fill="#263238"/>
<path id="Vector_34" d="M210.94 214.97C207.107 214.97 203.36 213.833 200.173 211.704C196.986 209.574 194.502 206.548 193.035 203.006C191.568 199.465 191.185 195.568 191.932 191.809C192.68 188.05 194.526 184.597 197.236 181.886C199.947 179.176 203.4 177.33 207.159 176.582C210.919 175.835 214.815 176.218 218.356 177.685C221.898 179.152 224.924 181.636 227.054 184.823C229.183 188.01 230.32 191.757 230.32 195.59C230.315 200.728 228.271 205.655 224.638 209.288C221.005 212.921 216.078 214.965 210.94 214.97V214.97ZM210.94 178.22C207.502 178.22 204.142 179.24 201.283 181.15C198.425 183.06 196.197 185.775 194.882 188.951C193.567 192.128 193.223 195.623 193.895 198.994C194.566 202.366 196.222 205.463 198.654 207.893C201.086 210.323 204.183 211.978 207.555 212.647C210.928 213.317 214.422 212.971 217.598 211.654C220.774 210.337 223.487 208.108 225.396 205.249C227.304 202.389 228.322 199.028 228.32 195.59C228.315 190.983 226.482 186.567 223.223 183.31C219.965 180.053 215.547 178.223 210.94 178.22V178.22Z" fill="#20BF55"/>
<path id="Vector_35" opacity="0.3" d="M249.92 226.87H249.8C249.736 226.856 249.675 226.829 249.621 226.791C249.568 226.753 249.522 226.705 249.488 226.649C249.453 226.593 249.43 226.53 249.42 226.465C249.41 226.4 249.414 226.334 249.43 226.27C249.43 226.14 252.65 212.58 249.34 198.87C249.308 198.737 249.33 198.598 249.402 198.481C249.473 198.365 249.587 198.282 249.72 198.25C249.853 198.218 249.992 198.24 250.109 198.312C250.225 198.383 250.308 198.497 250.34 198.63C253.71 212.63 250.46 226.37 250.43 226.5C250.4 226.611 250.334 226.708 250.241 226.775C250.148 226.843 250.035 226.876 249.92 226.87V226.87Z" fill="white"/>
<path id="Vector_36" opacity="0.3" d="M247.13 191.35C247.034 191.349 246.94 191.321 246.859 191.27C246.778 191.219 246.712 191.146 246.67 191.06C245.427 188.313 243.834 185.738 241.93 183.4C241.847 183.298 241.808 183.167 241.821 183.036C241.834 182.905 241.899 182.784 242 182.7C242.051 182.657 242.11 182.625 242.173 182.606C242.237 182.586 242.304 182.58 242.37 182.586C242.436 182.593 242.5 182.612 242.558 182.644C242.617 182.675 242.668 182.718 242.71 182.77C244.661 185.176 246.297 187.82 247.58 190.64C247.609 190.699 247.625 190.763 247.628 190.828C247.632 190.894 247.622 190.959 247.599 191.021C247.577 191.082 247.543 191.139 247.498 191.187C247.453 191.235 247.4 191.273 247.34 191.3C247.274 191.331 247.203 191.348 247.13 191.35V191.35Z" fill="white"/>
<path id="Vector_37" d="M88.16 332.51H87.79C86.4639 332.473 85.2069 331.91 84.2955 330.947C83.3841 329.983 82.8929 328.696 82.93 327.37C82.9672 326.044 83.5296 324.787 84.4935 323.875C85.4574 322.964 86.7439 322.473 88.07 322.51H88.16C91.05 322.51 98 319 112.54 296.08C112.926 295.471 113.439 294.953 114.044 294.561C114.649 294.169 115.331 293.913 116.045 293.809C116.758 293.706 117.485 293.758 118.176 293.961C118.868 294.165 119.507 294.516 120.05 294.99C131.469 304.806 143.922 313.35 157.19 320.47C157.804 320.749 158.355 321.15 158.81 321.648C159.265 322.146 159.615 322.73 159.838 323.367C160.062 324.003 160.154 324.679 160.109 325.352C160.065 326.025 159.884 326.682 159.579 327.283C159.274 327.885 158.85 328.419 158.333 328.852C157.817 329.286 157.217 329.61 156.572 329.806C155.926 330.002 155.248 330.065 154.577 329.992C153.907 329.919 153.258 329.711 152.67 329.38C140.339 322.827 128.683 315.077 117.87 306.24C105.68 324.59 96.64 332.51 88.16 332.51Z" fill="#263238"/>
<path id="Vector_38" d="M119.1 294.09H118.67C117.884 293.976 117.176 293.555 116.699 292.92C116.223 292.284 116.019 291.486 116.13 290.7C116.84 285.7 115.96 267.07 109.65 252.57C109.37 251.929 109.323 251.211 109.516 250.539C109.71 249.867 110.132 249.284 110.71 248.89C124.41 239.56 153.59 238.44 154.83 238.4C155.224 238.387 155.617 238.451 155.986 238.59C156.355 238.729 156.693 238.939 156.981 239.208C157.269 239.477 157.5 239.801 157.663 240.16C157.826 240.518 157.917 240.906 157.93 241.3C157.943 241.694 157.879 242.087 157.74 242.456C157.601 242.825 157.391 243.163 157.122 243.451C156.853 243.738 156.529 243.97 156.17 244.133C155.812 244.296 155.424 244.387 155.03 244.4C154.76 244.4 129.25 245.4 116.15 252.6C121.73 267.04 123 285.03 122.07 291.54C121.962 292.25 121.603 292.898 121.058 293.366C120.513 293.834 119.818 294.091 119.1 294.09Z" fill="#263238"/>
<path id="Vector_39" d="M124.14 290.21C122.14 285.5 113.14 286.03 107.87 290.07C105.05 292.22 101.23 298.71 100.87 301.07C100.75 301.631 100.768 302.212 100.922 302.765C101.077 303.317 101.363 303.823 101.757 304.24C102.15 304.658 102.639 304.973 103.181 305.159C103.724 305.345 104.303 305.397 104.87 305.31C108.32 305.01 113.05 300 113.05 300C109.9 303.09 113.97 305.27 120.05 300.8C123.37 298.31 126.37 295.48 124.14 290.21Z" fill="#20BF55"/>
<path id="Vector_40" d="M296.14 228.75C296.094 228.76 296.046 228.76 296 228.75C295.936 228.733 295.877 228.703 295.825 228.662C295.773 228.621 295.73 228.57 295.698 228.512C295.666 228.455 295.646 228.391 295.64 228.325C295.633 228.259 295.64 228.193 295.66 228.13C296.99 223.49 298.44 220.66 300.35 219.13C300.051 218.054 300.107 216.911 300.51 215.87C300.976 214.655 301.799 213.609 302.87 212.87C302.579 212.555 302.372 212.172 302.269 211.756C302.166 211.34 302.17 210.904 302.28 210.49C302.642 209.237 303.391 208.131 304.42 207.33C304.049 206.915 303.846 206.377 303.85 205.82C303.85 202.82 309.36 198.3 315.61 197.44C315.743 197.421 315.877 197.456 315.984 197.537C316.091 197.618 316.161 197.737 316.18 197.87C316.199 198.003 316.164 198.137 316.083 198.244C316.002 198.351 315.883 198.421 315.75 198.44C309.81 199.25 304.83 203.55 304.85 205.82C304.848 206.158 304.977 206.485 305.21 206.73C306.555 205.818 308.069 205.183 309.662 204.862C311.255 204.54 312.897 204.54 314.49 204.86C317.56 205.45 318.81 206.1 318.67 207.03C318.39 208.78 311.86 209.15 307.48 208.63C306.695 208.559 305.932 208.338 305.23 207.98C304.287 208.651 303.586 209.609 303.23 210.71C303.144 211.001 303.145 211.312 303.232 211.603C303.319 211.894 303.488 212.153 303.72 212.35C305.58 211.35 308.19 210.99 311.64 211.75C316.17 212.75 316.34 213.3 316.45 213.63C316.485 213.747 316.488 213.871 316.458 213.989C316.428 214.107 316.367 214.214 316.28 214.3C315.33 215.3 308.38 214.83 304.89 213.97C304.469 213.874 304.062 213.723 303.68 213.52C302.647 214.148 301.852 215.101 301.42 216.23C301.131 216.96 301.052 217.757 301.19 218.53C301.368 218.424 301.552 218.327 301.74 218.24C303.81 217.24 306.31 217.42 309.4 218.74C311.4 219.61 312.4 220.39 312.5 221.18C312.504 221.383 312.454 221.583 312.353 221.759C312.253 221.935 312.107 222.08 311.93 222.18C310.4 223.18 305.06 223.04 302.28 221.56C301.641 221.213 301.108 220.697 300.74 220.07C299.11 221.57 297.79 224.24 296.59 228.43C296.554 228.521 296.492 228.599 296.412 228.656C296.332 228.713 296.238 228.745 296.14 228.75V228.75ZM301.56 219.42C301.838 219.937 302.263 220.362 302.78 220.64C305.04 221.84 309.48 222.11 311.14 221.44C311.48 221.3 311.53 221.19 311.53 221.19C311.53 221.19 311.48 220.63 309.03 219.58C306.23 218.38 304.03 218.21 302.2 219.06C301.979 219.166 301.766 219.287 301.56 219.42V219.42ZM304.9 212.85L305.15 212.92C308.406 213.67 311.758 213.923 315.09 213.67C313.908 213.232 312.69 212.897 311.45 212.67C309.296 212.087 307.018 212.149 304.9 212.85V212.85ZM306.16 207.23C306.622 207.395 307.102 207.503 307.59 207.55C312.59 208.14 316.98 207.45 317.59 206.82C317.42 206.67 316.75 206.24 314.27 205.77C311.479 205.213 308.581 205.735 306.16 207.23V207.23Z" fill="#263238"/>
<path id="Vector_41" d="M165.96 330.84C166.62 330.63 166.4 329.99 165.66 329.99H152.12C126.34 327.26 108.33 330.92 119.68 331.78C131.03 332.64 118.88 332.46 110.59 335.6C102.3 338.74 172.24 339.53 178.59 335.6C184.43 331.98 156.82 333.77 165.96 330.84Z" fill="#263238"/>
<path id="Vector_42" d="M262.9 334.83L145.1 330.93L140.21 216.7L279.32 219.81L262.9 334.83Z" fill="#20BF55"/>
<path id="Vector_43" d="M181.88 332.64C181.754 332.64 181.633 332.593 181.54 332.508C181.447 332.423 181.39 332.306 181.38 332.18L171.94 217.46C171.932 217.328 171.975 217.198 172.061 217.097C172.147 216.996 172.268 216.933 172.4 216.92C172.532 216.914 172.66 216.958 172.761 217.044C172.861 217.129 172.925 217.249 172.94 217.38L182.43 332.1C182.435 332.166 182.428 332.232 182.408 332.295C182.388 332.357 182.355 332.416 182.312 332.466C182.27 332.516 182.217 332.557 182.159 332.587C182.1 332.617 182.036 332.635 181.97 332.64H181.88Z" fill="#263238"/>
<path id="Vector_44" d="M262.9 334.83L294.56 330.01L304.54 223.8L279.32 219.81L262.9 334.83Z" fill="#20BF55"/>
<path id="Vector_45" opacity="0.2" d="M262.9 334.83L294.56 330.01L304.54 223.8L279.32 219.81L262.9 334.83Z" fill="black"/>
<path id="Vector_46" d="M155.16 308.91L152.26 241.04C152.188 239.363 152.462 237.69 153.063 236.123C153.664 234.556 154.58 233.129 155.754 231.93C156.928 230.732 158.336 229.786 159.89 229.153C161.445 228.52 163.112 228.213 164.79 228.25L252.85 230.25C254.584 230.289 256.29 230.695 257.855 231.442C259.421 232.189 260.81 233.259 261.932 234.582C263.054 235.905 263.882 237.451 264.363 239.117C264.843 240.784 264.965 242.533 264.72 244.25L254.96 312.59C254.538 315.583 253.025 318.315 250.713 320.262C248.401 322.209 245.451 323.234 242.43 323.14L167.04 320.64C163.945 320.545 161.001 319.282 158.797 317.107C156.594 314.931 155.295 312.003 155.16 308.91V308.91Z" fill="#263238"/>
<path id="Vector_47" d="M164.68 249.08L178.3 249.51L178.19 253.02L169.66 252.75L169.58 255.37L177.49 255.62L177.38 258.98L169.47 258.72L169.37 261.97L178.14 262.25L178.02 265.97L164.15 265.53L164.68 249.08Z" fill="white"/>
<path id="Vector_48" d="M180.83 266.06L181.35 249.61L189.83 249.88C191.046 249.874 192.256 250.049 193.42 250.4C194.245 250.676 194.951 251.227 195.42 251.96C195.768 252.494 196.001 253.094 196.107 253.722C196.213 254.35 196.188 254.994 196.034 255.612C195.88 256.23 195.601 256.81 195.213 257.316C194.825 257.821 194.337 258.241 193.78 258.55C193.211 258.843 192.601 259.045 191.97 259.15C192.435 259.3 192.876 259.515 193.28 259.79C193.572 260.061 193.833 260.363 194.06 260.69C194.318 261.001 194.545 261.336 194.74 261.69L197.05 266.54L191.31 266.35L188.75 261.24C188.547 260.752 188.248 260.31 187.87 259.94C187.511 259.68 187.083 259.534 186.64 259.52H186.19L185.98 266.19L180.83 266.06ZM186.25 256.44L188.39 256.51C188.844 256.482 189.296 256.419 189.74 256.32C190.075 256.269 190.378 256.094 190.59 255.83C190.806 255.563 190.929 255.233 190.94 254.89C190.959 254.661 190.927 254.431 190.845 254.217C190.764 254.002 190.636 253.809 190.47 253.65C189.912 253.289 189.253 253.118 188.59 253.16L186.35 253.09L186.25 256.44Z" fill="white"/>
<path id="Vector_49" d="M198.71 266.59L199.23 250.14L207.7 250.41C208.916 250.403 210.126 250.578 211.29 250.93C212.117 251.203 212.824 251.755 213.29 252.49C213.798 253.291 214.036 254.234 213.97 255.18C213.973 255.978 213.76 256.762 213.353 257.449C212.946 258.135 212.361 258.699 211.66 259.08C211.091 259.371 210.48 259.573 209.85 259.68C210.312 259.829 210.75 260.045 211.15 260.32C211.449 260.583 211.714 260.882 211.94 261.21C212.196 261.523 212.423 261.857 212.62 262.21L214.93 267.05L209.19 266.87L206.63 261.76C206.425 261.273 206.126 260.831 205.75 260.46C205.393 260.19 204.958 260.043 204.51 260.04H204.07L203.85 266.72L198.71 266.59ZM204.12 256.97L206.27 257.03C206.725 257.013 207.177 256.952 207.62 256.85C207.953 256.801 208.253 256.625 208.46 256.36C208.684 256.098 208.808 255.765 208.81 255.42C208.832 255.192 208.802 254.962 208.722 254.747C208.642 254.533 208.515 254.339 208.35 254.18C207.792 253.81 207.127 253.638 206.46 253.69L204.23 253.62L204.12 256.97Z" fill="white"/>
<path id="Vector_50" d="M215.75 258.95C215.673 257.802 215.851 256.651 216.271 255.58C216.692 254.509 217.344 253.545 218.182 252.756C219.019 251.967 220.021 251.374 221.115 251.018C222.209 250.663 223.369 250.554 224.51 250.7C225.662 250.662 226.809 250.856 227.885 251.27C228.96 251.684 229.941 252.309 230.77 253.11C231.51 253.962 232.068 254.955 232.412 256.029C232.756 257.104 232.878 258.237 232.77 259.36C232.778 260.994 232.394 262.606 231.65 264.06C230.976 265.25 229.968 266.217 228.75 266.84C227.315 267.526 225.727 267.829 224.14 267.72C222.558 267.733 220.993 267.392 219.56 266.72C218.34 266.058 217.345 265.049 216.7 263.82C215.944 262.314 215.615 260.63 215.75 258.95V258.95ZM220.83 259.13C220.68 260.391 220.966 261.664 221.64 262.74C221.955 263.092 222.338 263.377 222.766 263.578C223.194 263.778 223.658 263.891 224.13 263.909C224.602 263.926 225.073 263.849 225.514 263.681C225.956 263.513 226.359 263.257 226.7 262.93C227.441 261.807 227.793 260.472 227.7 259.13C227.834 257.925 227.54 256.711 226.87 255.7C226.567 255.351 226.192 255.071 225.771 254.879C225.35 254.687 224.893 254.589 224.43 254.59C223.963 254.556 223.495 254.629 223.06 254.802C222.626 254.975 222.236 255.245 221.92 255.59C221.163 256.611 220.778 257.86 220.83 259.13V259.13Z" fill="white"/>
<path id="Vector_51" d="M235.34 267.8L235.86 251.34L244.33 251.61C245.546 251.608 246.755 251.783 247.92 252.13C248.743 252.411 249.448 252.96 249.92 253.69C250.425 254.492 250.663 255.434 250.6 256.38C250.605 257.18 250.392 257.966 249.986 258.654C249.579 259.343 248.993 259.908 248.29 260.29C247.718 260.573 247.109 260.772 246.48 260.88C246.943 261.032 247.381 261.251 247.78 261.53C248.079 261.793 248.344 262.092 248.57 262.42C248.828 262.731 249.055 263.066 249.25 263.42L251.56 268.27L245.82 268.09L243.26 262.97C243.056 262.485 242.757 262.046 242.38 261.68C242.021 261.412 241.588 261.261 241.14 261.25H240.7L240.48 267.93L235.34 267.8ZM240.75 258.17L242.9 258.24C243.355 258.223 243.807 258.162 244.25 258.06C244.581 258.007 244.881 257.832 245.09 257.57C245.326 257.291 245.451 256.935 245.44 256.57C245.462 256.344 245.431 256.115 245.352 255.902C245.272 255.689 245.145 255.497 244.98 255.34C244.422 254.97 243.757 254.798 243.09 254.85L240.86 254.78L240.75 258.17Z" fill="white"/>
<path id="Vector_52" d="M243.43 295.75C243.242 295.754 243.056 295.717 242.884 295.643C242.711 295.569 242.557 295.459 242.43 295.32L233.87 285.95L224.63 294.39C224.374 294.625 224.035 294.748 223.688 294.733C223.342 294.718 223.015 294.566 222.78 294.31L214.22 284.94L204.98 293.38C204.724 293.615 204.385 293.738 204.038 293.723C203.692 293.708 203.365 293.556 203.13 293.3L194.56 283.93L185.33 292.37C185.195 292.492 185.037 292.585 184.865 292.644C184.693 292.702 184.511 292.725 184.33 292.71C183.983 292.689 183.657 292.535 183.42 292.28L174.86 282.92L165.63 291.35C165.372 291.585 165.032 291.709 164.684 291.694C164.335 291.679 164.007 291.526 163.77 291.27C163.653 291.143 163.563 290.994 163.504 290.832C163.445 290.67 163.419 290.498 163.428 290.326C163.436 290.154 163.479 289.985 163.553 289.83C163.627 289.674 163.731 289.535 163.86 289.42L174.06 280.09C174.318 279.855 174.658 279.731 175.007 279.746C175.355 279.761 175.683 279.914 175.92 280.17L184.48 289.54L193.71 281.1C193.972 280.87 194.312 280.748 194.66 280.76C195.008 280.779 195.335 280.933 195.57 281.19L204.13 290.56L213.37 282.12C213.496 282.003 213.644 281.911 213.806 281.852C213.968 281.792 214.14 281.765 214.312 281.773C214.484 281.78 214.653 281.822 214.809 281.895C214.965 281.969 215.104 282.072 215.22 282.2L223.78 291.57L233.02 283.13C233.276 282.895 233.615 282.772 233.962 282.787C234.308 282.802 234.635 282.954 234.87 283.21L244.43 293.59C244.601 293.781 244.712 294.017 244.751 294.271C244.79 294.524 244.754 294.783 244.648 295.016C244.542 295.25 244.37 295.447 244.154 295.584C243.938 295.722 243.686 295.793 243.43 295.79V295.75Z" fill="white"/>
<path id="Vector_53" d="M85.18 337.26L78.93 334.27L73.34 307.11L76.37 303.77L85.18 337.26Z" fill="#20BF55"/>
<path id="Vector_54" d="M85.18 337.26L93.49 332.41L86.37 310.02L76.37 303.77L85.18 337.26Z" fill="#20BF55"/>
<path id="Vector_55" opacity="0.2" d="M85.18 337.26L93.49 332.41L86.37 310.02L76.37 303.77L85.18 337.26Z" fill="black"/>
<path id="Vector_56" d="M221.43 342.2H220.74C219.414 342.164 218.156 341.603 217.244 340.64C216.332 339.677 215.839 338.391 215.875 337.065C215.911 335.739 216.472 334.481 217.435 333.569C218.398 332.657 219.684 332.164 221.01 332.2C228.71 332.45 245.01 327.72 254.33 318.68C254.893 318.128 255.578 317.717 256.33 317.48C272.12 312.74 277.99 322.31 278.23 322.72L269.63 327.81C269.66 327.874 269.697 327.934 269.74 327.99C269.65 327.86 267.41 324.99 260.29 326.75C248.6 337.41 230.66 342.2 221.43 342.2Z" fill="#263238"/>
<path id="Vector_57" d="M220.83 348.84L202.62 347.7L201.18 314.12L225.66 315.04L220.83 348.84Z" fill="#20BF55"/>
<path id="Vector_58" d="M220.83 348.84L225.09 344.61L227.72 323.67L225.66 315.04L220.83 348.84Z" fill="#20BF55"/>
<path id="Vector_59" opacity="0.2" d="M220.83 348.84L225.09 344.61L227.72 323.67L225.66 315.04L220.83 348.84Z" fill="black"/>
<path id="Vector_60" d="M326.34 336.13C325.686 336.129 325.051 335.915 324.53 335.52C314.13 327.62 300.08 313.59 294.69 300.06C294.609 299.864 294.552 299.659 294.52 299.45C291.89 283.81 289.38 250.9 289.27 249.51C289.24 249.116 289.289 248.72 289.412 248.345C289.536 247.97 289.732 247.622 289.99 247.323C290.51 246.718 291.249 246.345 292.045 246.285C292.841 246.225 293.627 246.484 294.232 247.005C294.837 247.525 295.21 248.264 295.27 249.06C295.27 249.39 297.84 282.62 300.4 298.13C305.78 311.29 320.4 324.8 328.18 330.74C328.681 331.12 329.05 331.648 329.234 332.249C329.419 332.85 329.41 333.494 329.209 334.09C329.008 334.686 328.625 335.203 328.113 335.569C327.602 335.935 326.989 336.131 326.36 336.13H326.34Z" fill="#263238"/>
<path id="Vector_61" d="M340.21 337.64C337.89 337.64 335.26 336.59 332.39 334.52C331.746 334.053 331.313 333.35 331.187 332.564C331.062 331.778 331.253 330.974 331.72 330.33C332.187 329.686 332.89 329.253 333.676 329.127C334.462 329.002 335.266 329.193 335.91 329.66C338.39 331.45 339.74 331.66 340.21 331.66C341.006 331.66 341.769 331.976 342.331 332.539C342.894 333.101 343.21 333.864 343.21 334.66C343.21 335.456 342.894 336.219 342.331 336.781C341.769 337.344 341.006 337.66 340.21 337.66V337.64Z" fill="#263238"/>
<path id="Vector_62" d="M333.23 334.43C336.44 324.9 349.6 326.78 354.14 328.2C358.018 329.326 361.738 330.939 365.21 333C367.66 334.6 367.7 337.29 364.43 338.82C360.43 340.7 350.27 339.03 350.27 339.03C355.51 341.32 350.27 345.03 341.06 341.39C338.07 340.21 332.1 337.93 333.23 334.43Z" fill="#20BF55"/>
<path id="Vector_63" d="M301.29 253.59C300.1 261.69 293.39 267.66 287.93 266.86C282.47 266.06 282.25 258.86 283.44 250.72C284.63 242.58 286.79 236.72 292.25 237.52C297.71 238.32 302.48 245.52 301.29 253.59Z" fill="#263238"/>
<path id="Vector_64" d="M169.31 221.29C169.763 221.29 170.13 220.923 170.13 220.47C170.13 220.017 169.763 219.65 169.31 219.65C168.857 219.65 168.49 220.017 168.49 220.47C168.49 220.923 168.857 221.29 169.31 221.29Z" fill="#263238"/>
<path id="Vector_65" d="M177.64 226.37C177.64 226.532 177.592 226.691 177.502 226.826C177.412 226.96 177.284 227.065 177.134 227.128C176.984 227.19 176.819 227.206 176.66 227.174C176.501 227.143 176.355 227.065 176.24 226.95C176.126 226.835 176.047 226.689 176.016 226.53C175.984 226.371 176 226.206 176.062 226.056C176.124 225.906 176.23 225.778 176.364 225.688C176.499 225.598 176.658 225.55 176.82 225.55C177.037 225.55 177.246 225.636 177.4 225.79C177.554 225.944 177.64 226.153 177.64 226.37Z" fill="#263238"/>
<path id="Vector_66" d="M178.56 323.27C178.56 323.432 178.512 323.591 178.422 323.726C178.332 323.86 178.204 323.966 178.054 324.028C177.904 324.09 177.739 324.106 177.58 324.074C177.421 324.043 177.275 323.965 177.16 323.85C177.046 323.735 176.967 323.589 176.936 323.43C176.904 323.271 176.92 323.106 176.982 322.956C177.044 322.806 177.15 322.678 177.284 322.588C177.419 322.498 177.578 322.45 177.74 322.45C177.957 322.45 178.166 322.536 178.32 322.69C178.474 322.844 178.56 323.053 178.56 323.27V323.27Z" fill="#263238"/>
<path id="Vector_67" d="M186.07 329.18C186.07 329.342 186.022 329.501 185.932 329.636C185.842 329.77 185.714 329.876 185.564 329.938C185.414 330 185.249 330.016 185.09 329.984C184.931 329.953 184.785 329.875 184.67 329.76C184.556 329.645 184.477 329.499 184.446 329.34C184.414 329.181 184.43 329.016 184.492 328.866C184.555 328.716 184.66 328.588 184.794 328.498C184.929 328.408 185.088 328.36 185.25 328.36C185.468 328.36 185.676 328.446 185.83 328.6C185.984 328.754 186.07 328.963 186.07 329.18Z" fill="#263238"/>
</g>
<g id="RobotParts">
<path id="Vector_68" d="M41.94 339.01C40.5004 338.943 39.0942 338.553 37.8255 337.869C36.5568 337.185 35.4579 336.225 34.61 335.06C34.5684 335.006 34.5382 334.945 34.5212 334.879C34.5042 334.814 34.5007 334.745 34.511 334.678C34.5212 334.611 34.545 334.547 34.5809 334.489C34.6168 334.432 34.6641 334.382 34.7198 334.343C34.7755 334.304 34.8385 334.277 34.905 334.264C34.9715 334.25 35.04 334.25 35.1065 334.264C35.1729 334.278 35.2358 334.305 35.2915 334.344C35.3471 334.383 35.3942 334.432 35.43 334.49C37.3 337.19 41.43 338.62 43.23 337.77C43.4103 337.694 43.571 337.577 43.7 337.43C42.7905 337.03 41.9936 336.412 41.3796 335.63C40.7657 334.849 40.3537 333.928 40.18 332.95C39.95 331.68 39.77 329.95 40.81 329.73C42.25 329.41 44.13 332.88 44.81 335.51C44.9332 335.945 44.9772 336.399 44.94 336.85C45.5168 337.022 46.1235 337.07 46.72 336.99C46.9888 336.969 47.2504 336.893 47.488 336.765C47.7256 336.638 47.934 336.462 48.1 336.25C47.4419 335.753 46.896 335.124 46.4979 334.402C46.0999 333.679 45.8586 332.882 45.79 332.06C45.41 329.32 45.7 328.85 46 328.61C46.0972 328.535 46.2132 328.489 46.3351 328.477C46.4569 328.465 46.5798 328.487 46.69 328.54C47.76 328.99 49.05 332.87 49.3 335.07C49.33 335.299 49.33 335.531 49.3 335.76C49.7311 335.926 50.1882 336.014 50.65 336.02C51.498 336.053 52.3367 335.834 53.06 335.39C52.92 335.3 52.79 335.2 52.66 335.1C51.66 334.21 51.2 332.79 51.38 330.77C51.52 329.2 51.87 328.34 52.5 328.07C52.7033 327.988 52.9258 327.968 53.1407 328.01C53.3555 328.053 53.5533 328.157 53.71 328.31C54.3851 329.055 54.8895 329.939 55.1883 330.899C55.4871 331.859 55.573 332.873 55.44 333.87C55.3532 334.285 55.1794 334.677 54.93 335.02C56.77 335.34 59.35 334.82 61.58 334.27C61.6457 334.254 61.7138 334.252 61.7805 334.262C61.8472 334.273 61.9111 334.296 61.9687 334.332C62.0263 334.367 62.0764 334.413 62.116 334.468C62.1557 334.522 62.1843 334.584 62.2 334.65C62.2158 334.716 62.2184 334.784 62.2079 334.85C62.1973 334.917 62.1737 334.981 62.1384 335.039C62.1031 335.096 62.0569 335.146 62.0022 335.186C61.9476 335.226 61.8857 335.254 61.82 335.27C59.11 335.94 56.19 336.49 54.13 335.89C53.1244 336.654 51.8931 337.063 50.63 337.05C50.0695 337.043 49.5146 336.938 48.99 336.74C48.7574 337.1 48.4452 337.401 48.0777 337.622C47.7102 337.842 47.297 337.975 46.87 338.01C46.1183 338.107 45.3547 338.042 44.63 337.82C44.3967 338.213 44.0473 338.524 43.63 338.71C43.0937 338.926 42.5181 339.029 41.94 339.01V339.01ZM41.08 330.73C40.9417 331.41 40.9691 332.113 41.16 332.78C41.3011 333.58 41.6329 334.333 42.1273 334.978C42.6216 335.622 43.2641 336.137 44 336.48C43.986 336.243 43.9458 336.008 43.88 335.78C43.1 332.92 41.6 330.95 41.08 330.73V330.73ZM46.65 329.86C46.6565 330.55 46.7133 331.238 46.82 331.92C46.9303 333.139 47.4688 334.28 48.34 335.14C48.0939 333.294 47.5217 331.506 46.65 329.86V329.86ZM52.94 328.99C52.94 328.99 52.56 329.18 52.42 330.85C52.28 332.52 52.57 333.67 53.35 334.34C53.5346 334.49 53.7359 334.617 53.95 334.72C54.213 334.439 54.399 334.094 54.49 333.72C54.6681 332.146 54.2429 330.563 53.3 329.29C53.09 329.03 52.97 328.99 52.94 328.99V328.99Z" fill="#263238"/>
<path id="Vector_69" d="M188.31 346.57L191.02 341.87L188.31 337.17H185.41L187.04 341.87L185.41 346.57H188.31Z" fill="#263238"/>
<path id="Vector_70" d="M185.59 344.32C185.256 344.341 184.921 344.294 184.605 344.181C184.29 344.068 184.002 343.891 183.757 343.662C183.513 343.433 183.318 343.156 183.185 342.849C183.052 342.541 182.984 342.21 182.984 341.875C182.984 341.54 183.052 341.209 183.185 340.901C183.318 340.594 183.513 340.317 183.757 340.088C184.002 339.859 184.29 339.682 184.605 339.569C184.921 339.456 185.256 339.409 185.59 339.43L180.99 338.51L179.76 342.23L181.82 345.37L185.59 344.32Z" fill="#263238"/>
<path id="Vector_71" d="M185.99 337.17H180.56L177.85 341.87L180.56 346.57H185.99L188.7 341.87L185.99 337.17ZM183.28 344.32C182.795 344.322 182.32 344.18 181.916 343.912C181.512 343.644 181.196 343.262 181.009 342.815C180.822 342.367 180.772 341.874 180.866 341.398C180.959 340.922 181.192 340.485 181.534 340.141C181.876 339.798 182.313 339.563 182.788 339.468C183.264 339.372 183.757 339.42 184.205 339.606C184.654 339.791 185.037 340.105 185.306 340.508C185.576 340.911 185.72 341.385 185.72 341.87C185.72 342.518 185.463 343.14 185.006 343.599C184.549 344.058 183.928 344.317 183.28 344.32V344.32Z" fill="#20BF55"/>
<path id="Vector_72" d="M377.32 336.86L375.31 333.37L377.32 329.88H379.48L378.26 333.37L379.48 336.86H377.32Z" fill="#20BF55"/>
<path id="Vector_73" d="M379.33 335.18C379.58 335.199 379.831 335.165 380.067 335.083C380.303 335 380.52 334.869 380.703 334.699C380.887 334.528 381.033 334.322 381.133 334.093C381.233 333.863 381.285 333.615 381.285 333.365C381.285 333.115 381.233 332.867 381.133 332.637C381.033 332.408 380.887 332.202 380.703 332.031C380.52 331.861 380.303 331.73 380.067 331.647C379.831 331.565 379.58 331.531 379.33 331.55L382.75 330.87L383.66 333.63L382.14 335.96L379.33 335.18Z" fill="#20BF55"/>
<path id="Vector_74" d="M379.04 329.87H383.04L385.04 333.36L383.04 336.85H379.04L377.04 333.36L379.04 329.87ZM381.04 335.18C381.4 335.182 381.753 335.077 382.054 334.878C382.354 334.679 382.589 334.396 382.729 334.063C382.868 333.731 382.905 333.365 382.836 333.011C382.767 332.657 382.595 332.332 382.34 332.077C382.086 331.821 381.762 331.647 381.409 331.576C381.055 331.505 380.689 331.54 380.356 331.678C380.023 331.815 379.738 332.048 379.537 332.348C379.337 332.647 379.23 333 379.23 333.36C379.229 333.599 379.275 333.837 379.366 334.058C379.457 334.279 379.591 334.481 379.76 334.65C379.929 334.819 380.131 334.953 380.352 335.044C380.573 335.135 380.811 335.181 381.05 335.18H381.04Z" fill="#263238"/>
<path id="Vector_75" d="M302.43 341.49H306.95C307.516 341.487 308.058 341.261 308.457 340.86C308.856 340.459 309.08 339.916 309.08 339.35V339.35C309.08 338.784 308.856 338.241 308.457 337.84C308.058 337.439 307.516 337.213 306.95 337.21H302.43C301.862 337.21 301.318 337.435 300.917 337.837C300.515 338.238 300.29 338.782 300.29 339.35V339.35C300.29 339.918 300.515 340.462 300.917 340.863C301.318 341.265 301.862 341.49 302.43 341.49V341.49Z" fill="#263238"/>
<path id="Vector_76" d="M295.16 337.45C295.579 336.687 296.213 336.064 296.983 335.657C297.752 335.249 298.624 335.076 299.491 335.159C300.357 335.241 301.181 335.576 301.86 336.121C302.539 336.666 303.043 337.397 303.312 338.226C303.58 339.054 303.599 339.943 303.368 340.782C303.137 341.621 302.666 342.375 302.012 342.949C301.358 343.524 300.55 343.895 299.688 344.016C298.826 344.137 297.947 344.002 297.16 343.63C296.079 343.072 295.261 342.11 294.887 340.952C294.512 339.794 294.61 338.536 295.16 337.45Z" fill="#20BF55"/>
<path id="Vector_77" d="M296.39 343.629L297.629 344.213L301.936 335.077L300.696 334.493L296.39 343.629Z" fill="#263238"/>
</g>
</g>
</svg>
