<svg width="389" height="182" viewBox="0 0 389 182" fill="none" xmlns="http://www.w3.org/2000/svg">
<path d="M194.43 181.15C301.512 181.15 388.32 176.082 388.32 169.83C388.32 163.578 301.512 158.51 194.43 158.51C87.3475 158.51 0.539978 163.578 0.539978 169.83C0.539978 176.082 87.3475 181.15 194.43 181.15Z" fill="#F5F5F5"/>
<path d="M166.88 58.43C168.27 36.03 165.72 -4.70002 207.83 0.699982C252.96 6.46998 240.05 59.25 240.05 59.25L166.88 58.43Z" fill="#3E4147"/>
<path d="M195.95 44.97C206.101 44.97 214.33 36.741 214.33 26.59C214.33 16.439 206.101 8.21002 195.95 8.21002C185.799 8.21002 177.57 16.439 177.57 26.59C177.57 36.741 185.799 44.97 195.95 44.97Z" fill="white"/>
<path d="M198.36 8.23998C189.65 6.75998 180.36 13.17 179.43 19.67L213.94 22.85C212.72 15.44 205.26 9.41998 198.36 8.23998Z" fill="#3E4147"/>
<path d="M210.01 26.13C209.76 30.94 207.14 34.71 204.16 34.55C201.18 34.39 198.96 30.38 199.16 25.55C199.36 20.72 202.03 16.97 205.01 17.13C207.99 17.29 210.25 21.33 210.01 26.13Z" fill="#3E4147"/>
<path d="M195.94 45.97C192.107 45.97 188.36 44.8334 185.173 42.7039C181.986 40.5744 179.502 37.5476 178.035 34.0064C176.568 30.4652 176.185 26.5685 176.932 22.8091C177.68 19.0498 179.526 15.5966 182.236 12.8863C184.947 10.1759 188.4 8.33016 192.159 7.58238C195.919 6.8346 199.815 7.21839 203.356 8.68521C206.898 10.152 209.924 12.636 212.054 15.8231C214.183 19.0101 215.32 22.757 215.32 26.59C215.315 31.7283 213.271 36.6546 209.638 40.2879C206.005 43.9212 201.078 45.9647 195.94 45.97V45.97ZM195.94 9.22C192.502 9.22 189.141 10.2396 186.283 12.1498C183.425 14.0599 181.197 16.7749 179.882 19.9513C178.567 23.1276 178.223 26.6227 178.895 29.9944C179.566 33.366 181.222 36.4628 183.654 38.893C186.086 41.3233 189.183 42.9778 192.555 43.6473C195.928 44.3168 199.422 43.9711 202.598 42.6541C205.774 41.3372 208.487 39.108 210.396 36.2485C212.304 33.3891 213.322 30.0279 213.32 26.59C213.315 21.9831 211.482 17.5665 208.223 14.3099C204.965 11.0532 200.547 9.22265 195.94 9.22V9.22Z" fill="#20BF55"/>
<path opacity="0.3" d="M234.92 57.87H234.8C234.736 57.8559 234.675 57.8291 234.621 57.791C234.568 57.753 234.522 57.7045 234.488 57.6485C234.453 57.5925 234.43 57.5302 234.42 57.4651C234.41 57.4001 234.414 57.3337 234.43 57.27C234.43 57.14 237.65 43.58 234.34 29.87C234.308 29.7374 234.33 29.5976 234.402 29.4813C234.473 29.365 234.587 29.2818 234.72 29.25C234.853 29.2182 234.992 29.2403 235.109 29.3116C235.225 29.3829 235.308 29.4974 235.34 29.63C238.71 43.63 235.46 57.37 235.43 57.5C235.4 57.6108 235.333 57.7081 235.241 57.7755C235.148 57.8428 235.035 57.8762 234.92 57.87V57.87Z" fill="white"/>
<path opacity="0.3" d="M232.13 22.35C232.034 22.3488 231.94 22.3211 231.859 22.2699C231.778 22.2187 231.712 22.1461 231.67 22.06C230.427 19.3128 228.834 16.738 226.93 14.4C226.847 14.2976 226.808 14.1667 226.821 14.0356C226.834 13.9045 226.898 13.7839 227 13.7C227.051 13.6574 227.11 13.6254 227.173 13.6058C227.237 13.5863 227.304 13.5796 227.37 13.5861C227.436 13.5926 227.5 13.6122 227.558 13.6438C227.617 13.6754 227.668 13.7183 227.71 13.77C229.661 16.1759 231.297 18.8205 232.58 21.64C232.608 21.6989 232.625 21.763 232.628 21.8284C232.632 21.8938 232.622 21.9591 232.599 22.0207C232.577 22.0822 232.542 22.1386 232.498 22.1866C232.453 22.2346 232.4 22.2731 232.34 22.3C232.274 22.3306 232.203 22.3476 232.13 22.35V22.35Z" fill="white"/>
<path d="M73.16 163.51H72.79C71.4639 163.473 70.2069 162.91 69.2955 161.947C68.384 160.983 67.8929 159.696 67.93 158.37C67.9671 157.044 68.5295 155.787 69.4935 154.875C70.4574 153.964 71.7439 153.473 73.07 153.51H73.16C76.05 153.51 83 150 97.54 127.08C97.926 126.471 98.439 125.953 99.0439 125.561C99.6488 125.169 100.331 124.913 101.045 124.809C101.758 124.706 102.485 124.758 103.176 124.961C103.868 125.165 104.507 125.516 105.05 125.99C116.469 135.806 128.922 144.35 142.19 151.47C142.804 151.749 143.355 152.15 143.81 152.648C144.265 153.146 144.615 153.73 144.838 154.367C145.062 155.003 145.154 155.679 145.109 156.352C145.064 157.025 144.884 157.682 144.579 158.283C144.274 158.885 143.85 159.419 143.333 159.852C142.817 160.286 142.217 160.61 141.572 160.806C140.926 161.002 140.248 161.065 139.577 160.992C138.907 160.919 138.258 160.711 137.67 160.38C125.339 153.827 113.682 146.077 102.87 137.24C90.68 155.59 81.64 163.51 73.16 163.51Z" fill="#3E4147"/>
<path d="M104.1 125.09H103.67C102.884 124.976 102.176 124.555 101.699 123.92C101.223 123.284 101.019 122.486 101.13 121.7C101.84 116.7 100.96 98.07 94.65 83.57C94.3702 82.9292 94.3229 82.2108 94.5164 81.5388C94.71 80.8669 95.1322 80.2837 95.71 79.89C109.41 70.56 138.59 69.44 139.83 69.4C140.224 69.3868 140.617 69.4514 140.986 69.5901C141.355 69.7287 141.693 69.9387 141.981 70.208C142.269 70.4773 142.5 70.8006 142.663 71.1595C142.826 71.5185 142.917 71.906 142.93 72.3C142.943 72.6939 142.879 73.0866 142.74 73.4556C142.601 73.8246 142.391 74.1627 142.122 74.4506C141.853 74.7384 141.529 74.9705 141.17 75.1333C140.812 75.2962 140.424 75.3868 140.03 75.4C139.76 75.4 114.25 76.4 101.15 83.6C106.73 98.04 108 116.03 107.07 122.54C106.962 123.25 106.603 123.898 106.058 124.366C105.513 124.834 104.818 125.091 104.1 125.09Z" fill="#3E4147"/>
<path d="M109.14 121.21C107.14 116.5 98.14 117.03 92.87 121.07C90.05 123.22 86.23 129.71 85.87 132.07C85.75 132.631 85.7679 133.212 85.9224 133.765C86.0768 134.317 86.3631 134.823 86.7566 135.24C87.1501 135.658 87.6391 135.973 88.1814 136.159C88.7238 136.345 89.3032 136.397 89.87 136.31C93.32 136.01 98.05 131 98.05 131C94.9 134.09 98.97 136.27 105.05 131.8C108.37 129.31 111.37 126.48 109.14 121.21Z" fill="#20BF55"/>
<path d="M281.14 59.75C281.094 59.7603 281.046 59.7603 281 59.75C280.936 59.7328 280.877 59.7029 280.825 59.6621C280.773 59.6213 280.73 59.5704 280.698 59.5125C280.666 59.4546 280.646 59.3908 280.64 59.3251C280.633 59.2594 280.64 59.193 280.66 59.13C281.99 54.49 283.44 51.66 285.35 50.13C285.051 49.0545 285.107 47.911 285.51 46.87C285.976 45.6548 286.799 44.609 287.87 43.87C287.579 43.5553 287.372 43.1721 287.269 42.7559C287.166 42.3398 287.169 41.9042 287.28 41.49C287.642 40.2373 288.391 39.1312 289.42 38.33C289.049 37.915 288.846 37.3767 288.85 36.82C288.85 33.82 294.36 29.3 300.61 28.44C300.743 28.4214 300.877 28.4563 300.984 28.537C301.091 28.6176 301.161 28.7374 301.18 28.87C301.199 29.0026 301.164 29.1371 301.083 29.244C301.002 29.3509 300.883 29.4214 300.75 29.44C294.81 30.25 289.83 34.55 289.85 36.82C289.848 37.1585 289.977 37.4846 290.21 37.73C291.555 36.8178 293.069 36.1826 294.662 35.8615C296.255 35.5405 297.896 35.5399 299.49 35.86C302.56 36.45 303.81 37.1 303.67 38.03C303.39 39.78 296.86 40.15 292.48 39.63C291.695 39.5587 290.932 39.3381 290.23 38.98C289.287 39.6512 288.586 40.6085 288.23 41.71C288.144 42.0014 288.145 42.3115 288.232 42.6026C288.319 42.8937 288.488 43.1534 288.72 43.35C290.58 42.35 293.19 41.99 296.64 42.75C301.17 43.75 301.34 44.3 301.45 44.63C301.485 44.7466 301.488 44.8706 301.458 44.9886C301.428 45.1067 301.367 45.2143 301.28 45.3C300.33 46.3 293.38 45.83 289.89 44.97C289.469 44.8739 289.062 44.7226 288.68 44.52C287.647 45.1477 286.852 46.101 286.42 47.23C286.131 47.9605 286.052 48.7568 286.19 49.53C286.368 49.4235 286.552 49.3267 286.74 49.24C288.81 48.24 291.31 48.42 294.4 49.74C296.4 50.61 297.4 51.39 297.5 52.18C297.504 52.3827 297.454 52.5827 297.353 52.7588C297.253 52.9349 297.107 53.0805 296.93 53.18C295.4 54.18 290.06 54.04 287.28 52.56C286.641 52.2126 286.108 51.6975 285.74 51.07C284.11 52.57 282.79 55.24 281.59 59.43C281.554 59.5209 281.492 59.5994 281.412 59.6562C281.332 59.7129 281.238 59.7455 281.14 59.75V59.75ZM286.56 50.42C286.838 50.9373 287.263 51.3615 287.78 51.64C290.04 52.84 294.48 53.11 296.14 52.44C296.48 52.3 296.53 52.19 296.53 52.19C296.53 52.19 296.48 51.63 294.03 50.58C291.23 49.38 289.03 49.21 287.2 50.06C286.979 50.1663 286.765 50.2866 286.56 50.42V50.42ZM289.9 43.85L290.15 43.92C293.406 44.6705 296.758 44.9233 300.09 44.67C298.908 44.2315 297.69 43.8969 296.45 43.67C294.296 43.0865 292.018 43.1491 289.9 43.85V43.85ZM291.16 38.23C291.622 38.3955 292.102 38.5029 292.59 38.55C297.59 39.14 301.98 38.45 302.59 37.82C302.42 37.67 301.75 37.24 299.27 36.77C296.479 36.2134 293.581 36.7352 291.16 38.23V38.23Z" fill="#3E4147"/>
<path d="M150.96 161.84C151.62 161.63 151.4 160.99 150.66 160.99H137.12C111.34 158.26 93.33 161.92 104.68 162.78C116.03 163.64 103.88 163.46 95.59 166.6C87.3 169.74 157.24 170.53 163.59 166.6C169.43 162.98 141.82 164.77 150.96 161.84Z" fill="#3E4147"/>
<path d="M247.9 165.83L130.1 161.93L125.21 47.7L264.32 50.81L247.9 165.83Z" fill="#20BF55"/>
<path d="M166.88 163.64C166.754 163.64 166.633 163.593 166.54 163.508C166.447 163.423 166.39 163.306 166.38 163.18L156.94 48.46C156.932 48.3279 156.975 48.1977 157.061 48.0969C157.147 47.9962 157.268 47.9327 157.4 47.92C157.532 47.9141 157.66 47.9582 157.761 48.0436C157.861 48.129 157.925 48.2492 157.94 48.38L167.43 163.1C167.435 163.166 167.428 163.232 167.408 163.295C167.387 163.357 167.355 163.416 167.312 163.466C167.27 163.516 167.217 163.557 167.159 163.587C167.1 163.617 167.036 163.635 166.97 163.64H166.88Z" fill="#3E4147"/>
<path d="M247.9 165.83L279.56 161.01L289.54 54.8L264.32 50.81L247.9 165.83Z" fill="#20BF55"/>
<path opacity="0.2" d="M247.9 165.83L279.56 161.01L289.54 54.8L264.32 50.81L247.9 165.83Z" fill="black"/>
<path d="M140.16 139.91L137.26 72.04C137.188 70.3634 137.462 68.6898 138.063 67.123C138.664 65.5561 139.58 64.1291 140.754 62.9304C141.928 61.7316 143.336 60.7864 144.89 60.1534C146.445 59.5204 148.112 59.2129 149.79 59.25L237.85 61.25C239.584 61.2892 241.29 61.6955 242.855 62.4422C244.421 63.1889 245.81 64.259 246.932 65.5819C248.054 66.9048 248.882 68.4505 249.363 70.117C249.843 71.7835 249.965 73.533 249.72 75.25L239.96 143.59C239.538 146.583 238.025 149.315 235.713 151.262C233.401 153.209 230.451 154.234 227.43 154.14L152.04 151.64C148.945 151.545 146.001 150.282 143.797 148.107C141.594 145.931 140.295 143.003 140.16 139.91V139.91Z" fill="#3E4147"/>
<path d="M149.68 80.08L163.3 80.51L163.19 84.02L154.66 83.75L154.58 86.37L162.49 86.62L162.38 89.98L154.47 89.72L154.37 92.97L163.14 93.25L163.02 96.97L149.15 96.53L149.68 80.08Z" fill="white"/>
<path d="M165.83 97.06L166.35 80.61L174.83 80.88C176.046 80.8738 177.256 81.049 178.42 81.4C179.245 81.6763 179.951 82.2268 180.42 82.96C180.768 83.4939 181.001 84.0937 181.107 84.722C181.213 85.3503 181.188 85.9936 181.034 86.6118C180.88 87.2301 180.601 87.81 180.213 88.3155C179.825 88.821 179.337 89.2412 178.78 89.55C178.211 89.8427 177.601 90.0452 176.97 90.15C177.435 90.2997 177.876 90.5153 178.28 90.79C178.572 91.0609 178.833 91.3627 179.06 91.69C179.318 92.0012 179.545 92.336 179.74 92.69L182.05 97.54L176.31 97.35L173.75 92.24C173.547 91.752 173.248 91.3099 172.87 90.94C172.511 90.6804 172.083 90.5341 171.64 90.52H171.19L170.98 97.19L165.83 97.06ZM171.25 87.44L173.39 87.51C173.844 87.4824 174.296 87.4188 174.74 87.32C175.075 87.2691 175.378 87.0941 175.59 86.83C175.806 86.5634 175.929 86.2332 175.94 85.89C175.959 85.6613 175.927 85.4314 175.845 85.2168C175.764 85.0023 175.636 84.8086 175.47 84.65C174.912 84.2894 174.253 84.1177 173.59 84.16L171.35 84.09L171.25 87.44Z" fill="white"/>
<path d="M183.71 97.59L184.23 81.14L192.7 81.41C193.916 81.4029 195.126 81.5781 196.29 81.93C197.117 82.2034 197.823 82.7546 198.29 83.49C198.798 84.2913 199.036 85.2338 198.97 86.18C198.973 86.978 198.76 87.762 198.353 88.4486C197.946 89.1353 197.361 89.699 196.66 90.08C196.091 90.3711 195.48 90.5734 194.85 90.68C195.312 90.8291 195.75 91.0447 196.15 91.32C196.449 91.583 196.714 91.882 196.94 92.21C197.196 92.5227 197.423 92.8573 197.62 93.21L199.93 98.05L194.19 97.87L191.63 92.76C191.425 92.2728 191.126 91.8309 190.75 91.46C190.393 91.1902 189.958 91.0429 189.51 91.04H189.07L188.85 97.72L183.71 97.59ZM189.12 87.97L191.27 88.03C191.725 88.0127 192.177 87.9525 192.62 87.85C192.952 87.8005 193.253 87.625 193.46 87.36C193.684 87.0978 193.808 86.7648 193.81 86.42C193.832 86.192 193.802 85.9621 193.722 85.7473C193.642 85.5326 193.515 85.3387 193.35 85.18C192.792 84.8105 192.127 84.638 191.46 84.69L189.23 84.62L189.12 87.97Z" fill="white"/>
<path d="M200.75 89.95C200.673 88.8021 200.851 87.6513 201.271 86.5804C201.692 85.5095 202.344 84.545 203.182 83.7562C204.019 82.9674 205.021 82.3739 206.115 82.0184C207.209 81.6629 208.369 81.5541 209.51 81.7C210.662 81.6618 211.809 81.8555 212.885 82.2695C213.96 82.6835 214.941 83.3094 215.77 84.11C216.51 84.9618 217.068 85.9551 217.412 87.0295C217.756 88.1039 217.878 89.2371 217.77 90.36C217.778 91.9937 217.394 93.6055 216.65 95.06C215.976 96.2501 214.968 97.2166 213.75 97.84C212.315 98.5261 210.727 98.8292 209.14 98.72C207.558 98.7334 205.993 98.3916 204.56 97.72C203.34 97.0582 202.345 96.0488 201.7 94.82C200.944 93.3142 200.615 91.6297 200.75 89.95V89.95ZM205.83 90.13C205.68 91.3905 205.966 92.6644 206.64 93.74C206.955 94.0919 207.338 94.3768 207.766 94.5776C208.194 94.7784 208.657 94.891 209.13 94.9088C209.602 94.9265 210.073 94.849 210.514 94.6808C210.956 94.5126 211.359 94.2573 211.7 93.93C212.441 92.8074 212.793 91.4721 212.7 90.13C212.834 88.9247 212.54 87.7106 211.87 86.7C211.567 86.3506 211.192 86.0706 210.771 85.879C210.35 85.6875 209.893 85.5889 209.43 85.59C208.963 85.5565 208.495 85.629 208.06 85.8022C207.626 85.9754 207.236 86.2447 206.92 86.59C206.163 87.6107 205.778 88.8601 205.83 90.13V90.13Z" fill="white"/>
<path d="M220.34 98.8L220.86 82.34L229.33 82.61C230.546 82.608 231.755 82.7832 232.92 83.13C233.743 83.4106 234.447 83.9601 234.92 84.69C235.425 85.4924 235.663 86.434 235.6 87.38C235.605 88.1798 235.392 88.9658 234.986 89.6544C234.579 90.3429 233.993 90.9082 233.29 91.29C232.718 91.573 232.109 91.7717 231.48 91.88C231.943 92.0322 232.381 92.2512 232.78 92.53C233.079 92.793 233.344 93.0919 233.57 93.42C233.828 93.7312 234.055 94.066 234.25 94.42L236.56 99.27L230.82 99.09L228.26 93.97C228.056 93.4852 227.757 93.0464 227.38 92.68C227.021 92.4115 226.588 92.2613 226.14 92.25H225.7L225.48 98.93L220.34 98.8ZM225.75 89.17L227.9 89.24C228.355 89.2227 228.807 89.1625 229.25 89.06C229.581 89.0067 229.881 88.832 230.09 88.57C230.326 88.2913 230.451 87.9351 230.44 87.57C230.462 87.3435 230.431 87.1151 230.352 86.902C230.272 86.6889 230.145 86.4967 229.98 86.34C229.422 85.9705 228.757 85.798 228.09 85.85L225.86 85.78L225.75 89.17Z" fill="white"/>
<path d="M228.43 126.75C228.242 126.754 228.056 126.717 227.884 126.643C227.711 126.569 227.557 126.459 227.43 126.32L218.87 116.95L209.63 125.39C209.374 125.625 209.035 125.748 208.688 125.733C208.342 125.718 208.015 125.566 207.78 125.31L199.22 115.94L189.98 124.38C189.724 124.615 189.385 124.738 189.038 124.723C188.692 124.708 188.365 124.556 188.13 124.3L179.56 114.93L170.33 123.37C170.195 123.492 170.037 123.585 169.865 123.643C169.693 123.702 169.511 123.725 169.33 123.71C168.983 123.689 168.657 123.535 168.42 123.28L159.86 113.92L150.63 122.35C150.372 122.585 150.032 122.709 149.684 122.694C149.335 122.679 149.007 122.526 148.77 122.27C148.653 122.143 148.563 121.994 148.504 121.832C148.445 121.67 148.419 121.498 148.428 121.326C148.436 121.154 148.479 120.985 148.553 120.83C148.627 120.674 148.731 120.535 148.86 120.42L159.06 111.09C159.318 110.855 159.658 110.731 160.007 110.746C160.355 110.761 160.683 110.914 160.92 111.17L169.48 120.54L178.71 112.1C178.972 111.87 179.312 111.748 179.66 111.76C180.008 111.779 180.335 111.933 180.57 112.19L189.13 121.56L198.37 113.12C198.496 113.003 198.644 112.911 198.806 112.852C198.968 112.792 199.14 112.765 199.312 112.773C199.484 112.78 199.653 112.822 199.809 112.895C199.965 112.969 200.104 113.072 200.22 113.2L208.78 122.57L218.02 114.13C218.276 113.895 218.615 113.772 218.962 113.787C219.308 113.802 219.635 113.954 219.87 114.21L229.43 124.59C229.601 124.781 229.712 125.017 229.751 125.271C229.79 125.524 229.754 125.783 229.648 126.016C229.542 126.25 229.37 126.447 229.154 126.584C228.938 126.722 228.686 126.793 228.43 126.79V126.75Z" fill="white"/>
<path d="M70.18 168.26L63.93 165.27L58.34 138.11L61.37 134.77L70.18 168.26Z" fill="#20BF55"/>
<path d="M70.18 168.26L78.49 163.41L71.37 141.02L61.37 134.77L70.18 168.26Z" fill="#20BF55"/>
<path opacity="0.2" d="M70.18 168.26L78.49 163.41L71.37 141.02L61.37 134.77L70.18 168.26Z" fill="black"/>
<path d="M206.43 173.2H205.74C204.414 173.164 203.156 172.603 202.244 171.64C201.332 170.677 200.839 169.391 200.875 168.065C200.911 166.739 201.472 165.481 202.435 164.569C203.398 163.657 204.684 163.164 206.01 163.2C213.71 163.45 230.01 158.72 239.33 149.68C239.893 149.128 240.578 148.717 241.33 148.48C257.12 143.74 262.99 153.31 263.23 153.72L254.63 158.81C254.66 158.874 254.697 158.934 254.74 158.99C254.65 158.86 252.41 155.99 245.29 157.75C233.6 168.41 215.66 173.2 206.43 173.2Z" fill="#3E4147"/>
<path d="M205.83 179.84L187.62 178.7L186.18 145.12L210.66 146.04L205.83 179.84Z" fill="#20BF55"/>
<path d="M205.83 179.84L210.09 175.61L212.72 154.67L210.66 146.04L205.83 179.84Z" fill="#20BF55"/>
<path opacity="0.2" d="M205.83 179.84L210.09 175.61L212.72 154.67L210.66 146.04L205.83 179.84Z" fill="black"/>
<path d="M311.34 167.13C310.686 167.129 310.051 166.915 309.53 166.52C299.13 158.62 285.08 144.59 279.69 131.06C279.609 130.864 279.552 130.659 279.52 130.45C276.89 114.81 274.38 81.9 274.27 80.51C274.24 80.1161 274.289 79.7201 274.412 79.3448C274.536 78.9695 274.732 78.6223 274.99 78.3228C275.51 77.718 276.249 77.3447 277.045 77.285C277.841 77.2253 278.627 77.4842 279.232 78.0046C279.837 78.525 280.21 79.2644 280.27 80.06C280.27 80.39 282.84 113.62 285.4 129.13C290.78 142.29 305.4 155.8 313.18 161.74C313.681 162.12 314.05 162.648 314.234 163.249C314.419 163.85 314.41 164.494 314.209 165.09C314.008 165.686 313.625 166.203 313.113 166.569C312.602 166.935 311.989 167.131 311.36 167.13H311.34Z" fill="#3E4147"/>
<path d="M325.21 168.64C322.89 168.64 320.26 167.59 317.39 165.52C316.746 165.053 316.313 164.35 316.187 163.564C316.062 162.778 316.253 161.974 316.72 161.33C317.187 160.686 317.89 160.253 318.676 160.127C319.462 160.002 320.266 160.193 320.91 160.66C323.39 162.45 324.74 162.66 325.21 162.66C326.006 162.66 326.769 162.976 327.331 163.539C327.894 164.101 328.21 164.864 328.21 165.66C328.21 166.456 327.894 167.219 327.331 167.781C326.769 168.344 326.006 168.66 325.21 168.66V168.64Z" fill="#3E4147"/>
<path d="M318.23 165.43C321.44 155.9 334.6 157.78 339.14 159.2C343.018 160.326 346.738 161.939 350.21 164C352.66 165.6 352.7 168.29 349.43 169.82C345.43 171.7 335.27 170.03 335.27 170.03C340.51 172.32 335.27 176.03 326.06 172.39C323.07 171.21 317.1 168.93 318.23 165.43Z" fill="#20BF55"/>
<path d="M286.29 84.59C285.1 92.69 278.39 98.66 272.93 97.86C267.47 97.06 267.25 89.86 268.44 81.72C269.63 73.58 271.79 67.72 277.25 68.52C282.71 69.32 287.48 76.52 286.29 84.59Z" fill="#3E4147"/>
<path d="M154.31 52.29C154.763 52.29 155.13 51.9229 155.13 51.47C155.13 51.0171 154.763 50.65 154.31 50.65C153.857 50.65 153.49 51.0171 153.49 51.47C153.49 51.9229 153.857 52.29 154.31 52.29Z" fill="#3E4147"/>
<path d="M162.64 57.37C162.64 57.5322 162.592 57.6907 162.502 57.8256C162.412 57.9604 162.284 58.0655 162.134 58.1276C161.984 58.1896 161.819 58.2059 161.66 58.1743C161.501 58.1426 161.355 58.0645 161.24 57.9498C161.125 57.8352 161.047 57.689 161.016 57.53C160.984 57.3709 161 57.206 161.062 57.0562C161.124 56.9063 161.23 56.7783 161.364 56.6882C161.499 56.5981 161.658 56.55 161.82 56.55C162.037 56.55 162.246 56.6364 162.4 56.7902C162.554 56.9439 162.64 57.1525 162.64 57.37Z" fill="#3E4147"/>
<path d="M163.56 154.27C163.56 154.432 163.512 154.591 163.422 154.726C163.332 154.86 163.204 154.965 163.054 155.028C162.904 155.09 162.739 155.106 162.58 155.074C162.421 155.043 162.275 154.964 162.16 154.85C162.045 154.735 161.967 154.589 161.936 154.43C161.904 154.271 161.92 154.106 161.982 153.956C162.044 153.806 162.15 153.678 162.284 153.588C162.419 153.498 162.578 153.45 162.74 153.45C162.957 153.45 163.166 153.536 163.32 153.69C163.474 153.844 163.56 154.052 163.56 154.27V154.27Z" fill="#3E4147"/>
<path d="M171.07 160.18C171.07 160.342 171.022 160.501 170.932 160.636C170.842 160.77 170.714 160.876 170.564 160.938C170.414 161 170.249 161.016 170.09 160.984C169.931 160.953 169.785 160.875 169.67 160.76C169.555 160.645 169.477 160.499 169.446 160.34C169.414 160.181 169.43 160.016 169.492 159.866C169.554 159.716 169.66 159.588 169.794 159.498C169.929 159.408 170.088 159.36 170.25 159.36C170.467 159.36 170.676 159.446 170.83 159.6C170.984 159.754 171.07 159.963 171.07 160.18Z" fill="#3E4147"/>
<path d="M26.94 170.01C25.5004 169.943 24.0942 169.553 22.8255 168.869C21.5568 168.185 20.4579 167.225 19.61 166.06C19.5684 166.006 19.5382 165.945 19.5212 165.879C19.5042 165.814 19.5007 165.745 19.511 165.678C19.5212 165.611 19.545 165.547 19.5809 165.489C19.6168 165.432 19.6641 165.382 19.7198 165.343C19.7755 165.304 19.8385 165.277 19.905 165.264C19.9715 165.25 20.04 165.25 20.1065 165.264C20.1729 165.278 20.2358 165.305 20.2915 165.344C20.3471 165.383 20.3942 165.432 20.43 165.49C22.3 168.19 26.43 169.62 28.23 168.77C28.4103 168.694 28.571 168.577 28.7 168.43C27.7905 168.03 26.9936 167.412 26.3796 166.63C25.7657 165.849 25.3537 164.928 25.18 163.95C24.95 162.68 24.77 160.95 25.81 160.73C27.25 160.41 29.13 163.88 29.81 166.51C29.9332 166.945 29.9772 167.399 29.94 167.85C30.5168 168.022 31.1235 168.07 31.72 167.99C31.9888 167.969 32.2504 167.893 32.488 167.765C32.7256 167.638 32.934 167.463 33.1 167.25C32.4419 166.753 31.896 166.124 31.4979 165.402C31.0999 164.68 30.8586 163.882 30.79 163.06C30.41 160.32 30.7 159.85 31 159.61C31.0972 159.535 31.2132 159.489 31.3351 159.477C31.4569 159.465 31.5798 159.487 31.69 159.54C32.76 159.99 34.05 163.87 34.3 166.07C34.33 166.299 34.33 166.531 34.3 166.76C34.7311 166.926 35.1882 167.014 35.65 167.02C36.498 167.053 37.3367 166.834 38.06 166.39C37.92 166.3 37.79 166.2 37.66 166.1C36.66 165.21 36.2 163.79 36.38 161.77C36.52 160.2 36.87 159.34 37.5 159.07C37.7033 158.988 37.9258 158.968 38.1407 159.01C38.3555 159.053 38.5533 159.157 38.71 159.31C39.3851 160.055 39.8895 160.939 40.1883 161.899C40.4871 162.859 40.573 163.873 40.44 164.87C40.3532 165.285 40.1794 165.677 39.93 166.02C41.77 166.34 44.35 165.82 46.58 165.27C46.6457 165.254 46.7138 165.252 46.7805 165.262C46.8472 165.273 46.9111 165.296 46.9687 165.332C47.0263 165.367 47.0764 165.413 47.116 165.468C47.1557 165.522 47.1843 165.584 47.2 165.65C47.2158 165.716 47.2184 165.784 47.2079 165.851C47.1973 165.917 47.1737 165.981 47.1384 166.039C47.1031 166.096 47.0569 166.146 47.0022 166.186C46.9476 166.226 46.8857 166.254 46.82 166.27C44.11 166.94 41.19 167.49 39.13 166.89C38.1244 167.654 36.8931 168.063 35.63 168.05C35.0695 168.043 34.5146 167.938 33.99 167.74C33.7574 168.1 33.4452 168.401 33.0777 168.622C32.7102 168.842 32.297 168.975 31.87 169.01C31.1183 169.107 30.3547 169.042 29.63 168.82C29.3967 169.213 29.0473 169.524 28.63 169.71C28.0937 169.926 27.5181 170.029 26.94 170.01V170.01ZM26.08 161.73C25.9417 162.41 25.9691 163.113 26.16 163.78C26.3011 164.58 26.6329 165.333 27.1273 165.978C27.6216 166.622 28.2641 167.137 29 167.48C28.986 167.243 28.9458 167.008 28.88 166.78C28.1 163.92 26.6 161.95 26.08 161.73V161.73ZM31.65 160.86C31.6565 161.55 31.7133 162.238 31.82 162.92C31.9303 164.139 32.4688 165.28 33.34 166.14C33.0939 164.294 32.5217 162.506 31.65 160.86V160.86ZM37.94 159.99C37.94 159.99 37.56 160.18 37.42 161.85C37.28 163.52 37.57 164.67 38.35 165.34C38.5346 165.49 38.7359 165.617 38.95 165.72C39.213 165.439 39.399 165.094 39.49 164.72C39.6681 163.146 39.2429 161.563 38.3 160.29C38.09 160.03 37.97 159.99 37.94 159.99V159.99Z" fill="#3E4147"/>
<path d="M173.31 177.57L176.02 172.87L173.31 168.17H170.41L172.04 172.87L170.41 177.57H173.31Z" fill="#3E4147"/>
<path d="M170.59 175.32C170.256 175.341 169.921 175.294 169.605 175.181C169.29 175.068 169.002 174.891 168.757 174.662C168.513 174.433 168.318 174.156 168.185 173.849C168.052 173.541 167.984 173.21 167.984 172.875C167.984 172.54 168.052 172.209 168.185 171.901C168.318 171.594 168.513 171.317 168.757 171.088C169.002 170.859 169.29 170.682 169.605 170.569C169.921 170.456 170.256 170.409 170.59 170.43L165.99 169.51L164.76 173.23L166.82 176.37L170.59 175.32Z" fill="#3E4147"/>
<path d="M170.99 168.17H165.56L162.85 172.87L165.56 177.57H170.99L173.7 172.87L170.99 168.17ZM168.28 175.32C167.795 175.322 167.32 175.18 166.916 174.912C166.512 174.644 166.196 174.262 166.009 173.815C165.822 173.367 165.772 172.874 165.866 172.398C165.959 171.922 166.192 171.485 166.534 171.141C166.876 170.798 167.313 170.563 167.788 170.468C168.264 170.372 168.757 170.42 169.205 170.606C169.653 170.791 170.037 171.105 170.306 171.508C170.576 171.911 170.72 172.385 170.72 172.87C170.72 173.518 170.463 174.14 170.006 174.599C169.549 175.058 168.928 175.317 168.28 175.32V175.32Z" fill="#20BF55"/>
<path d="M362.32 167.86L360.31 164.37L362.32 160.88H364.48L363.26 164.37L364.48 167.86H362.32Z" fill="#20BF55"/>
<path d="M364.33 166.18C364.58 166.199 364.831 166.165 365.067 166.083C365.303 166 365.52 165.869 365.703 165.699C365.887 165.528 366.033 165.322 366.133 165.093C366.233 164.863 366.285 164.615 366.285 164.365C366.285 164.115 366.233 163.867 366.133 163.637C366.033 163.408 365.887 163.202 365.703 163.031C365.52 162.861 365.303 162.73 365.067 162.647C364.831 162.565 364.58 162.531 364.33 162.55L367.75 161.87L368.66 164.63L367.14 166.96L364.33 166.18Z" fill="#20BF55"/>
<path d="M364.04 160.87H368.04L370.04 164.36L368.04 167.85H364.04L362.04 164.36L364.04 160.87ZM366.04 166.18C366.4 166.182 366.753 166.077 367.054 165.878C367.354 165.679 367.589 165.396 367.729 165.063C367.868 164.731 367.905 164.365 367.836 164.011C367.767 163.657 367.595 163.332 367.34 163.077C367.086 162.821 366.762 162.647 366.409 162.576C366.055 162.505 365.689 162.54 365.356 162.678C365.023 162.815 364.738 163.048 364.537 163.348C364.337 163.647 364.23 164 364.23 164.36C364.229 164.599 364.275 164.837 364.366 165.058C364.457 165.279 364.591 165.481 364.76 165.65C364.929 165.819 365.131 165.953 365.352 166.044C365.573 166.135 365.811 166.181 366.05 166.18H366.04Z" fill="#3E4147"/>
<path d="M287.43 172.49H291.95C292.516 172.487 293.058 172.261 293.457 171.86C293.856 171.459 294.08 170.916 294.08 170.35V170.35C294.08 169.784 293.856 169.241 293.457 168.84C293.058 168.439 292.516 168.213 291.95 168.21H287.43C286.862 168.21 286.318 168.435 285.917 168.837C285.515 169.238 285.29 169.782 285.29 170.35V170.35C285.29 170.918 285.515 171.462 285.917 171.863C286.318 172.264 286.862 172.49 287.43 172.49V172.49Z" fill="#3E4147"/>
<path d="M280.16 168.45C280.579 167.687 281.213 167.064 281.983 166.656C282.752 166.249 283.624 166.076 284.491 166.159C285.357 166.241 286.181 166.576 286.86 167.121C287.539 167.666 288.043 168.397 288.312 169.226C288.58 170.054 288.599 170.943 288.368 171.782C288.137 172.621 287.666 173.375 287.012 173.949C286.358 174.524 285.55 174.895 284.688 175.016C283.826 175.137 282.947 175.002 282.16 174.63C281.079 174.072 280.261 173.11 279.887 171.952C279.512 170.794 279.61 169.535 280.16 168.45Z" fill="#20BF55"/>
<path d="M281.39 174.629L282.629 175.213L286.936 166.077L285.696 165.493L281.39 174.629Z" fill="#3E4147"/>
</svg>
