<svg width="300" height="300" viewBox="0 0 300 300" fill="none" xmlns="http://www.w3.org/2000/svg">
<rect width="300" height="300" fill="#555555"/>
<g id="Loading">
<g id="dot3" filter="url(#filter0_d)">
<path d="M160.69 143.676C166.593 143.676 171.379 138.823 171.379 132.838C171.379 126.852 166.593 122 160.69 122C154.786 122 150 126.852 150 132.838C150 138.823 154.786 143.676 160.69 143.676Z" fill="#20BF55"/>
</g>
<g id="dot2" filter="url(#filter1_d)">
<path d="M118.69 143.676C124.593 143.676 129.379 138.823 129.379 132.838C129.379 126.852 124.593 122 118.69 122C112.786 122 108 126.852 108 132.838C108 138.823 112.786 143.676 118.69 143.676Z" fill="#20BF55"/>
</g>
<g id="dot1" filter="url(#filter2_d)">
<path d="M76.6896 143.676C82.5933 143.676 87.3792 138.823 87.3792 132.838C87.3792 126.852 82.5933 122 76.6896 122C70.7859 122 66 126.852 66 132.838C66 138.823 70.7859 143.676 76.6896 143.676Z" fill="#20BF55"/>
</g>
<g id="arrow">
<path id="Vector" d="M238.362 114.73L238.357 114.725C233.874 110.776 226.998 111.165 223.002 115.594L196.565 144.886C192.568 149.315 192.962 156.106 197.445 160.056L197.451 160.061C201.934 164.009 208.809 163.62 212.805 159.192L239.242 129.899C243.239 125.47 242.845 118.678 238.362 114.73Z" fill="#3E4147"/>
<path id="Vector_2" d="M237.943 191.327L237.949 191.323C242.461 187.406 242.905 180.617 238.942 176.16L212.051 145.921C208.087 141.464 201.216 141.024 196.703 144.941L196.698 144.946C192.185 148.862 191.741 155.65 195.705 160.108L222.596 190.347C226.559 194.804 233.432 195.244 237.943 191.327Z" fill="#3E4147"/>
</g>
<g id="text" filter="url(#filter3_d)">
<text fill="white" xml:space="preserve" style="white-space: pre" font-family="Poppins" font-size="30" font-weight="800" letter-spacing="0em"><tspan x="57.1123" y="182">Loading</tspan></text>
</g>
</g>
<defs>
<filter id="filter0_d" x="146" y="122" width="29.3792" height="30.6755" filterUnits="userSpaceOnUse" color-interpolation-filters="sRGB">
<feFlood flood-opacity="0" result="BackgroundImageFix"/>
<feColorMatrix in="SourceAlpha" type="matrix" values="0 0 0 0 0 0 0 0 0 0 0 0 0 0 0 0 0 0 127 0"/>
<feOffset dy="5"/>
<feGaussianBlur stdDeviation="2"/>
<feColorMatrix type="matrix" values="0 0 0 0 0 0 0 0 0 0 0 0 0 0 0 0 0 0 0.25 0"/>
<feBlend mode="darken" in2="BackgroundImageFix" result="effect1_dropShadow"/>
<feBlend mode="normal" in="SourceGraphic" in2="effect1_dropShadow" result="shape"/>
</filter>
<filter id="filter1_d" x="104" y="122" width="29.3792" height="30.6755" filterUnits="userSpaceOnUse" color-interpolation-filters="sRGB">
<feFlood flood-opacity="0" result="BackgroundImageFix"/>
<feColorMatrix in="SourceAlpha" type="matrix" values="0 0 0 0 0 0 0 0 0 0 0 0 0 0 0 0 0 0 127 0"/>
<feOffset dy="5"/>
<feGaussianBlur stdDeviation="2"/>
<feColorMatrix type="matrix" values="0 0 0 0 0 0 0 0 0 0 0 0 0 0 0 0 0 0 0.25 0"/>
<feBlend mode="darken" in2="BackgroundImageFix" result="effect1_dropShadow"/>
<feBlend mode="normal" in="SourceGraphic" in2="effect1_dropShadow" result="shape"/>
</filter>
<filter id="filter2_d" x="62" y="122" width="29.3792" height="30.6755" filterUnits="userSpaceOnUse" color-interpolation-filters="sRGB">
<feFlood flood-opacity="0" result="BackgroundImageFix"/>
<feColorMatrix in="SourceAlpha" type="matrix" values="0 0 0 0 0 0 0 0 0 0 0 0 0 0 0 0 0 0 127 0"/>
<feOffset dy="5"/>
<feGaussianBlur stdDeviation="2"/>
<feColorMatrix type="matrix" values="0 0 0 0 0 0 0 0 0 0 0 0 0 0 0 0 0 0 0.25 0"/>
<feBlend mode="darken" in2="BackgroundImageFix" result="effect1_dropShadow"/>
<feBlend mode="normal" in="SourceGraphic" in2="effect1_dropShadow" result="shape"/>
</filter>
<filter id="filter3_d" x="54.7922" y="157.55" width="129.425" height="40.73" filterUnits="userSpaceOnUse" color-interpolation-filters="sRGB">
<feFlood flood-opacity="0" result="BackgroundImageFix"/>
<feColorMatrix in="SourceAlpha" type="matrix" values="0 0 0 0 0 0 0 0 0 0 0 0 0 0 0 0 0 0 127 0"/>
<feOffset dy="4"/>
<feGaussianBlur stdDeviation="2"/>
<feColorMatrix type="matrix" values="0 0 0 0 0 0 0 0 0 0 0 0 0 0 0 0 0 0 0.25 0"/>
<feBlend mode="normal" in2="BackgroundImageFix" result="effect1_dropShadow"/>
<feBlend mode="normal" in="SourceGraphic" in2="effect1_dropShadow" result="shape"/>
</filter>
</defs>
</svg>
